STARTFONT 2.1
FONT -FontForge-Roboto Mono Medium for Powerline-Medium-R-Normal--32-310-75-75-P-188-ISO10646-1
SIZE 31 75 75
FONTBOUNDINGBOX 47 42 -16 -9
COMMENT "Generated by fontforge, http://fontforge.sourceforge.net"
COMMENT "Copyright 2015 Google Inc. All Rights Reserved."
STARTPROPERTIES 41
FOUNDRY "FontForge"
FAMILY_NAME "Roboto Mono Medium for Powerline"
WEIGHT_NAME "Medium"
SLANT "R"
SETWIDTH_NAME "Normal"
ADD_STYLE_NAME ""
PIXEL_SIZE 32
POINT_SIZE 310
RESOLUTION_X 75
RESOLUTION_Y 75
SPACING "P"
AVERAGE_WIDTH 188
CHARSET_REGISTRY "ISO10646"
CHARSET_ENCODING "1"
FONTNAME_REGISTRY ""
CHARSET_COLLECTIONS "ISO8859-2 ISO8859-5 ISO8859-7 ISO8859-9 ISO8859-4 ISO10646-1"
FONT_NAME "RobotoMonoForPowerline-Medium"
FACE_NAME "Roboto Mono Medium for Powerline"
COPYRIGHT "Copyright 2015 Google Inc. All Rights Reserved."
FONT_VERSION "2.000986; 2015; ttfautohint (v1.3)"
FONT_ASCENT 24
FONT_DESCENT 8
UNDERLINE_POSITION -3
UNDERLINE_THICKNESS 2
X_HEIGHT 16
CAP_HEIGHT 21
DEFAULT_CHAR 3
RAW_ASCENT 750
RAW_DESCENT 250
NORM_SPACE 19
RELATIVE_WEIGHT 50
RELATIVE_SETWIDTH 50
SUPERSCRIPT_X 0
SUPERSCRIPT_Y 15
SUPERSCRIPT_SIZE 20
SUBSCRIPT_X 0
SUBSCRIPT_Y 4
SUBSCRIPT_SIZE 20
FIGURE_WIDTH 19
AVG_LOWERCASE_WIDTH 190
AVG_UPPERCASE_WIDTH 190
ENDPROPERTIES
CHARS 1052
STARTCHAR NULL
ENCODING 0
SWIDTH 0 0
DWIDTH 0 0
BBX 1 1 0 0
BITMAP
00
ENDCHAR
STARTCHAR uni0002
ENCODING 2
SWIDTH 600 0
DWIDTH 19 0
BBX 1 1 0 0
BITMAP
00
ENDCHAR
STARTCHAR uni0009
ENCODING 9
SWIDTH 600 0
DWIDTH 19 0
BBX 1 1 0 0
BITMAP
00
ENDCHAR
STARTCHAR nonmarkingreturn
ENCODING 13
SWIDTH 600 0
DWIDTH 19 0
BBX 1 1 0 0
BITMAP
00
ENDCHAR
STARTCHAR space
ENCODING 32
SWIDTH 600 0
DWIDTH 19 0
BBX 1 1 0 0
BITMAP
00
ENDCHAR
STARTCHAR exclam
ENCODING 33
SWIDTH 600 0
DWIDTH 19 0
BBX 5 22 7 0
BITMAP
70
70
70
70
70
70
70
70
70
70
70
70
70
70
70
00
00
00
70
F8
F8
70
ENDCHAR
STARTCHAR quotedbl
ENCODING 34
SWIDTH 600 0
DWIDTH 19 0
BBX 9 8 5 15
BITMAP
E380
E380
E380
E380
E380
E380
C380
C380
ENDCHAR
STARTCHAR numbersign
ENCODING 35
SWIDTH 600 0
DWIDTH 19 0
BBX 17 22 1 0
BITMAP
038600
038E00
038E00
030E00
030C00
071C00
7FFF80
7FFF80
061C00
061800
0E3800
0E3800
0E3800
FFFF00
FFFF00
FFFF00
1C7000
1C7000
1C7000
186000
386000
38E000
ENDCHAR
STARTCHAR dollar
ENCODING 36
SWIDTH 600 0
DWIDTH 19 0
BBX 15 29 2 -3
BITMAP
01C0
01C0
01C0
03E0
1FF8
3FFC
3C3E
781E
781E
780E
7800
7C00
3F00
1FC0
0FF0
03FC
007E
001E
001E
F00E
F00E
781E
7C3E
3FFC
1FF8
0FF0
0180
0180
0180
ENDCHAR
STARTCHAR percent
ENCODING 37
SWIDTH 600 0
DWIDTH 19 0
BBX 18 22 1 0
BITMAP
3C0000
FE0000
E70000
C30C00
C31C00
C31800
E73800
FF7000
3C6000
00E000
00C000
01C000
039E00
033F80
077380
067180
0E61C0
1C61C0
047180
007380
003F80
001E00
ENDCHAR
STARTCHAR ampersand
ENCODING 38
SWIDTH 600 0
DWIDTH 19 0
BBX 18 22 1 0
BITMAP
07E000
0FF000
1FF800
1E3800
3C3800
3C3800
1C3800
1EF000
0FE000
0FC000
0F8000
3FC380
3DE380
79F380
70F780
F07F80
F03F00
783E00
783E00
7FFF00
3FF780
0FC7C0
ENDCHAR
STARTCHAR quotesingle
ENCODING 39
SWIDTH 600 0
DWIDTH 19 0
BBX 3 8 7 15
BITMAP
E0
E0
E0
E0
E0
E0
E0
E0
ENDCHAR
STARTCHAR parenleft
ENCODING 40
SWIDTH 600 0
DWIDTH 19 0
BBX 9 33 5 -7
BITMAP
0080
0180
0380
0700
0E00
1E00
1C00
3C00
3800
3800
7800
7000
7000
7000
7000
F000
F000
F000
F000
7000
7000
7000
7000
7800
3800
3800
3C00
1C00
1E00
0E00
0700
0380
0180
ENDCHAR
STARTCHAR parenright
ENCODING 41
SWIDTH 600 0
DWIDTH 19 0
BBX 9 33 5 -7
BITMAP
8000
C000
E000
7000
3800
3C00
1C00
1E00
0E00
0E00
0F00
0700
0700
0700
0700
0780
0780
0780
0780
0700
0700
0700
0F00
0F00
0E00
0E00
1E00
1C00
3800
3800
7000
E000
C000
ENDCHAR
STARTCHAR asterisk
ENCODING 42
SWIDTH 600 0
DWIDTH 19 0
BBX 16 16 2 3
BITMAP
01C0
01C0
01C0
01C0
4182
798E
7FBF
BFFE
03E0
03E0
07E0
0E70
1E38
3C3C
1818
0010
ENDCHAR
STARTCHAR plus
ENCODING 43
SWIDTH 600 0
DWIDTH 19 0
BBX 15 16 2 2
BITMAP
0380
0380
0380
0380
0380
0380
FFFE
FFFE
FFFE
0380
0380
0380
0380
0380
0380
0380
ENDCHAR
STARTCHAR comma
ENCODING 44
SWIDTH 600 0
DWIDTH 19 0
BBX 5 9 6 -5
BITMAP
78
78
78
78
78
70
F0
E0
E0
ENDCHAR
STARTCHAR hyphen
ENCODING 45
SWIDTH 600 0
DWIDTH 19 0
BBX 12 3 4 8
BITMAP
FFF0
FFF0
FFF0
ENDCHAR
STARTCHAR period
ENCODING 46
SWIDTH 600 0
DWIDTH 19 0
BBX 6 5 7 0
BITMAP
78
F8
FC
F8
78
ENDCHAR
STARTCHAR slash
ENCODING 47
SWIDTH 600 0
DWIDTH 19 0
BBX 12 24 4 -2
BITMAP
00F0
00F0
00E0
01E0
01C0
01C0
03C0
0380
0780
0780
0700
0F00
0E00
0E00
1E00
1C00
1C00
3C00
3800
7800
7800
7000
F000
E000
ENDCHAR
STARTCHAR zero
ENCODING 48
SWIDTH 600 0
DWIDTH 19 0
BBX 15 22 2 0
BITMAP
07E0
1FF0
3FF8
7C3C
781C
701E
F01E
F01E
F03E
F0FE
F1FE
F79E
FF1E
FC1E
F81E
F01E
701E
781C
7C3C
3FF8
1FF0
07E0
ENDCHAR
STARTCHAR one
ENCODING 49
SWIDTH 600 0
DWIDTH 19 0
BBX 10 22 3 0
BITMAP
01C0
0FC0
7FC0
FFC0
FBC0
C3C0
03C0
03C0
03C0
03C0
03C0
03C0
03C0
03C0
03C0
03C0
03C0
03C0
03C0
03C0
03C0
03C0
ENDCHAR
STARTCHAR two
ENCODING 50
SWIDTH 600 0
DWIDTH 19 0
BBX 16 22 1 0
BITMAP
07E0
1FF8
3FFC
7C3C
781E
F01E
F01E
001E
001E
003C
0078
00F8
01F0
03E0
07C0
0F80
1F00
1E00
3C00
7FFF
7FFF
7FFF
ENDCHAR
STARTCHAR three
ENCODING 51
SWIDTH 600 0
DWIDTH 19 0
BBX 16 22 1 0
BITMAP
07E0
1FF8
3FFC
7C3E
781E
701E
001E
001E
003C
07F8
07F0
07FC
003E
001E
000E
800F
700E
781E
7C3E
3FFC
1FF8
07E0
ENDCHAR
STARTCHAR four
ENCODING 52
SWIDTH 600 0
DWIDTH 19 0
BBX 17 22 1 0
BITMAP
003C00
007C00
00FC00
00FC00
01FC00
03FC00
03BC00
073C00
0F3C00
0E3C00
1C3C00
3C3C00
383C00
703C00
FFFF80
FFFF80
FFFF80
003C00
003C00
003C00
003C00
003C00
ENDCHAR
STARTCHAR five
ENCODING 53
SWIDTH 600 0
DWIDTH 19 0
BBX 15 22 2 0
BITMAP
3FFC
3FFC
3FFC
3800
3800
3800
3800
7BE0
7FF8
7FFC
787C
001E
001E
001E
001E
001E
F01E
781E
7C3C
3FFC
1FF8
07E0
ENDCHAR
STARTCHAR six
ENCODING 54
SWIDTH 600 0
DWIDTH 19 0
BBX 15 22 2 0
BITMAP
01F0
07F0
0FF0
1F00
3C00
7800
7000
F3E0
FFF8
FFF8
FC7C
F03C
F01E
F01E
F01E
F01E
F01E
783C
7C7C
3FF8
1FF0
07C0
ENDCHAR
STARTCHAR seven
ENCODING 55
SWIDTH 600 0
DWIDTH 19 0
BBX 16 22 1 0
BITMAP
FFFF
FFFF
FFFF
000E
001E
001E
003C
003C
0038
0078
0070
00F0
00E0
01E0
01C0
03C0
03C0
0780
0780
0F00
0F00
1E00
ENDCHAR
STARTCHAR eight
ENCODING 56
SWIDTH 600 0
DWIDTH 19 0
BBX 15 22 2 0
BITMAP
07E0
1FF8
3FFC
7C3C
783C
781E
781E
783C
3C3C
3FF8
0FF0
3FF8
7C3C
781E
F01E
F01E
F01E
F01E
783E
7FFC
1FF8
0FE0
ENDCHAR
STARTCHAR nine
ENCODING 57
SWIDTH 600 0
DWIDTH 19 0
BBX 15 22 2 0
BITMAP
0FC0
1FF0
3FF8
7878
F03C
F03C
F01C
F01E
F01E
F01E
F03E
787E
7FFE
3FFC
0F9C
003C
0038
0078
01F0
1FE0
1FC0
1F00
ENDCHAR
STARTCHAR colon
ENCODING 58
SWIDTH 600 0
DWIDTH 19 0
BBX 5 18 8 0
BITMAP
70
F8
F8
F8
70
00
00
00
00
00
00
00
00
70
F8
F8
F8
70
ENDCHAR
STARTCHAR semicolon
ENCODING 59
SWIDTH 600 0
DWIDTH 19 0
BBX 6 23 7 -5
BITMAP
38
7C
7C
7C
38
00
00
00
00
00
00
00
00
00
38
38
38
38
78
78
70
70
E0
ENDCHAR
STARTCHAR less
ENCODING 60
SWIDTH 600 0
DWIDTH 19 0
BBX 13 14 3 3
BITMAP
0018
0078
01F8
0FF8
3FC0
FF00
F800
F000
FE00
3FC0
0FF8
03F8
0078
0018
ENDCHAR
STARTCHAR equal
ENCODING 61
SWIDTH 600 0
DWIDTH 19 0
BBX 14 10 3 5
BITMAP
FFFC
FFFC
FFFC
0000
0000
0000
0000
FFFC
FFFC
FFFC
ENDCHAR
STARTCHAR greater
ENCODING 62
SWIDTH 600 0
DWIDTH 19 0
BBX 14 14 3 3
BITMAP
8000
F000
FC00
FF80
1FE0
03F8
00FC
007C
03FC
1FE0
FF80
FE00
F000
C000
ENDCHAR
STARTCHAR question
ENCODING 63
SWIDTH 600 0
DWIDTH 19 0
BBX 14 22 3 0
BITMAP
0FC0
3FF0
7FF8
F878
F03C
E03C
003C
003C
0078
00F0
01E0
03C0
0780
0780
0700
0000
0000
0000
0700
0F80
0F80
0700
ENDCHAR
STARTCHAR at
ENCODING 64
SWIDTH 600 0
DWIDTH 19 0
BBX 17 22 1 0
BITMAP
01F000
07FC00
1E1E00
180700
30F300
73FB80
639980
673980
E63980
C63180
CE3180
CE3180
CE3180
CE3380
CE7300
E7FF00
E39E00
700000
700000
3C1000
1FF800
07E000
ENDCHAR
STARTCHAR A
ENCODING 65
SWIDTH 600 0
DWIDTH 19 0
BBX 18 22 1 0
BITMAP
01E000
01E000
03E000
03F000
03F000
07F000
07F800
077800
0F3800
0F3C00
0E3C00
1E1C00
1E1E00
1C1E00
3FFE00
3FFF00
3FFF00
780700
780780
700780
F00780
F003C0
ENDCHAR
STARTCHAR B
ENCODING 66
SWIDTH 600 0
DWIDTH 19 0
BBX 16 22 2 0
BITMAP
FFE0
FFF8
FFFC
F03E
F01E
F00E
F00E
F01E
F03E
FFFC
FFF0
FFFC
F01E
F00F
F00F
F00F
F00F
F00F
F03E
FFFE
FFF8
FFF0
ENDCHAR
STARTCHAR C
ENCODING 67
SWIDTH 600 0
DWIDTH 19 0
BBX 17 22 1 0
BITMAP
03F000
0FFC00
1FFE00
3E1F00
7C0F00
780700
780780
700000
F00000
F00000
F00000
F00000
F00000
F00000
700000
780780
780700
780F00
3E1F00
1FFE00
0FFC00
03F000
ENDCHAR
STARTCHAR D
ENCODING 68
SWIDTH 600 0
DWIDTH 19 0
BBX 16 22 2 0
BITMAP
FF80
FFE0
FFF8
F0FC
F03C
F01E
F01E
F00F
F00F
F00F
F00F
F00F
F00F
F00F
F00F
F01E
F01E
F03C
F07C
FFF8
FFE0
FF80
ENDCHAR
STARTCHAR E
ENCODING 69
SWIDTH 600 0
DWIDTH 19 0
BBX 14 22 3 0
BITMAP
FFFC
FFFC
FFFC
E000
E000
E000
E000
E000
E000
FFF8
FFF8
FFF8
E000
E000
E000
E000
E000
E000
E000
FFFC
FFFC
FFFC
ENDCHAR
STARTCHAR F
ENCODING 70
SWIDTH 600 0
DWIDTH 19 0
BBX 14 22 3 0
BITMAP
FFFC
FFFC
FFFC
E000
E000
E000
E000
E000
E000
FFF8
FFF8
FFF8
E000
E000
E000
E000
E000
E000
E000
E000
E000
E000
ENDCHAR
STARTCHAR G
ENCODING 71
SWIDTH 600 0
DWIDTH 19 0
BBX 17 22 1 0
BITMAP
03F000
0FFC00
1FFE00
3E1F00
3C0F00
780700
780080
700000
F00000
F00000
F07F80
F07F80
F07F80
F00780
700780
780780
780780
3C0780
3E0F80
1FFF00
0FFE00
03F000
ENDCHAR
STARTCHAR H
ENCODING 72
SWIDTH 600 0
DWIDTH 19 0
BBX 15 22 2 0
BITMAP
F01E
F01E
F01E
F01E
F01E
F01E
F01E
F01E
F01E
FFFE
FFFE
FFFE
F01E
F01E
F01E
F01E
F01E
F01E
F01E
F01E
F01E
F01E
ENDCHAR
STARTCHAR I
ENCODING 73
SWIDTH 600 0
DWIDTH 19 0
BBX 13 22 3 0
BITMAP
FFF8
FFF8
FFF8
0700
0700
0700
0700
0700
0700
0700
0700
0700
0700
0700
0700
0700
0700
0700
0700
FFF8
FFF8
FFF8
ENDCHAR
STARTCHAR J
ENCODING 74
SWIDTH 600 0
DWIDTH 19 0
BBX 15 22 2 0
BITMAP
001E
001E
001E
001E
001E
001E
001E
001E
001E
001E
001E
001E
001E
001E
001E
E01E
F01E
F03C
F87C
7FF8
3FF0
0FC0
ENDCHAR
STARTCHAR K
ENCODING 75
SWIDTH 600 0
DWIDTH 19 0
BBX 17 22 2 0
BITMAP
F00F80
F01F00
F03E00
F07C00
F07800
F0F000
F1F000
F3E000
F3C000
F78000
FF8000
FFC000
FDE000
FDE000
F8F000
F0F800
F07800
F03C00
F03E00
F01E00
F00F00
F00F80
ENDCHAR
STARTCHAR L
ENCODING 76
SWIDTH 600 0
DWIDTH 19 0
BBX 14 22 3 0
BITMAP
E000
E000
E000
E000
E000
E000
E000
E000
E000
E000
E000
E000
E000
E000
E000
E000
E000
E000
E000
FFFC
FFFC
FFFC
ENDCHAR
STARTCHAR M
ENCODING 77
SWIDTH 600 0
DWIDTH 19 0
BBX 15 22 2 0
BITMAP
F81E
F83E
F83E
FC3E
FC7E
FC7E
EE7E
EEEE
EEEE
F7EE
F7CE
F7CE
F3CE
F38E
F38E
F00E
F00E
F00E
F00E
F00E
F00E
F00E
ENDCHAR
STARTCHAR N
ENCODING 78
SWIDTH 600 0
DWIDTH 19 0
BBX 15 22 2 0
BITMAP
F01E
F81E
F81E
FC1E
FC1E
FE1E
FE1E
FF1E
F71E
F71E
F39E
F39E
F1DE
F1DE
F0FE
F0FE
F07E
F07E
F03E
F03E
F01E
F01E
ENDCHAR
STARTCHAR O
ENCODING 79
SWIDTH 600 0
DWIDTH 19 0
BBX 17 22 1 0
BITMAP
03E000
0FF800
1FFC00
3E1E00
780F00
780F00
780700
700780
F00780
F00780
F00780
F00780
F00780
F00780
700780
780700
780F00
780F00
3E1E00
1FFC00
0FF800
03E000
ENDCHAR
STARTCHAR P
ENCODING 80
SWIDTH 600 0
DWIDTH 19 0
BBX 15 22 3 0
BITMAP
FFE0
FFF8
FFFC
E07C
E01E
E01E
E01E
E01E
E01E
E03C
FFFC
FFF8
FFE0
E000
E000
E000
E000
E000
E000
E000
E000
E000
ENDCHAR
STARTCHAR Q
ENCODING 81
SWIDTH 600 0
DWIDTH 19 0
BBX 18 26 1 -4
BITMAP
03F000
0FF800
1FFC00
3E1E00
780F00
780F00
780700
700780
F00780
F00780
F00780
F00780
F00780
F00780
700780
700780
780F00
780F00
3E1E00
1FFC00
0FFC00
03FE00
000F80
0007C0
000300
000100
ENDCHAR
STARTCHAR R
ENCODING 82
SWIDTH 600 0
DWIDTH 19 0
BBX 16 22 2 0
BITMAP
FFE0
FFF8
FFFC
F03E
F01E
F00F
F00F
F00F
F01E
F03E
FFFC
FFF8
FFF0
F0F0
F078
F078
F03C
F03C
F01E
F01E
F00F
F00F
ENDCHAR
STARTCHAR S
ENCODING 83
SWIDTH 600 0
DWIDTH 19 0
BBX 16 22 2 0
BITMAP
07E0
1FF8
3FFC
7C3E
F81F
F00F
F00F
F800
7C00
3F80
1FF0
07F8
00FC
003E
000F
E00F
F00F
F00F
7C1E
7FFE
1FFC
07F0
ENDCHAR
STARTCHAR T
ENCODING 84
SWIDTH 600 0
DWIDTH 19 0
BBX 17 22 1 0
BITMAP
FFFF80
FFFF80
FFFF80
01C000
01C000
01C000
01C000
01C000
01C000
01C000
01C000
01C000
01C000
01C000
01C000
01C000
01C000
01C000
01C000
01C000
01C000
01C000
ENDCHAR
STARTCHAR U
ENCODING 85
SWIDTH 600 0
DWIDTH 19 0
BBX 15 22 2 0
BITMAP
F01E
F01E
F01E
F01E
F01E
F01E
F01E
F01E
F01E
F01E
F01E
F01E
F01E
F01E
F01E
F01E
F01E
781E
7C3C
3FF8
1FF0
07E0
ENDCHAR
STARTCHAR V
ENCODING 86
SWIDTH 600 0
DWIDTH 19 0
BBX 17 22 1 0
BITMAP
F00780
F00780
780780
780F00
780F00
380F00
3C1E00
3C1E00
3C1E00
1C1C00
1E3C00
1E3C00
0E3800
0F3800
0F7800
077000
077000
07F000
03E000
03E000
03E000
01E000
ENDCHAR
STARTCHAR W
ENCODING 87
SWIDTH 600 0
DWIDTH 19 0
BBX 18 22 1 0
BITMAP
E1C3C0
E1C380
F1E380
F1E380
F3E380
F3E380
73E780
73E780
73F780
737700
777700
7F7700
7F3700
3F3700
3F3700
3E3F00
3E3F00
3E3E00
3E1E00
3E1E00
3C1E00
1C1E00
ENDCHAR
STARTCHAR X
ENCODING 88
SWIDTH 600 0
DWIDTH 19 0
BBX 18 22 1 0
BITMAP
F807C0
780F80
3C0F00
3C1F00
1E1E00
1E3C00
0F3C00
0F7800
07F800
03F000
03E000
03E000
03F000
07F800
0F7800
0F3C00
1E3C00
1E1E00
3C1F00
7C0F00
780780
F807C0
ENDCHAR
STARTCHAR Y
ENCODING 89
SWIDTH 600 0
DWIDTH 19 0
BBX 18 22 1 0
BITMAP
F007C0
F80780
780F00
780F00
3C1E00
3C1E00
1E1C00
1E3C00
0F3800
0F7800
077000
07F000
03E000
03E000
01C000
01C000
01C000
01C000
01C000
01C000
01C000
01C000
ENDCHAR
STARTCHAR Z
ENCODING 90
SWIDTH 600 0
DWIDTH 19 0
BBX 15 22 2 0
BITMAP
FFFE
FFFE
FFFE
003C
003C
0078
00F0
00F0
01E0
03C0
03C0
0780
0F00
0F00
1E00
3C00
3C00
7800
F000
FFFE
FFFE
FFFE
ENDCHAR
STARTCHAR bracketleft
ENCODING 91
SWIDTH 600 0
DWIDTH 19 0
BBX 7 31 6 -5
BITMAP
FE
FE
FE
F0
F0
F0
F0
F0
F0
F0
F0
F0
F0
F0
F0
F0
F0
F0
F0
F0
F0
F0
F0
F0
F0
F0
F0
F0
FE
FE
FE
ENDCHAR
STARTCHAR backslash
ENCODING 92
SWIDTH 600 0
DWIDTH 19 0
BBX 12 24 4 -2
BITMAP
E000
F000
7000
7000
7800
3800
3800
3C00
1C00
1E00
0E00
0E00
0F00
0700
0700
0780
0380
03C0
03C0
01C0
01E0
00E0
00E0
00F0
ENDCHAR
STARTCHAR bracketright
ENCODING 93
SWIDTH 600 0
DWIDTH 19 0
BBX 7 31 6 -5
BITMAP
FE
FE
FE
1E
1E
1E
1E
1E
1E
1E
1E
1E
1E
1E
1E
1E
1E
1E
1E
1E
1E
1E
1E
1E
1E
1E
1E
1E
FE
FE
FE
ENDCHAR
STARTCHAR asciicircum
ENCODING 94
SWIDTH 600 0
DWIDTH 19 0
BBX 13 12 3 10
BITMAP
0700
0780
0F80
0FC0
0FC0
1DC0
1CE0
38E0
38F0
7870
7070
F038
ENDCHAR
STARTCHAR underscore
ENCODING 95
SWIDTH 600 0
DWIDTH 19 0
BBX 15 3 2 -3
BITMAP
FFFE
FFFE
FFFE
ENDCHAR
STARTCHAR grave
ENCODING 96
SWIDTH 600 0
DWIDTH 19 0
BBX 7 4 6 18
BITMAP
F8
3C
1C
0E
ENDCHAR
STARTCHAR a
ENCODING 97
SWIDTH 600 0
DWIDTH 19 0
BBX 15 17 2 0
BITMAP
0FC0
3FF0
7FF8
787C
F03C
001C
001C
0FFC
3FFC
781C
F01C
F01C
F03C
F87C
7FFC
3FFE
1F9E
ENDCHAR
STARTCHAR b
ENCODING 98
SWIDTH 600 0
DWIDTH 19 0
BBX 15 23 2 0
BITMAP
F000
F000
F000
F000
F000
F000
F3E0
F7F8
FFFC
FC3C
F81E
F01E
F01E
F01E
F00E
F01E
F01E
F01E
F81E
FC3C
FFFC
FFF8
F3E0
ENDCHAR
STARTCHAR c
ENCODING 99
SWIDTH 600 0
DWIDTH 19 0
BBX 15 17 2 0
BITMAP
07E0
1FF8
3FFC
7C3C
781E
F01E
F000
F000
F000
F000
F000
F01E
781E
7C3C
3FFC
1FF8
07E0
ENDCHAR
STARTCHAR d
ENCODING 100
SWIDTH 600 0
DWIDTH 19 0
BBX 15 23 2 0
BITMAP
001E
001E
001E
001E
001E
001E
0F9E
1FFE
3FFE
7C3E
781E
F01E
F01E
F01E
F01E
F01E
F01E
F01E
781E
7C3E
3FFE
1FFE
0F9E
ENDCHAR
STARTCHAR e
ENCODING 101
SWIDTH 600 0
DWIDTH 19 0
BBX 15 17 2 0
BITMAP
07E0
1FF8
3FFC
7C3C
781E
F01E
F00E
FFFE
FFFE
FFFE
F000
F000
7804
7C1E
3FFE
1FF8
07F0
ENDCHAR
STARTCHAR f
ENCODING 102
SWIDTH 600 0
DWIDTH 19 0
BBX 16 24 2 0
BITMAP
007F
01FF
03FF
07C0
0780
0700
0700
FFFE
FFFE
FFFE
0700
0700
0700
0700
0700
0700
0700
0700
0700
0700
0700
0700
0700
0700
ENDCHAR
STARTCHAR g
ENCODING 103
SWIDTH 600 0
DWIDTH 19 0
BBX 15 23 2 -6
BITMAP
0F9E
1FFE
3FFE
7C3E
781E
F01E
F01E
F01E
F01E
F01E
F01E
F01E
781E
7C3E
3FFE
1FFE
0F9E
001E
203C
707C
7FF8
3FF0
0FC0
ENDCHAR
STARTCHAR h
ENCODING 104
SWIDTH 600 0
DWIDTH 19 0
BBX 15 23 2 0
BITMAP
F000
F000
F000
F000
F000
F000
F1F0
F7F8
FFFC
FC3E
F01E
F01E
F01E
F01E
F01E
F01E
F01E
F01E
F01E
F01E
F01E
F01E
F01E
ENDCHAR
STARTCHAR i
ENCODING 105
SWIDTH 600 0
DWIDTH 19 0
BBX 14 22 3 0
BITMAP
0380
0780
0780
0380
0000
FF80
FF80
FF80
0780
0780
0780
0780
0780
0780
0780
0780
0780
0780
0780
FFFC
FFFC
FFFC
ENDCHAR
STARTCHAR j
ENCODING 106
SWIDTH 600 0
DWIDTH 19 0
BBX 11 28 3 -6
BITMAP
01C0
03E0
03E0
01C0
0000
3FC0
3FC0
3FC0
01C0
01C0
01C0
01C0
01C0
01C0
01C0
01C0
01C0
01C0
01C0
01C0
01C0
01C0
01C0
03C0
07C0
7F80
FF00
FE00
ENDCHAR
STARTCHAR k
ENCODING 107
SWIDTH 600 0
DWIDTH 19 0
BBX 16 23 2 0
BITMAP
F000
F000
F000
F000
F000
F000
F03E
F07C
F0F8
F1F0
F1E0
F3C0
F780
FF80
FFC0
FFE0
F9E0
F0F0
F0F8
F07C
F03C
F03E
F01F
ENDCHAR
STARTCHAR l
ENCODING 108
SWIDTH 600 0
DWIDTH 19 0
BBX 14 23 3 0
BITMAP
FF80
FF80
FF80
0780
0780
0780
0780
0780
0780
0780
0780
0780
0780
0780
0780
0780
0780
0780
0780
0780
FFFC
FFFC
FFFC
ENDCHAR
STARTCHAR m
ENCODING 109
SWIDTH 600 0
DWIDTH 19 0
BBX 17 17 1 0
BITMAP
F79E00
FFFF00
FFFF80
F1E780
F1C780
F1C780
F1C780
F1C780
F1C780
F1C780
F1C780
F1C780
F1C780
F1C780
F1C780
F1C780
F1C780
ENDCHAR
STARTCHAR n
ENCODING 110
SWIDTH 600 0
DWIDTH 19 0
BBX 15 17 2 0
BITMAP
F1F0
F7F8
FFFC
FC3E
F81E
F01E
F01E
F01E
F01E
F01E
F01E
F01E
F01E
F01E
F01E
F01E
F01E
ENDCHAR
STARTCHAR o
ENCODING 111
SWIDTH 600 0
DWIDTH 19 0
BBX 15 17 2 0
BITMAP
07E0
1FF0
3FF8
7C3C
F81E
F01E
F01E
F00E
E00E
E00E
F01E
F01E
F81E
7C3C
3FF8
1FF0
07E0
ENDCHAR
STARTCHAR p
ENCODING 112
SWIDTH 600 0
DWIDTH 19 0
BBX 15 23 2 -6
BITMAP
F3E0
FFF8
FFFC
F87C
F03E
F01E
F01E
F01E
F01E
F01E
F01E
F01E
F03E
F87C
FFFC
FFF8
F3E0
F000
F000
F000
F000
F000
F000
ENDCHAR
STARTCHAR q
ENCODING 113
SWIDTH 600 0
DWIDTH 19 0
BBX 15 23 2 -6
BITMAP
0F9E
3FFE
3FFE
7C3E
781E
F01E
F01E
F01E
F01E
F01E
F01E
F01E
781E
7C3E
3FFE
1FFE
0F9E
001E
001E
001E
001E
001E
001E
ENDCHAR
STARTCHAR r
ENCODING 114
SWIDTH 600 0
DWIDTH 19 0
BBX 12 17 5 0
BITMAP
E1F0
E7F0
EFF0
FFF0
FC00
F000
F000
F000
F000
F000
F000
F000
F000
F000
F000
F000
F000
ENDCHAR
STARTCHAR s
ENCODING 115
SWIDTH 600 0
DWIDTH 19 0
BBX 15 17 2 0
BITMAP
07E0
1FF8
3FFC
7C3E
781E
7800
7C00
3FC0
0FF8
03FC
003E
F01E
F01E
783E
7FFC
1FF8
07E0
ENDCHAR
STARTCHAR t
ENCODING 116
SWIDTH 600 0
DWIDTH 19 0
BBX 15 21 2 0
BITMAP
0F00
0F00
0F00
0F00
FFFC
FFFC
FFFC
0F00
0F00
0F00
0F00
0F00
0F00
0F00
0F00
0F00
0F00
0F80
07FE
03FE
01FC
ENDCHAR
STARTCHAR u
ENCODING 117
SWIDTH 600 0
DWIDTH 19 0
BBX 14 17 3 0
BITMAP
E03C
E03C
E03C
E03C
E03C
E03C
E03C
E03C
E03C
E03C
E03C
E03C
F03C
F07C
7FFC
7FFC
1F3C
ENDCHAR
STARTCHAR v
ENCODING 118
SWIDTH 600 0
DWIDTH 19 0
BBX 17 17 1 0
BITMAP
F00780
780F00
780F00
380F00
3C1E00
3C1E00
1C1C00
1E3C00
0E3C00
0E3800
0F7800
077000
077000
03F000
03E000
03E000
01C000
ENDCHAR
STARTCHAR w
ENCODING 119
SWIDTH 600 0
DWIDTH 19 0
BBX 18 17 1 0
BITMAP
E1C3C0
E1C380
E1C380
E1E380
F3E380
73E780
736700
736700
737700
777700
363700
3E3600
3E3E00
3E3E00
3E1E00
1C1E00
1C1C00
ENDCHAR
STARTCHAR x
ENCODING 120
SWIDTH 600 0
DWIDTH 19 0
BBX 16 17 2 0
BITMAP
F01F
781E
7C3C
3C7C
1E78
0FF0
0FE0
07E0
03C0
07E0
0FF0
1FF0
1E78
3C3C
783C
781E
F00F
ENDCHAR
STARTCHAR y
ENCODING 121
SWIDTH 600 0
DWIDTH 19 0
BBX 18 23 1 -6
BITMAP
F007C0
780780
780F80
3C0F00
3C0F00
3C1E00
1E1E00
1E3C00
0F3C00
0F3800
077800
07F000
03F000
03F000
01E000
01E000
01C000
03C000
038000
078000
3F0000
3E0000
3C0000
ENDCHAR
STARTCHAR z
ENCODING 122
SWIDTH 600 0
DWIDTH 19 0
BBX 15 17 2 0
BITMAP
FFFE
FFFE
FFFE
007C
0078
00F0
01E0
03E0
07C0
0F80
0F00
1E00
3C00
7C00
FFFE
FFFE
FFFE
ENDCHAR
STARTCHAR braceleft
ENCODING 123
SWIDTH 600 0
DWIDTH 19 0
BBX 10 30 5 -6
BITMAP
01C0
03C0
0780
0700
0F00
0F00
0F00
0F00
0F00
0F00
0E00
0E00
3E00
FC00
F000
FC00
3E00
1E00
0E00
0F00
0F00
0F00
0F00
0F00
0F00
0F00
0700
0780
03C0
00C0
ENDCHAR
STARTCHAR bar
ENCODING 124
SWIDTH 600 0
DWIDTH 19 0
BBX 3 28 8 -6
BITMAP
E0
E0
E0
E0
E0
E0
E0
E0
E0
E0
E0
E0
E0
E0
E0
E0
E0
E0
E0
E0
E0
E0
E0
E0
E0
E0
E0
E0
ENDCHAR
STARTCHAR braceright
ENCODING 125
SWIDTH 600 0
DWIDTH 19 0
BBX 11 30 5 -6
BITMAP
E000
F800
3800
1C00
1C00
1C00
1C00
1C00
1C00
1C00
1E00
1E00
0F00
07E0
03E0
07E0
0F00
1E00
1E00
1E00
1C00
1C00
1C00
1C00
1C00
1C00
3C00
7800
F000
E000
ENDCHAR
STARTCHAR asciitilde
ENCODING 126
SWIDTH 600 0
DWIDTH 19 0
BBX 17 7 1 6
BITMAP
3E0000
7F0180
FF8380
E3E780
C1FF00
C0FF00
003C00
ENDCHAR
STARTCHAR nonbreakingspace
ENCODING 160
SWIDTH 600 0
DWIDTH 19 0
BBX 1 1 0 0
BITMAP
00
ENDCHAR
STARTCHAR exclamdown
ENCODING 161
SWIDTH 600 0
DWIDTH 19 0
BBX 4 23 8 -6
BITMAP
E0
F0
F0
E0
00
00
00
00
F0
F0
F0
F0
F0
F0
F0
F0
F0
F0
F0
F0
F0
F0
F0
ENDCHAR
STARTCHAR cent
ENCODING 162
SWIDTH 600 0
DWIDTH 19 0
BBX 15 24 2 -4
BITMAP
0380
0380
0380
03C0
1FF8
3FFC
3C3C
781E
701E
F000
F000
F000
F000
F000
F000
700E
781E
3C3C
3FFC
0FF0
03C0
0380
0380
0380
ENDCHAR
STARTCHAR sterling
ENCODING 163
SWIDTH 600 0
DWIDTH 19 0
BBX 16 22 2 0
BITMAP
03F0
0FFC
1FFE
1E1E
3C0F
3C0F
3C00
3C00
3C00
3C00
FFE0
FFE0
FFE0
3C00
3C00
3C00
3C00
3C00
3C00
FFFF
FFFF
FFFF
ENDCHAR
STARTCHAR currency
ENCODING 164
SWIDTH 600 0
DWIDTH 19 0
BBX 17 16 1 0
BITMAP
33E300
FFFF80
7FFF00
3E1E00
380F00
780700
700700
700300
700300
700700
780700
380F00
3E1F00
FFFF80
7FFF00
23F300
ENDCHAR
STARTCHAR yen
ENCODING 165
SWIDTH 600 0
DWIDTH 19 0
BBX 19 22 0 0
BITMAP
F803E0
7803C0
3C0780
3C0780
1E0F00
0E0F00
0F1E00
071E00
07BC00
03B800
03F800
3FFF80
3FFF80
00E000
00E000
3FFF80
3FFF80
00E000
00E000
00E000
00E000
00E000
ENDCHAR
STARTCHAR brokenbar
ENCODING 166
SWIDTH 600 0
DWIDTH 19 0
BBX 3 27 8 -5
BITMAP
E0
E0
E0
E0
E0
E0
E0
E0
E0
E0
E0
E0
00
00
00
E0
E0
E0
E0
E0
E0
E0
E0
E0
E0
E0
E0
ENDCHAR
STARTCHAR section
ENCODING 167
SWIDTH 600 0
DWIDTH 19 0
BBX 17 30 1 -8
BITMAP
07F000
1FFC00
3FFE00
7C1F00
780F00
780780
780780
780000
3E0000
3FE000
1FF800
7FFE00
78FF00
F01F80
F00780
F00780
780780
7F0780
3FEF00
0FFE00
03FE00
007F00
000F00
F00700
F00780
780F00
7C1F00
3FFE00
1FFC00
07F000
ENDCHAR
STARTCHAR dieresis
ENCODING 168
SWIDTH 600 0
DWIDTH 19 0
BBX 11 4 4 18
BITMAP
70E0
F1E0
F1E0
70E0
ENDCHAR
STARTCHAR copyright
ENCODING 169
SWIDTH 600 0
DWIDTH 19 0
BBX 17 17 1 0
BITMAP
03F000
0E1800
180600
31E200
67F100
463180
441980
CC0080
CC0080
CC0080
461180
463180
63F300
31E200
180600
0E1800
03E000
ENDCHAR
STARTCHAR ordfeminine
ENCODING 170
SWIDTH 600 0
DWIDTH 19 0
BBX 11 12 4 10
BITMAP
1F00
3F80
79C0
70C0
00C0
3FC0
7FC0
F0C0
E0C0
F3C0
7FC0
3CE0
ENDCHAR
STARTCHAR guillemotleft
ENCODING 171
SWIDTH 600 0
DWIDTH 19 0
BBX 13 12 3 1
BITMAP
0E38
1C70
1CE0
39C0
71C0
F380
F380
71C0
39C0
1CE0
1C70
0E38
ENDCHAR
STARTCHAR logicalnot
ENCODING 172
SWIDTH 600 0
DWIDTH 19 0
BBX 13 7 3 6
BITMAP
FFF8
FFF8
FFF8
0038
0038
0038
0038
ENDCHAR
STARTCHAR uni00AD
ENCODING 173
SWIDTH 600 0
DWIDTH 19 0
BBX 12 3 4 8
BITMAP
FFF0
FFF0
FFF0
ENDCHAR
STARTCHAR registered
ENCODING 174
SWIDTH 600 0
DWIDTH 19 0
BBX 17 17 1 0
BITMAP
03F000
0E1800
180600
37E200
67F300
463100
463180
C7F080
C7C080
C66180
462180
463100
663300
300A00
180600
0E1800
03E000
ENDCHAR
STARTCHAR macron
ENCODING 175
SWIDTH 600 0
DWIDTH 19 0
BBX 11 3 4 19
BITMAP
FFE0
FFE0
FFE0
ENDCHAR
STARTCHAR degree
ENCODING 176
SWIDTH 600 0
DWIDTH 19 0
BBX 8 7 6 15
BITMAP
3C
FE
C7
C3
C7
FE
7C
ENDCHAR
STARTCHAR plusminus
ENCODING 177
SWIDTH 600 0
DWIDTH 19 0
BBX 15 20 2 0
BITMAP
0380
0380
0380
0380
0380
0380
FFFE
FFFE
FFFE
0380
0380
0380
0380
0380
0380
0000
0000
7FFC
7FFC
7FFC
ENDCHAR
STARTCHAR twosuperior
ENCODING 178
SWIDTH 600 0
DWIDTH 19 0
BBX 10 12 5 10
BITMAP
3E00
7F00
E380
E380
0380
0780
0F00
1E00
3C00
7000
FFC0
FFC0
ENDCHAR
STARTCHAR threesuperior
ENCODING 179
SWIDTH 600 0
DWIDTH 19 0
BBX 10 12 5 10
BITMAP
3E00
7F80
E380
0380
0380
1F00
1F80
0380
01C0
E380
FF80
3F00
ENDCHAR
STARTCHAR acute
ENCODING 180
SWIDTH 600 0
DWIDTH 19 0
BBX 7 4 6 18
BITMAP
1E
3C
78
F0
ENDCHAR
STARTCHAR mu
ENCODING 181
SWIDTH 600 0
DWIDTH 19 0
BBX 14 23 3 -6
BITMAP
F03C
F03C
F03C
F03C
F03C
F03C
F03C
F03C
F03C
F03C
F03C
F03C
F03C
F87C
FFFC
FFFC
FFBC
F000
F000
F000
F000
F000
F000
ENDCHAR
STARTCHAR paragraph
ENCODING 182
SWIDTH 600 0
DWIDTH 19 0
BBX 13 22 3 0
BITMAP
07F8
1FF8
3FF8
7FF8
7FF8
FFF8
FFF8
FFF8
FFF8
7FF8
7FF8
3FF8
1FF8
07F8
0078
0078
0078
0078
0078
0078
0078
0078
ENDCHAR
STARTCHAR periodcentered
ENCODING 183
SWIDTH 600 0
DWIDTH 19 0
BBX 4 4 8 9
BITMAP
E0
F0
F0
E0
ENDCHAR
STARTCHAR cedilla
ENCODING 184
SWIDTH 600 0
DWIDTH 19 0
BBX 5 7 7 -6
BITMAP
E0
F8
38
38
38
F8
E0
ENDCHAR
STARTCHAR onesuperior
ENCODING 185
SWIDTH 600 0
DWIDTH 19 0
BBX 6 12 6 10
BITMAP
0C
7C
FC
DC
1C
1C
1C
1C
1C
1C
1C
1C
ENDCHAR
STARTCHAR ordmasculine
ENCODING 186
SWIDTH 600 0
DWIDTH 19 0
BBX 11 12 4 10
BITMAP
1F00
3FC0
71C0
E0E0
E0E0
E0E0
E0E0
E0E0
E0E0
71C0
3FC0
1F00
ENDCHAR
STARTCHAR guillemotright
ENCODING 187
SWIDTH 600 0
DWIDTH 19 0
BBX 12 12 4 2
BITMAP
E700
6380
71C0
38E0
1CE0
1C70
1E70
1CE0
38E0
71C0
6380
E700
ENDCHAR
STARTCHAR onequarter
ENCODING 188
SWIDTH 600 0
DWIDTH 19 0
BBX 17 23 1 0
BITMAP
180000
F80000
F80000
980000
181C00
181800
183800
187000
187000
18E000
18C000
01C000
018700
038F00
031F00
071F00
063700
0E7700
0CFF80
04FF80
000700
000700
000700
ENDCHAR
STARTCHAR onehalf
ENCODING 189
SWIDTH 600 0
DWIDTH 19 0
BBX 19 23 0 0
BITMAP
0C0000
7C0000
FC0000
9C0000
1C1800
1C1800
1C3800
1C7000
1C6000
1CE000
1CC000
01C000
018F00
039FC0
0339C0
0730C0
0601C0
0E0380
0C0780
040E00
001C00
003FE0
003FE0
ENDCHAR
STARTCHAR threequarters
ENCODING 190
SWIDTH 600 0
DWIDTH 19 0
BBX 18 23 1 0
BITMAP
7E0000
FF0000
C70000
070000
1F0E00
1E0C00
071C00
031800
C73800
FF3000
7E7000
006000
00E380
01C780
018F80
039F80
031B80
073380
067FC0
027FC0
000380
000380
000380
ENDCHAR
STARTCHAR questiondown
ENCODING 191
SWIDTH 600 0
DWIDTH 19 0
BBX 14 23 3 -6
BITMAP
0300
0780
0780
0380
0000
0000
0000
0780
0780
0780
0F00
1F00
3E00
7C00
7800
F000
F000
F03C
F038
7878
7FF8
3FF0
0FC0
ENDCHAR
STARTCHAR Agrave
ENCODING 192
SWIDTH 600 0
DWIDTH 19 0
BBX 18 27 1 0
BITMAP
1F0000
078000
038000
01C000
000000
01E000
01E000
03E000
03F000
03F000
07F000
07F800
077800
0F3800
0F3C00
0E3C00
1E1C00
1E1E00
1C1E00
3FFE00
3FFF00
3FFF00
780700
780780
700780
F00780
F003C0
ENDCHAR
STARTCHAR Aacute
ENCODING 193
SWIDTH 600 0
DWIDTH 19 0
BBX 18 27 1 0
BITMAP
003C00
007800
00F000
01E000
000000
01E000
01E000
03E000
03F000
03F000
07F000
07F800
077800
0F3800
0F3C00
0E3C00
1E1C00
1E1E00
1C1E00
3FFE00
3FFF00
3FFF00
780700
780780
700780
F00780
F003C0
ENDCHAR
STARTCHAR Acircumflex
ENCODING 194
SWIDTH 600 0
DWIDTH 19 0
BBX 18 28 1 0
BITMAP
01E000
03F000
077800
0E1C00
000000
000000
01E000
01E000
03E000
03F000
03F000
07F000
07F800
077800
0F3800
0F3C00
0E3C00
1E1C00
1E1E00
1C1E00
3FFE00
3FFF00
3FFF00
780700
780780
700780
F00780
F003C0
ENDCHAR
STARTCHAR Atilde
ENCODING 195
SWIDTH 600 0
DWIDTH 19 0
BBX 18 29 1 0
BITMAP
078C00
0FFC00
1FFC00
1C7800
000000
000000
000000
01E000
01E000
03E000
03F000
03F000
07F000
07F800
077800
0F3800
0F3C00
0E3C00
1E1C00
1E1E00
1C1E00
3FFE00
3FFF00
3FFF00
780700
780780
700780
F00780
F003C0
ENDCHAR
STARTCHAR Adieresis
ENCODING 196
SWIDTH 600 0
DWIDTH 19 0
BBX 18 27 1 0
BITMAP
0E1C00
1E3C00
1E3C00
0E1C00
000000
01E000
01E000
03E000
03F000
03F000
07F000
07F800
077800
0F3800
0F3C00
0E3C00
1E1C00
1E1E00
1C1E00
3FFE00
3FFF00
3FFF00
780700
780780
700780
F00780
F003C0
ENDCHAR
STARTCHAR Aring
ENCODING 197
SWIDTH 600 0
DWIDTH 19 0
BBX 18 29 1 0
BITMAP
01E000
033000
023000
033000
01E000
000000
000000
01E000
01E000
03E000
03F000
03F000
07F000
07F800
077800
0F3800
0F3C00
0E3C00
1E1C00
1E1E00
1C1E00
3FFE00
3FFF00
3FFF00
780700
780780
700780
F00780
F003C0
ENDCHAR
STARTCHAR AE
ENCODING 198
SWIDTH 600 0
DWIDTH 19 0
BBX 18 22 1 0
BITMAP
00FF80
01FF80
01FF80
03F800
03F800
03F800
07F800
077800
077800
0F7F80
0E7F80
1E7F80
1E7800
1C7800
3FF800
3FF800
3FF800
787800
787800
F07FC0
F07FC0
F07FC0
ENDCHAR
STARTCHAR Ccedilla
ENCODING 199
SWIDTH 600 0
DWIDTH 19 0
BBX 17 28 1 -6
BITMAP
03F000
0FFC00
1FFE00
3E1F00
7C0F00
780700
780780
700000
F00000
F00000
F00000
F00000
F00000
F00000
700000
780780
780700
780F00
3E1F00
1FFE00
0FFC00
03F000
01E000
007000
007000
007000
01F000
01C000
ENDCHAR
STARTCHAR Egrave
ENCODING 200
SWIDTH 600 0
DWIDTH 19 0
BBX 14 27 3 0
BITMAP
7C00
1E00
0E00
0700
0000
FFFC
FFFC
FFFC
E000
E000
E000
E000
E000
E000
FFF8
FFF8
FFF8
E000
E000
E000
E000
E000
E000
E000
FFFC
FFFC
FFFC
ENDCHAR
STARTCHAR Eacute
ENCODING 201
SWIDTH 600 0
DWIDTH 19 0
BBX 14 27 3 0
BITMAP
00F0
01E0
03C0
0780
0000
FFFC
FFFC
FFFC
E000
E000
E000
E000
E000
E000
FFF8
FFF8
FFF8
E000
E000
E000
E000
E000
E000
E000
FFFC
FFFC
FFFC
ENDCHAR
STARTCHAR Ecircumflex
ENCODING 202
SWIDTH 600 0
DWIDTH 19 0
BBX 14 28 3 0
BITMAP
0780
0FC0
1CE0
3870
0000
0000
FFFC
FFFC
FFFC
E000
E000
E000
E000
E000
E000
FFF8
FFF8
FFF8
E000
E000
E000
E000
E000
E000
E000
FFFC
FFFC
FFFC
ENDCHAR
STARTCHAR Edieresis
ENCODING 203
SWIDTH 600 0
DWIDTH 19 0
BBX 14 27 3 0
BITMAP
3870
78F0
7870
3870
0000
FFFC
FFFC
FFFC
E000
E000
E000
E000
E000
E000
FFF8
FFF8
FFF8
E000
E000
E000
E000
E000
E000
E000
FFFC
FFFC
FFFC
ENDCHAR
STARTCHAR Igrave
ENCODING 204
SWIDTH 600 0
DWIDTH 19 0
BBX 13 27 3 0
BITMAP
7800
3C00
1E00
0F00
0000
FFF8
FFF8
FFF8
0700
0700
0700
0700
0700
0700
0700
0700
0700
0700
0700
0700
0700
0700
0700
0700
FFF8
FFF8
FFF8
ENDCHAR
STARTCHAR Iacute
ENCODING 205
SWIDTH 600 0
DWIDTH 19 0
BBX 13 27 3 0
BITMAP
01F0
03C0
0780
0F00
0000
FFF8
FFF8
FFF8
0700
0700
0700
0700
0700
0700
0700
0700
0700
0700
0700
0700
0700
0700
0700
0700
FFF8
FFF8
FFF8
ENDCHAR
STARTCHAR Icircumflex
ENCODING 206
SWIDTH 600 0
DWIDTH 19 0
BBX 13 28 3 0
BITMAP
0F00
1F80
39C0
70E0
0000
0000
FFF8
FFF8
FFF8
0700
0700
0700
0700
0700
0700
0700
0700
0700
0700
0700
0700
0700
0700
0700
0700
FFF8
FFF8
FFF8
ENDCHAR
STARTCHAR Idieresis
ENCODING 207
SWIDTH 600 0
DWIDTH 19 0
BBX 13 27 3 0
BITMAP
70E0
70F0
F0E0
70E0
0000
FFF8
FFF8
FFF8
0700
0700
0700
0700
0700
0700
0700
0700
0700
0700
0700
0700
0700
0700
0700
0700
FFF8
FFF8
FFF8
ENDCHAR
STARTCHAR Eth
ENCODING 208
SWIDTH 614 0
DWIDTH 20 0
BBX 19 22 -1 0
BITMAP
0FF800
0FFE00
0FFF00
0E0F80
0E07C0
0E03C0
0E01E0
0E01E0
0E01E0
FFE1E0
FFE1E0
FFE1E0
0E01E0
0E01E0
0E01E0
0E01E0
0E03C0
0E07C0
0E0F80
0FFF00
0FFE00
0FF800
ENDCHAR
STARTCHAR Ntilde
ENCODING 209
SWIDTH 600 0
DWIDTH 19 0
BBX 15 29 2 0
BITMAP
1E18
3FF8
3FF0
31E0
0000
0000
0000
F01E
F81E
F81E
FC1E
FC1E
FE1E
FE1E
FF1E
F71E
F71E
F39E
F39E
F1DE
F1DE
F0FE
F0FE
F07E
F07E
F03E
F03E
F01E
F01E
ENDCHAR
STARTCHAR Ograve
ENCODING 210
SWIDTH 600 0
DWIDTH 19 0
BBX 17 28 1 0
BITMAP
1F0000
078000
038000
01C000
000000
000000
03E000
0FF800
1FFC00
3E1E00
780F00
780F00
780700
700780
F00780
F00780
F00780
F00780
F00780
F00780
700780
780700
780F00
780F00
3E1E00
1FFC00
0FF800
03E000
ENDCHAR
STARTCHAR Oacute
ENCODING 211
SWIDTH 600 0
DWIDTH 19 0
BBX 17 28 1 0
BITMAP
003C00
007800
00F000
01E000
000000
000000
03E000
0FF800
1FFC00
3E1E00
780F00
780F00
780700
700780
F00780
F00780
F00780
F00780
F00780
F00780
700780
780700
780F00
780F00
3E1E00
1FFC00
0FF800
03E000
ENDCHAR
STARTCHAR Ocircumflex
ENCODING 212
SWIDTH 600 0
DWIDTH 19 0
BBX 17 29 1 0
BITMAP
01C000
03F000
077800
1E1C00
000000
000000
000000
03E000
0FF800
1FFC00
3E1E00
780F00
780F00
780700
700780
F00780
F00780
F00780
F00780
F00780
F00780
700780
780700
780F00
780F00
3E1E00
1FFC00
0FF800
03E000
ENDCHAR
STARTCHAR Otilde
ENCODING 213
SWIDTH 600 0
DWIDTH 19 0
BBX 17 29 1 0
BITMAP
078C00
0FFC00
1FFC00
187800
000000
000000
000000
03E000
0FF800
1FFC00
3E1E00
780F00
780F00
780700
700780
F00780
F00780
F00780
F00780
F00780
F00780
700780
780700
780F00
780F00
3E1E00
1FFC00
0FF800
03E000
ENDCHAR
STARTCHAR Odieresis
ENCODING 214
SWIDTH 600 0
DWIDTH 19 0
BBX 17 28 1 0
BITMAP
0C1C00
1E3C00
1E3C00
0E1C00
000000
000000
03E000
0FF800
1FFC00
3E1E00
780F00
780F00
780700
700780
F00780
F00780
F00780
F00780
F00780
F00780
700780
780700
780F00
780F00
3E1E00
1FFC00
0FF800
03E000
ENDCHAR
STARTCHAR multiply
ENCODING 215
SWIDTH 600 0
DWIDTH 19 0
BBX 14 15 3 3
BITMAP
4010
E038
F07C
78F8
3DF0
1FE0
0FC0
0F80
1FC0
3FE0
7CF0
F878
F03C
6018
4010
ENDCHAR
STARTCHAR Oslash
ENCODING 216
SWIDTH 600 0
DWIDTH 19 0
BBX 17 24 1 -1
BITMAP
000380
03E300
0FFF00
1FFE00
3E3E00
781F00
781F00
783F00
707780
F06780
F0E780
F0C780
F1C780
F38780
F30780
770780
7E0700
7E0F00
7C0F00
3E1E00
3FFC00
7FF800
63E000
E00000
ENDCHAR
STARTCHAR Ugrave
ENCODING 217
SWIDTH 600 0
DWIDTH 19 0
BBX 15 27 2 0
BITMAP
1E00
0F00
0780
03C0
0000
F01E
F01E
F01E
F01E
F01E
F01E
F01E
F01E
F01E
F01E
F01E
F01E
F01E
F01E
F01E
F01E
F01E
781E
7C3C
3FF8
1FF0
07E0
ENDCHAR
STARTCHAR Uacute
ENCODING 218
SWIDTH 600 0
DWIDTH 19 0
BBX 15 27 2 0
BITMAP
007C
00F0
01E0
03C0
0000
F01E
F01E
F01E
F01E
F01E
F01E
F01E
F01E
F01E
F01E
F01E
F01E
F01E
F01E
F01E
F01E
F01E
781E
7C3C
3FF8
1FF0
07E0
ENDCHAR
STARTCHAR Ucircumflex
ENCODING 219
SWIDTH 600 0
DWIDTH 19 0
BBX 15 28 2 0
BITMAP
03C0
07E0
0E70
1C38
0000
0000
F01E
F01E
F01E
F01E
F01E
F01E
F01E
F01E
F01E
F01E
F01E
F01E
F01E
F01E
F01E
F01E
F01E
781E
7C3C
3FF8
1FF0
07E0
ENDCHAR
STARTCHAR Udieresis
ENCODING 220
SWIDTH 600 0
DWIDTH 19 0
BBX 15 27 2 0
BITMAP
1C38
1C3C
3C38
1C38
0000
F01E
F01E
F01E
F01E
F01E
F01E
F01E
F01E
F01E
F01E
F01E
F01E
F01E
F01E
F01E
F01E
F01E
781E
7C3C
3FF8
1FF0
07E0
ENDCHAR
STARTCHAR Yacute
ENCODING 221
SWIDTH 600 0
DWIDTH 19 0
BBX 18 27 1 0
BITMAP
003C00
007800
00F000
01C000
000000
F007C0
F80780
780F00
780F00
3C1E00
3C1E00
1E1C00
1E3C00
0F3800
0F7800
077000
07F000
03E000
03E000
01C000
01C000
01C000
01C000
01C000
01C000
01C000
01C000
ENDCHAR
STARTCHAR Thorn
ENCODING 222
SWIDTH 600 0
DWIDTH 19 0
BBX 16 22 2 0
BITMAP
F000
F000
F000
F000
FFE0
FFF8
FFFE
F03E
F00F
F00F
F00F
F00F
F00F
F03E
FFFE
FFF8
FFE0
F000
F000
F000
F000
F000
ENDCHAR
STARTCHAR germandbls
ENCODING 223
SWIDTH 600 0
DWIDTH 19 0
BBX 15 24 3 0
BITMAP
0F80
3FE0
7FF0
F8F0
F0F0
E070
E070
E0F0
E0E0
E1E0
E1C0
E1C0
E1E0
E1F0
E0F8
E07C
E03C
E01E
E01E
E01E
E43E
E7FC
E7F8
EFF0
ENDCHAR
STARTCHAR agrave
ENCODING 224
SWIDTH 600 0
DWIDTH 19 0
BBX 15 22 2 0
BITMAP
3E00
0E00
0700
0380
0000
0FC0
3FF0
7FF8
787C
F03C
001C
001C
0FFC
3FFC
781C
F01C
F01C
F03C
F87C
7FFC
3FFE
1F9E
ENDCHAR
STARTCHAR aacute
ENCODING 225
SWIDTH 600 0
DWIDTH 19 0
BBX 15 22 2 0
BITMAP
00F8
00E0
01C0
0380
0000
0FC0
3FF0
7FF8
787C
F03C
001C
001C
0FFC
3FFC
781C
F01C
F01C
F03C
F87C
7FFC
3FFE
1F9E
ENDCHAR
STARTCHAR acircumflex
ENCODING 226
SWIDTH 600 0
DWIDTH 19 0
BBX 15 23 2 0
BITMAP
0380
07C0
1EF0
3C78
0000
0000
0FC0
3FF0
7FF8
787C
F03C
001C
001C
0FFC
3FFC
781C
F01C
F01C
F03C
F87C
7FFC
3FFE
1F9E
ENDCHAR
STARTCHAR atilde
ENCODING 227
SWIDTH 600 0
DWIDTH 19 0
BBX 15 23 2 0
BITMAP
0F18
1FF8
3FF0
31E0
0000
0000
0FC0
3FF0
7FF8
787C
F03C
001C
001C
0FFC
3FFC
781C
F01C
F01C
F03C
F87C
7FFC
3FFE
1F9E
ENDCHAR
STARTCHAR adieresis
ENCODING 228
SWIDTH 600 0
DWIDTH 19 0
BBX 15 22 2 0
BITMAP
1830
3C78
3C78
1830
0000
0FC0
3FF0
7FF8
787C
F03C
001C
001C
0FFC
3FFC
781C
F01C
F01C
F03C
F87C
7FFC
3FFE
1F9E
ENDCHAR
STARTCHAR aring
ENCODING 229
SWIDTH 600 0
DWIDTH 19 0
BBX 15 24 2 0
BITMAP
0380
06E0
0C60
0C60
07C0
0000
0000
0FC0
3FF0
7FF8
787C
F03C
001C
001C
0FFC
3FFC
781C
F01C
F01C
F03C
F87C
7FFC
3FFE
1F9E
ENDCHAR
STARTCHAR ae
ENCODING 230
SWIDTH 600 0
DWIDTH 19 0
BBX 18 17 1 0
BITMAP
1F3E00
7FFF00
FFFF80
F3E380
F1C3C0
01C3C0
01C3C0
1FFFC0
7FFFC0
FFFFC0
F9C000
F1C000
E1C000
F1E080
FFFF80
7F7F80
3E3F00
ENDCHAR
STARTCHAR ccedilla
ENCODING 231
SWIDTH 600 0
DWIDTH 19 0
BBX 15 23 2 -6
BITMAP
07E0
1FF8
3FFC
7C3C
781E
F01E
F000
F000
F000
F000
F000
F01E
781E
7C3C
3FFC
1FF8
07E0
03E0
00E0
00E0
00E0
03E0
0380
ENDCHAR
STARTCHAR egrave
ENCODING 232
SWIDTH 600 0
DWIDTH 19 0
BBX 15 22 2 0
BITMAP
3E00
0E00
0700
0380
0000
07E0
1FF8
3FFC
7C3C
781E
F01E
F00E
FFFE
FFFE
FFFE
F000
F000
7804
7C1E
3FFE
1FF8
07F0
ENDCHAR
STARTCHAR eacute
ENCODING 233
SWIDTH 600 0
DWIDTH 19 0
BBX 15 22 2 0
BITMAP
00F8
00E0
01C0
0380
0000
07E0
1FF8
3FFC
7C3C
781E
F01E
F00E
FFFE
FFFE
FFFE
F000
F000
7804
7C1E
3FFE
1FF8
07F0
ENDCHAR
STARTCHAR ecircumflex
ENCODING 234
SWIDTH 600 0
DWIDTH 19 0
BBX 15 23 2 0
BITMAP
0380
07C0
1EF0
3C78
0000
0000
07E0
1FF8
3FFC
7C3C
781E
F01E
F00E
FFFE
FFFE
FFFE
F000
F000
7804
7C1E
3FFE
1FF8
07F0
ENDCHAR
STARTCHAR edieresis
ENCODING 235
SWIDTH 600 0
DWIDTH 19 0
BBX 15 22 2 0
BITMAP
1830
3C78
3C78
1830
0000
07E0
1FF8
3FFC
7C3C
781E
F01E
F00E
FFFE
FFFE
FFFE
F000
F000
7804
7C1E
3FFE
1FF8
07F0
ENDCHAR
STARTCHAR igrave
ENCODING 236
SWIDTH 600 0
DWIDTH 19 0
BBX 14 22 3 0
BITMAP
3E00
1E00
0F00
0780
0000
FF80
FF80
FF80
0780
0780
0780
0780
0780
0780
0780
0780
0780
0780
0780
FFFC
FFFC
FFFC
ENDCHAR
STARTCHAR iacute
ENCODING 237
SWIDTH 600 0
DWIDTH 19 0
BBX 14 22 3 0
BITMAP
00F8
00E0
01C0
0380
0000
FF80
FF80
FF80
0780
0780
0780
0780
0780
0780
0780
0780
0780
0780
0780
FFFC
FFFC
FFFC
ENDCHAR
STARTCHAR icircumflex
ENCODING 238
SWIDTH 600 0
DWIDTH 19 0
BBX 14 23 3 0
BITMAP
0380
07C0
1EE0
3C78
0000
0000
FF80
FF80
FF80
0780
0780
0780
0780
0780
0780
0780
0780
0780
0780
0780
FFFC
FFFC
FFFC
ENDCHAR
STARTCHAR idieresis
ENCODING 239
SWIDTH 600 0
DWIDTH 19 0
BBX 14 22 3 0
BITMAP
3830
3C78
3C78
3830
0000
FF80
FF80
FF80
0780
0780
0780
0780
0780
0780
0780
0780
0780
0780
0780
FFFC
FFFC
FFFC
ENDCHAR
STARTCHAR eth
ENCODING 240
SWIDTH 600 0
DWIDTH 19 0
BBX 16 23 1 0
BITMAP
0382
03EF
03FC
01F8
03FC
0FBC
061E
001E
07DE
1FFF
3FFF
7C1F
F80F
F00F
F00F
F00F
F00F
F00E
F81E
7C3C
3FFC
1FF8
07E0
ENDCHAR
STARTCHAR ntilde
ENCODING 241
SWIDTH 600 0
DWIDTH 19 0
BBX 15 23 2 0
BITMAP
0E18
1FF8
3FF0
31E0
0000
0000
F1F0
F7F8
FFFC
FC3E
F81E
F01E
F01E
F01E
F01E
F01E
F01E
F01E
F01E
F01E
F01E
F01E
F01E
ENDCHAR
STARTCHAR ograve
ENCODING 242
SWIDTH 600 0
DWIDTH 19 0
BBX 15 22 2 0
BITMAP
3E00
0E00
0700
0380
0000
07E0
1FF0
3FF8
7C3C
F81E
F01E
F01E
F00E
E00E
E00E
F01E
F01E
F81E
7C3C
3FF8
1FF0
07E0
ENDCHAR
STARTCHAR oacute
ENCODING 243
SWIDTH 600 0
DWIDTH 19 0
BBX 15 22 2 0
BITMAP
0078
00F0
01C0
0380
0000
07E0
1FF0
3FF8
7C3C
F81E
F01E
F01E
F00E
E00E
E00E
F01E
F01E
F81E
7C3C
3FF8
1FF0
07E0
ENDCHAR
STARTCHAR ocircumflex
ENCODING 244
SWIDTH 600 0
DWIDTH 19 0
BBX 15 23 2 0
BITMAP
0380
07E0
0EF0
3C78
0000
0000
07E0
1FF0
3FF8
7C3C
F81E
F01E
F01E
F00E
E00E
E00E
F01E
F01E
F81E
7C3C
3FF8
1FF0
07E0
ENDCHAR
STARTCHAR otilde
ENCODING 245
SWIDTH 600 0
DWIDTH 19 0
BBX 15 23 2 0
BITMAP
0F18
1FF8
3FF8
30E0
0000
0000
07E0
1FF0
3FF8
7C3C
F81E
F01E
F01E
F00E
E00E
E00E
F01E
F01E
F81E
7C3C
3FF8
1FF0
07E0
ENDCHAR
STARTCHAR odieresis
ENCODING 246
SWIDTH 600 0
DWIDTH 19 0
BBX 15 22 2 0
BITMAP
1830
3C78
3C78
1838
0000
07E0
1FF0
3FF8
7C3C
F81E
F01E
F01E
F00E
E00E
E00E
F01E
F01E
F81E
7C3C
3FF8
1FF0
07E0
ENDCHAR
STARTCHAR divide
ENCODING 247
SWIDTH 600 0
DWIDTH 19 0
BBX 16 16 2 2
BITMAP
0380
03C0
03C0
0380
0000
0000
FFFF
FFFF
FFFF
0000
0000
0000
0380
03C0
07C0
0380
ENDCHAR
STARTCHAR oslash
ENCODING 248
SWIDTH 600 0
DWIDTH 19 0
BBX 15 21 2 -2
BITMAP
000C
0018
07D8
1FF0
3FF8
7C7C
F87E
F0DE
F0CE
F18E
E18E
F30E
F31E
F61E
FE1E
7C3C
3FF8
1FF0
1FE0
3000
7000
ENDCHAR
STARTCHAR ugrave
ENCODING 249
SWIDTH 600 0
DWIDTH 19 0
BBX 14 22 3 0
BITMAP
7C00
1E00
0E00
0700
0000
E03C
E03C
E03C
E03C
E03C
E03C
E03C
E03C
E03C
E03C
E03C
E03C
F03C
F07C
7FFC
7FFC
1F3C
ENDCHAR
STARTCHAR uacute
ENCODING 250
SWIDTH 600 0
DWIDTH 19 0
BBX 14 22 3 0
BITMAP
00F0
01E0
03C0
0700
0000
E03C
E03C
E03C
E03C
E03C
E03C
E03C
E03C
E03C
E03C
E03C
E03C
F03C
F07C
7FFC
7FFC
1F3C
ENDCHAR
STARTCHAR ucircumflex
ENCODING 251
SWIDTH 600 0
DWIDTH 19 0
BBX 14 23 3 0
BITMAP
0700
0FC0
1DE0
78F0
0000
0000
E03C
E03C
E03C
E03C
E03C
E03C
E03C
E03C
E03C
E03C
E03C
E03C
F03C
F07C
7FFC
7FFC
1F3C
ENDCHAR
STARTCHAR udieresis
ENCODING 252
SWIDTH 600 0
DWIDTH 19 0
BBX 14 22 3 0
BITMAP
3060
78F0
78F0
3070
0000
E03C
E03C
E03C
E03C
E03C
E03C
E03C
E03C
E03C
E03C
E03C
E03C
F03C
F07C
7FFC
7FFC
1F3C
ENDCHAR
STARTCHAR yacute
ENCODING 253
SWIDTH 600 0
DWIDTH 19 0
BBX 18 28 1 -6
BITMAP
003E00
007800
00F000
01E000
000000
F007C0
780780
780F80
3C0F00
3C0F00
3C1E00
1E1E00
1E3C00
0F3C00
0F3800
077800
07F000
03F000
03F000
01E000
01E000
01C000
03C000
038000
078000
3F0000
3E0000
3C0000
ENDCHAR
STARTCHAR thorn
ENCODING 254
SWIDTH 600 0
DWIDTH 19 0
BBX 15 30 2 -6
BITMAP
F000
F000
F000
F000
F000
F000
F000
F3E0
FFF8
FFFC
F87C
F01E
F01E
F01E
F01E
F01E
F01E
F01E
F01E
F03E
F87C
FFFC
FFF8
F3E0
F000
F000
F000
F000
F000
F000
ENDCHAR
STARTCHAR ydieresis
ENCODING 255
SWIDTH 600 0
DWIDTH 19 0
BBX 18 28 1 -6
BITMAP
0E1C00
1E1C00
1E1C00
0E1C00
000000
F007C0
780780
780F80
3C0F00
3C0F00
3C1E00
1E1E00
1E3C00
0F3C00
0F3800
077800
07F000
03F000
03F000
01E000
01E000
01C000
03C000
038000
078000
3F0000
3E0000
3C0000
ENDCHAR
STARTCHAR Amacron
ENCODING 256
SWIDTH 600 0
DWIDTH 19 0
BBX 18 27 1 0
BITMAP
1FFE00
1FFE00
1FFE00
000000
000000
01E000
01E000
03E000
03F000
03F000
07F000
07F800
077800
0F3800
0F3C00
0E3C00
1E1C00
1E1E00
1C1E00
3FFE00
3FFF00
3FFF00
780700
780780
700780
F00780
F003C0
ENDCHAR
STARTCHAR amacron
ENCODING 257
SWIDTH 600 0
DWIDTH 19 0
BBX 15 22 2 0
BITMAP
3FF8
3FF8
3FF8
0000
0000
0FC0
3FF0
7FF8
787C
F03C
001C
001C
0FFC
3FFC
781C
F01C
F01C
F03C
F87C
7FFC
3FFE
1F9E
ENDCHAR
STARTCHAR Abreve
ENCODING 258
SWIDTH 600 0
DWIDTH 19 0
BBX 18 28 1 0
BITMAP
0E1C00
0E3C00
07F800
03F000
000000
000000
01E000
01E000
03E000
03F000
03F000
07F000
07F800
077800
0F3800
0F3C00
0E3C00
1E1C00
1E1E00
1C1E00
3FFE00
3FFF00
3FFF00
780700
780780
700780
F00780
F003C0
ENDCHAR
STARTCHAR abreve
ENCODING 259
SWIDTH 600 0
DWIDTH 19 0
BBX 15 23 2 0
BITMAP
1838
1C70
1FF0
07E0
0000
0000
0FC0
3FF0
7FF8
787C
F03C
001C
001C
0FFC
3FFC
781C
F01C
F01C
F03C
F87C
7FFC
3FFE
1F9E
ENDCHAR
STARTCHAR Aogonek
ENCODING 260
SWIDTH 600 0
DWIDTH 19 0
BBX 18 28 1 -6
BITMAP
01E000
01E000
03E000
03F000
03F000
07F000
077800
073800
0F3800
0E3C00
0E1C00
1E1C00
1C1E00
1FFE00
3FFE00
3FFF00
380F00
780700
780780
700780
F00380
F003C0
000700
000C00
001C00
001F80
000F80
000780
ENDCHAR
STARTCHAR aogonek
ENCODING 261
SWIDTH 600 0
DWIDTH 19 0
BBX 15 23 2 -6
BITMAP
0FE0
3FF0
7FF8
783C
F01C
001C
0FFC
3FFC
7C1C
F01C
F01C
F01C
F03C
F87C
7FFC
3FDE
1F9E
0038
0070
0070
007E
007E
003C
ENDCHAR
STARTCHAR Cacute
ENCODING 262
SWIDTH 600 0
DWIDTH 19 0
BBX 17 28 1 0
BITMAP
003E00
003C00
007000
00E000
000000
000000
03F000
0FFC00
1FFE00
3E1F00
7C0F00
780700
780780
700000
F00000
F00000
F00000
F00000
F00000
F00000
700000
780780
780700
780F00
3E1F00
1FFE00
0FFC00
03F000
ENDCHAR
STARTCHAR cacute
ENCODING 263
SWIDTH 600 0
DWIDTH 19 0
BBX 15 22 2 0
BITMAP
0078
00F0
01E0
03C0
0000
07E0
1FF8
3FFC
7C3C
781E
F01E
F000
F000
F000
F000
F000
F01E
781E
7C3C
3FFC
1FF8
07E0
ENDCHAR
STARTCHAR Ccircumflex
ENCODING 264
SWIDTH 600 0
DWIDTH 19 0
BBX 17 29 1 0
BITMAP
00E000
01F000
03BC00
0F1E00
000000
000000
000000
03F000
0FFC00
1FFE00
3E1F00
7C0F00
780700
780780
700000
F00000
F00000
F00000
F00000
F00000
F00000
700000
780780
780700
780F00
3E1F00
1FFE00
0FFC00
03F000
ENDCHAR
STARTCHAR ccircumflex
ENCODING 265
SWIDTH 600 0
DWIDTH 19 0
BBX 15 23 2 0
BITMAP
03C0
07E0
0E70
1C38
0000
0000
07E0
1FF8
3FFC
7C3C
781E
F01E
F000
F000
F000
F000
F000
F01E
781E
7C3C
3FFC
1FF8
07E0
ENDCHAR
STARTCHAR uni010A
ENCODING 266
SWIDTH 600 0
DWIDTH 19 0
BBX 17 28 1 0
BITMAP
00E000
01F000
01F000
00E000
000000
000000
03F000
0FFC00
1FFE00
3E1F00
7C0F00
780700
780780
700000
F00000
F00000
F00000
F00000
F00000
F00000
700000
780780
780700
780F00
3E1F00
1FFE00
0FFC00
03F000
ENDCHAR
STARTCHAR uni010B
ENCODING 267
SWIDTH 600 0
DWIDTH 19 0
BBX 15 23 2 0
BITMAP
0380
03C0
03C0
0380
0000
0000
07E0
1FF8
3FFC
7C3C
781E
F01E
F000
F000
F000
F000
F000
F01E
781E
7C3C
3FFC
1FF8
07E0
ENDCHAR
STARTCHAR Ccaron
ENCODING 268
SWIDTH 600 0
DWIDTH 19 0
BBX 17 29 1 0
BITMAP
0F1E00
07BC00
01F000
00E000
000000
000000
000000
03F000
0FFC00
1FFE00
3E1F00
7C0F00
780700
780780
700000
F00000
F00000
F00000
F00000
F00000
F00000
700000
780780
780700
780F00
3E1F00
1FFE00
0FFC00
03F000
ENDCHAR
STARTCHAR ccaron
ENCODING 269
SWIDTH 600 0
DWIDTH 19 0
BBX 15 23 2 0
BITMAP
3C38
0E70
07E0
03C0
0000
0000
07E0
1FF8
3FFC
7C3C
781E
F01E
F000
F000
F000
F000
F000
F01E
781E
7C3C
3FFC
1FF8
07E0
ENDCHAR
STARTCHAR Dcaron
ENCODING 270
SWIDTH 600 0
DWIDTH 19 0
BBX 16 28 2 0
BITMAP
78F0
1DE0
0FC0
0700
0000
0000
FF80
FFE0
FFF8
F0FC
F03C
F01E
F01E
F00F
F00F
F00F
F00F
F00F
F00F
F00F
F00F
F01E
F01E
F03C
F07C
FFF8
FFE0
FF80
ENDCHAR
STARTCHAR dcaron
ENCODING 271
SWIDTH 673 0
DWIDTH 22 0
BBX 22 24 2 0
BITMAP
00001C
001E1C
001E1C
001E1C
001E1C
001E3C
001E38
0F9E30
1FFE10
3FFE00
7C3E00
781E00
F01E00
F01E00
F01E00
F01E00
F01E00
F01E00
F01E00
781E00
7C3E00
3FFE00
1FFE00
0F9E00
ENDCHAR
STARTCHAR Dcroat
ENCODING 272
SWIDTH 614 0
DWIDTH 20 0
BBX 19 22 -1 0
BITMAP
0FF800
0FFE00
0FFF00
0E0F80
0E07C0
0E03C0
0E01E0
0E01E0
0E01E0
FFE1E0
FFE1E0
FFE1E0
0E01E0
0E01E0
0E01E0
0E01E0
0E03C0
0E07C0
0E0F80
0FFF00
0FFE00
0FF800
ENDCHAR
STARTCHAR dcroat
ENCODING 273
SWIDTH 614 0
DWIDTH 20 0
BBX 18 23 2 0
BITMAP
001E00
01FFC0
01FFC0
01FFC0
001E00
001E00
0F9E00
1FFE00
3FFE00
7C3E00
781E00
F01E00
F01E00
F01E00
F01E00
F01E00
F01E00
F01E00
781E00
7C3E00
3FFE00
1FFE00
0F9E00
ENDCHAR
STARTCHAR Emacron
ENCODING 274
SWIDTH 600 0
DWIDTH 19 0
BBX 14 27 3 0
BITMAP
7FF8
7FF8
7FF8
0000
0000
FFFC
FFFC
FFFC
E000
E000
E000
E000
E000
E000
FFF8
FFF8
FFF8
E000
E000
E000
E000
E000
E000
E000
FFFC
FFFC
FFFC
ENDCHAR
STARTCHAR emacron
ENCODING 275
SWIDTH 600 0
DWIDTH 19 0
BBX 15 22 2 0
BITMAP
3FF8
3FF8
3FF8
0000
0000
07E0
1FF8
3FFC
7C3C
781E
F01E
F00E
FFFE
FFFE
FFFE
F000
F000
7804
7C1E
3FFE
1FF8
07F0
ENDCHAR
STARTCHAR Ebreve
ENCODING 276
SWIDTH 600 0
DWIDTH 19 0
BBX 14 28 3 0
BITMAP
3870
38F0
1FE0
0FC0
0000
0000
FFFC
FFFC
FFFC
E000
E000
E000
E000
E000
E000
FFF8
FFF8
FFF8
E000
E000
E000
E000
E000
E000
E000
FFFC
FFFC
FFFC
ENDCHAR
STARTCHAR ebreve
ENCODING 277
SWIDTH 600 0
DWIDTH 19 0
BBX 15 23 2 0
BITMAP
1838
1C70
1FF0
07E0
0000
0000
07E0
1FF8
3FFC
7C3C
781E
F01E
F00E
FFFE
FFFE
FFFE
F000
F000
7804
7C1E
3FFE
1FF8
07F0
ENDCHAR
STARTCHAR Edotaccent
ENCODING 278
SWIDTH 600 0
DWIDTH 19 0
BBX 14 28 3 0
BITMAP
0700
0780
0780
0700
0000
0000
FFFC
FFFC
FFFC
E000
E000
E000
E000
E000
E000
FFF8
FFF8
FFF8
E000
E000
E000
E000
E000
E000
E000
FFFC
FFFC
FFFC
ENDCHAR
STARTCHAR edotaccent
ENCODING 279
SWIDTH 600 0
DWIDTH 19 0
BBX 15 23 2 0
BITMAP
0380
07C0
07C0
0380
0000
0000
07E0
1FF8
3FFC
7C3C
781E
F01E
F00E
FFFE
FFFE
FFFE
F000
F000
7804
7C1E
3FFE
1FF8
07F0
ENDCHAR
STARTCHAR Eogonek
ENCODING 280
SWIDTH 600 0
DWIDTH 19 0
BBX 14 28 3 -6
BITMAP
FFFC
FFFC
FFFC
E000
E000
E000
E000
E000
FFF8
FFF8
FFF8
E000
E000
E000
E000
E000
E000
E000
E000
FFFC
FFFC
FFFC
0060
00C0
01C0
01F8
01F8
00F8
ENDCHAR
STARTCHAR eogonek
ENCODING 281
SWIDTH 600 0
DWIDTH 19 0
BBX 15 23 2 -6
BITMAP
07E0
1FF8
3FFC
7C3C
781E
F01E
F00E
FFFE
FFFE
FFFE
F000
F000
7804
7C0C
3FFE
1FFC
07F0
01C0
0380
0380
03F0
01F0
01F0
ENDCHAR
STARTCHAR Ecaron
ENCODING 282
SWIDTH 600 0
DWIDTH 19 0
BBX 14 28 3 0
BITMAP
7870
1CE0
0FC0
0780
0000
0000
FFFC
FFFC
FFFC
E000
E000
E000
E000
E000
E000
FFF8
FFF8
FFF8
E000
E000
E000
E000
E000
E000
E000
FFFC
FFFC
FFFC
ENDCHAR
STARTCHAR ecaron
ENCODING 283
SWIDTH 600 0
DWIDTH 19 0
BBX 15 23 2 0
BITMAP
3C78
1EF0
07C0
0380
0000
0000
07E0
1FF8
3FFC
7C3C
781E
F01E
F00E
FFFE
FFFE
FFFE
F000
F000
7804
7C1E
3FFE
1FF8
07F0
ENDCHAR
STARTCHAR Gcircumflex
ENCODING 284
SWIDTH 600 0
DWIDTH 19 0
BBX 17 29 1 0
BITMAP
01E000
03F000
07B800
0E1C00
000000
000000
000000
03F000
0FFC00
1FFE00
3E1F00
3C0F00
780700
780080
700000
F00000
F00000
F07F80
F07F80
F07F80
F00780
700780
780780
780780
3C0780
3E0F80
1FFF00
0FFE00
03F000
ENDCHAR
STARTCHAR gcircumflex
ENCODING 285
SWIDTH 600 0
DWIDTH 19 0
BBX 15 29 2 -6
BITMAP
0380
0FC0
1EE0
3C78
0000
0000
0F9E
1FFE
3FFE
7C3E
781E
F01E
F01E
F01E
F01E
F01E
F01E
F01E
781E
7C3E
3FFE
1FFE
0F9E
001E
203C
707C
7FF8
3FF0
0FC0
ENDCHAR
STARTCHAR Gbreve
ENCODING 286
SWIDTH 600 0
DWIDTH 19 0
BBX 17 29 1 0
BITMAP
0E1C00
0F1C00
07F800
03F000
000000
000000
000000
03F000
0FFC00
1FFE00
3E1F00
3C0F00
780700
780080
700000
F00000
F00000
F07F80
F07F80
F07F80
F00780
700780
780780
780780
3C0780
3E0F80
1FFF00
0FFE00
03F000
ENDCHAR
STARTCHAR gbreve
ENCODING 287
SWIDTH 600 0
DWIDTH 19 0
BBX 15 29 2 -6
BITMAP
3830
1C70
1FF0
0FC0
0000
0000
0F9E
1FFE
3FFE
7C3E
781E
F01E
F01E
F01E
F01E
F01E
F01E
F01E
781E
7C3E
3FFE
1FFE
0F9E
001E
203C
707C
7FF8
3FF0
0FC0
ENDCHAR
STARTCHAR uni0120
ENCODING 288
SWIDTH 600 0
DWIDTH 19 0
BBX 17 28 1 0
BITMAP
00E000
01E000
01E000
00E000
000000
000000
03F000
0FFC00
1FFE00
3E1F00
3C0F00
780700
780080
700000
F00000
F00000
F07F80
F07F80
F07F80
F00780
700780
780780
780780
3C0780
3E0F80
1FFF00
0FFE00
03F000
ENDCHAR
STARTCHAR uni0121
ENCODING 289
SWIDTH 600 0
DWIDTH 19 0
BBX 15 29 2 -6
BITMAP
0380
0780
0780
0380
0000
0000
0F9E
1FFE
3FFE
7C3E
781E
F01E
F01E
F01E
F01E
F01E
F01E
F01E
781E
7C3E
3FFE
1FFE
0F9E
001E
203C
707C
7FF8
3FF0
0FC0
ENDCHAR
STARTCHAR Gcommaaccent
ENCODING 290
SWIDTH 600 0
DWIDTH 19 0
BBX 17 30 1 -8
BITMAP
03F000
0FFC00
1FFE00
3E1F00
3C0F00
780700
780080
700000
F00000
F00000
F07F80
F07F80
F07F80
F00780
700780
780780
780780
3C0780
3E0F80
1FFF00
0FFE00
03F800
000000
00E000
00E000
00E000
01C000
01C000
018000
008000
ENDCHAR
STARTCHAR gcommaaccent
ENCODING 291
SWIDTH 600 0
DWIDTH 19 0
BBX 15 33 2 -6
BITMAP
0100
01C0
03C0
0380
0380
0380
0380
0000
0000
0000
0F9E
1FFE
3FFE
7C3E
781E
F01E
F01E
F01E
F01E
F01E
F01E
F01E
781E
7C3E
3FFE
1FFE
0F9E
001E
203C
707C
7FF8
3FF0
0FC0
ENDCHAR
STARTCHAR Hcircumflex
ENCODING 292
SWIDTH 600 0
DWIDTH 19 0
BBX 15 28 2 0
BITMAP
0380
07C0
1EF0
3C78
0000
0000
F01E
F01E
F01E
F01E
F01E
F01E
F01E
F01E
F01E
FFFE
FFFE
FFFE
F01E
F01E
F01E
F01E
F01E
F01E
F01E
F01E
F01E
F01E
ENDCHAR
STARTCHAR hcircumflex
ENCODING 293
SWIDTH 600 0
DWIDTH 19 0
BBX 15 30 2 0
BITMAP
0780
0FC0
1DE0
3870
0000
0000
0000
F000
F000
F000
F000
F000
F000
F1F0
F7F8
FFFC
FC3E
F01E
F01E
F01E
F01E
F01E
F01E
F01E
F01E
F01E
F01E
F01E
F01E
F01E
ENDCHAR
STARTCHAR Hbar
ENCODING 294
SWIDTH 600 0
DWIDTH 19 0
BBX 19 22 0 0
BITMAP
380780
380780
380780
FFFFE0
FFFFE0
FFFFE0
380780
380780
380780
3FFF80
3FFF80
3FFF80
380780
380780
380780
380780
380780
380780
380780
380780
380780
380780
ENDCHAR
STARTCHAR hbar
ENCODING 295
SWIDTH 614 0
DWIDTH 20 0
BBX 18 23 0 0
BITMAP
1E0000
FFE000
FFE000
FFE000
1E0000
1E0000
1E7C00
1EFF00
1FFF80
1F0F80
1E0780
1E0380
1E03C0
1E03C0
1E03C0
1E03C0
1E03C0
1E03C0
1E03C0
1E03C0
1E03C0
1E03C0
1E03C0
ENDCHAR
STARTCHAR Itilde
ENCODING 296
SWIDTH 600 0
DWIDTH 19 0
BBX 13 29 3 0
BITMAP
3C70
7FE0
7FE0
E3C0
0000
0000
0000
FFF8
FFF8
FFF8
0700
0700
0700
0700
0700
0700
0700
0700
0700
0700
0700
0700
0700
0700
0700
0700
FFF8
FFF8
FFF8
ENDCHAR
STARTCHAR itilde
ENCODING 297
SWIDTH 600 0
DWIDTH 19 0
BBX 14 23 3 0
BITMAP
0E18
1FF8
3FF0
31E0
0000
0000
FF80
FF80
FF80
0780
0780
0780
0780
0780
0780
0780
0780
0780
0780
0780
FFFC
FFFC
FFFC
ENDCHAR
STARTCHAR Imacron
ENCODING 298
SWIDTH 600 0
DWIDTH 19 0
BBX 13 27 3 0
BITMAP
FFF0
FFF0
FFF0
0000
0000
FFF8
FFF8
FFF8
0700
0700
0700
0700
0700
0700
0700
0700
0700
0700
0700
0700
0700
0700
0700
0700
FFF8
FFF8
FFF8
ENDCHAR
STARTCHAR imacron
ENCODING 299
SWIDTH 600 0
DWIDTH 19 0
BBX 14 22 3 0
BITMAP
3FF8
3FF8
3FF8
0000
0000
FF80
FF80
FF80
0780
0780
0780
0780
0780
0780
0780
0780
0780
0780
0780
FFFC
FFFC
FFFC
ENDCHAR
STARTCHAR Ibreve
ENCODING 300
SWIDTH 600 0
DWIDTH 19 0
BBX 13 28 3 0
BITMAP
70E0
78E0
3FC0
1F80
0000
0000
FFF8
FFF8
FFF8
0700
0700
0700
0700
0700
0700
0700
0700
0700
0700
0700
0700
0700
0700
0700
0700
FFF8
FFF8
FFF8
ENDCHAR
STARTCHAR ibreve
ENCODING 301
SWIDTH 600 0
DWIDTH 19 0
BBX 14 23 3 0
BITMAP
3830
1C70
1FF0
0FC0
0000
0000
FF80
FF80
FF80
0780
0780
0780
0780
0780
0780
0780
0780
0780
0780
0780
FFFC
FFFC
FFFC
ENDCHAR
STARTCHAR Iogonek
ENCODING 302
SWIDTH 600 0
DWIDTH 19 0
BBX 13 28 3 -6
BITMAP
FFF8
FFF8
FFF8
0700
0700
0700
0700
0700
0700
0700
0700
0700
0700
0700
0700
0700
0700
0700
0700
FFF8
FFF8
FFF8
0700
0E00
0E00
0F80
0FC0
0780
ENDCHAR
STARTCHAR iogonek
ENCODING 303
SWIDTH 600 0
DWIDTH 19 0
BBX 14 28 3 -6
BITMAP
0380
0780
0780
0380
0000
FF80
FF80
FF80
0780
0780
0780
0780
0780
0780
0780
0780
0780
0780
0780
FFFC
FFFC
FFFC
0700
0E00
1C00
1F80
0F80
07C0
ENDCHAR
STARTCHAR Idotaccent
ENCODING 304
SWIDTH 600 0
DWIDTH 19 0
BBX 13 28 3 0
BITMAP
0700
0F00
0F00
0700
0000
0000
FFF8
FFF8
FFF8
0700
0700
0700
0700
0700
0700
0700
0700
0700
0700
0700
0700
0700
0700
0700
0700
FFF8
FFF8
FFF8
ENDCHAR
STARTCHAR dotlessi
ENCODING 305
SWIDTH 600 0
DWIDTH 19 0
BBX 14 17 3 0
BITMAP
FF80
FF80
FF80
0780
0780
0780
0780
0780
0780
0780
0780
0780
0780
0780
FFFC
FFFC
FFFC
ENDCHAR
STARTCHAR IJ
ENCODING 306
SWIDTH 600 0
DWIDTH 19 0
BBX 15 22 2 0
BITMAP
E00E
E00E
E00E
E00E
E00E
E00E
E00E
E00E
E00E
E00E
E00E
E00E
E00E
E00E
E00E
E00E
E70E
E70E
E79E
E7FE
E3FC
E1F8
ENDCHAR
STARTCHAR ij
ENCODING 307
SWIDTH 600 0
DWIDTH 19 0
BBX 16 28 1 -6
BITMAP
0E07
0E07
0E07
0000
0000
FE3F
FE3F
FE3F
0E07
0E07
0E07
0E07
0E07
0E07
0E07
0E07
0E07
0E07
0E07
FFC7
FFC7
FFC7
0007
0007
000F
03FE
03FC
03F8
ENDCHAR
STARTCHAR Jcircumflex
ENCODING 308
SWIDTH 600 0
DWIDTH 19 0
BBX 18 28 2 0
BITMAP
001E00
003F00
007380
00E1C0
000000
000000
001E00
001E00
001E00
001E00
001E00
001E00
001E00
001E00
001E00
001E00
001E00
001E00
001E00
001E00
001E00
E01E00
F01E00
F03C00
F87C00
7FF800
3FF000
0FC000
ENDCHAR
STARTCHAR jcircumflex
ENCODING 309
SWIDTH 600 0
DWIDTH 19 0
BBX 14 29 3 -6
BITMAP
01C0
07E0
0F70
1C3C
0000
0000
7FC0
7FC0
7FC0
03C0
03C0
03C0
03C0
03C0
03C0
03C0
03C0
03C0
03C0
03C0
03C0
03C0
03C0
03C0
03C0
07C0
FF80
FF00
FC00
ENDCHAR
STARTCHAR Kcommaaccent
ENCODING 310
SWIDTH 600 0
DWIDTH 19 0
BBX 17 30 2 -8
BITMAP
F00F80
F01F00
F03E00
F07C00
F07800
F0F000
F1F000
F3E000
F3C000
F78000
FF8000
FFC000
FDE000
FDE000
F8F000
F0F800
F07800
F03C00
F03E00
F01E00
F00F00
F00F80
000000
038000
038000
038000
038000
038000
070000
010000
ENDCHAR
STARTCHAR kcommaaccent
ENCODING 311
SWIDTH 600 0
DWIDTH 19 0
BBX 16 31 2 -8
BITMAP
F000
F000
F000
F000
F000
F000
F03E
F07C
F0F8
F1F0
F1E0
F3C0
F780
FF80
FFC0
FFE0
F9E0
F0F0
F0F8
F07C
F03C
F03E
F01F
0000
0380
0380
0700
0700
0700
0E00
0200
ENDCHAR
STARTCHAR kgreenlandic
ENCODING 312
SWIDTH 600 0
DWIDTH 19 0
BBX 15 17 3 0
BITMAP
E03E
E07C
E0F8
E1F0
E3E0
E7C0
EF80
EF80
FF80
FFC0
FBE0
F1E0
E0F0
E0F8
E07C
E03C
E03E
ENDCHAR
STARTCHAR Lacute
ENCODING 313
SWIDTH 600 0
DWIDTH 19 0
BBX 14 27 3 0
BITMAP
1E00
3C00
7000
E000
0000
E000
E000
E000
E000
E000
E000
E000
E000
E000
E000
E000
E000
E000
E000
E000
E000
E000
E000
E000
FFFC
FFFC
FFFC
ENDCHAR
STARTCHAR lacute
ENCODING 314
SWIDTH 600 0
DWIDTH 19 0
BBX 14 28 3 0
BITMAP
00F8
00E0
01C0
0380
0000
FF80
FF80
FF80
0780
0780
0780
0780
0780
0780
0780
0780
0780
0780
0780
0780
0780
0780
0780
0780
0780
FFFC
FFFC
FFFC
ENDCHAR
STARTCHAR Lcommaaccent
ENCODING 315
SWIDTH 600 0
DWIDTH 19 0
BBX 14 30 3 -8
BITMAP
E000
E000
E000
E000
E000
E000
E000
E000
E000
E000
E000
E000
E000
E000
E000
E000
E000
E000
E000
FFFC
FFFC
FFFC
0000
0300
0700
0700
0700
0700
0E00
0200
ENDCHAR
STARTCHAR lcommaaccent
ENCODING 316
SWIDTH 600 0
DWIDTH 19 0
BBX 14 31 3 -8
BITMAP
FF80
FF80
FF80
0780
0780
0780
0780
0780
0780
0780
0780
0780
0780
0780
0780
0780
0780
0780
0780
0780
FFFC
FFFC
FFFC
0000
0380
0380
0380
0380
0700
0700
0200
ENDCHAR
STARTCHAR Lcaron
ENCODING 317
SWIDTH 600 0
DWIDTH 19 0
BBX 14 22 3 0
BITMAP
E038
E038
E038
E038
E078
E070
E070
E0E0
E020
E000
E000
E000
E000
E000
E000
E000
E000
E000
E000
FFFC
FFFC
FFFC
ENDCHAR
STARTCHAR lcaron
ENCODING 318
SWIDTH 673 0
DWIDTH 22 0
BBX 17 24 3 0
BITMAP
000380
FF8380
FF8380
FF8380
078780
078700
078700
078E00
078200
078000
078000
078000
078000
078000
078000
078000
078000
078000
078000
078000
078000
FFFC00
FFFC00
FFFC00
ENDCHAR
STARTCHAR Ldot
ENCODING 319
SWIDTH 600 0
DWIDTH 19 0
BBX 14 22 3 0
BITMAP
E000
E000
E000
E000
E000
E000
E000
E000
E000
E1C0
E1E0
E1E0
E1C0
E000
E000
E000
E000
E000
E000
FFFC
FFFC
FFFC
ENDCHAR
STARTCHAR ldot
ENCODING 320
SWIDTH 707 0
DWIDTH 23 0
BBX 15 23 3 0
BITMAP
FF80
FF80
FF80
0780
0780
0780
0780
0780
0780
078E
079E
079E
078E
0780
0780
0780
0780
0780
0780
0780
FFFC
FFFC
FFFC
ENDCHAR
STARTCHAR Lslash
ENCODING 321
SWIDTH 600 0
DWIDTH 19 0
BBX 17 22 1 0
BITMAP
3C0000
3C0000
3C0000
3C0000
3C0000
3C0000
3C0000
3C0000
3D8000
3F8000
FF8000
FC0000
FC0000
3C0000
3C0000
3C0000
3C0000
3C0000
3C0000
3FFF80
3FFF80
3FFF80
ENDCHAR
STARTCHAR lslash
ENCODING 322
SWIDTH 600 0
DWIDTH 19 0
BBX 15 23 3 0
BITMAP
FF80
FF80
FF80
0380
0380
0380
0384
03BC
03FC
03F0
0FC0
7F80
7B80
6380
8380
0380
0380
0380
0380
0380
FFFE
FFFE
FFFE
ENDCHAR
STARTCHAR Nacute
ENCODING 323
SWIDTH 600 0
DWIDTH 19 0
BBX 15 27 2 0
BITMAP
00F8
00E0
01C0
0380
0000
F01E
F81E
F81E
FC1E
FC1E
FE1E
FE1E
FF1E
F71E
F71E
F39E
F39E
F1DE
F1DE
F0FE
F0FE
F07E
F07E
F03E
F03E
F01E
F01E
ENDCHAR
STARTCHAR nacute
ENCODING 324
SWIDTH 600 0
DWIDTH 19 0
BBX 15 22 2 0
BITMAP
00F8
00E0
01C0
0380
0000
F1F0
F7F8
FFFC
FC3E
F81E
F01E
F01E
F01E
F01E
F01E
F01E
F01E
F01E
F01E
F01E
F01E
F01E
ENDCHAR
STARTCHAR Ncommaaccent
ENCODING 325
SWIDTH 600 0
DWIDTH 19 0
BBX 15 30 2 -8
BITMAP
F01E
F81E
F81E
FC1E
FC1E
FE1E
FE1E
FF1E
F71E
F71E
F39E
F39E
F1DE
F1DE
F0FE
F0FE
F07E
F07E
F03E
F03E
F01E
F01E
0000
0380
0380
0380
0380
0700
0700
0200
ENDCHAR
STARTCHAR ncommaaccent
ENCODING 326
SWIDTH 600 0
DWIDTH 19 0
BBX 15 25 2 -8
BITMAP
F1F0
F7F8
FFFC
FC3E
F81E
F01E
F01E
F01E
F01E
F01E
F01E
F01E
F01E
F01E
F01E
F01E
F01E
0000
0380
0380
0380
0380
0700
0700
0200
ENDCHAR
STARTCHAR Ncaron
ENCODING 327
SWIDTH 600 0
DWIDTH 19 0
BBX 15 28 2 0
BITMAP
3C78
1EE0
0FC0
0380
0000
0000
F01E
F81E
F81E
FC1E
FC1E
FE1E
FE1E
FF1E
F71E
F71E
F39E
F39E
F1DE
F1DE
F0FE
F0FE
F07E
F07E
F03E
F03E
F01E
F01E
ENDCHAR
STARTCHAR ncaron
ENCODING 328
SWIDTH 600 0
DWIDTH 19 0
BBX 15 23 2 0
BITMAP
3C78
1EF0
07C0
0380
0000
0000
F1F0
F7F8
FFFC
FC3E
F81E
F01E
F01E
F01E
F01E
F01E
F01E
F01E
F01E
F01E
F01E
F01E
F01E
ENDCHAR
STARTCHAR napostrophe
ENCODING 329
SWIDTH 600 0
DWIDTH 19 0
BBX 19 24 -2 0
BITMAP
380000
380000
380000
780000
700000
700000
700000
EF1F00
4F7F80
0FFFC0
0FC3E0
0F81E0
0F01E0
0F01E0
0F01E0
0F01E0
0F01E0
0F01E0
0F01E0
0F01E0
0F01E0
0F01E0
0F01E0
0F01E0
ENDCHAR
STARTCHAR Eng
ENCODING 330
SWIDTH 600 0
DWIDTH 19 0
BBX 14 28 3 -6
BITMAP
F03C
F03C
F03C
F83C
F83C
FC3C
FC3C
FE3C
EE3C
EF3C
E73C
E7BC
E3BC
E3FC
E1FC
E1FC
E1FC
E0FC
E0FC
E07C
E07C
E03C
003C
003C
007C
03F8
03F0
03E0
ENDCHAR
STARTCHAR eng
ENCODING 331
SWIDTH 600 0
DWIDTH 19 0
BBX 14 23 3 -6
BITMAP
E3E0
EFF0
FFF8
F878
E038
E03C
E03C
E03C
E03C
E03C
E03C
E03C
E03C
E03C
E03C
E03C
E03C
003C
003C
0078
03F8
03F0
03E0
ENDCHAR
STARTCHAR Omacron
ENCODING 332
SWIDTH 600 0
DWIDTH 19 0
BBX 17 27 1 0
BITMAP
1FFE00
1FFE00
1FFE00
000000
000000
03E000
0FF800
1FFC00
3E1E00
780F00
780F00
780700
700780
F00780
F00780
F00780
F00780
F00780
F00780
700780
780700
780F00
780F00
3E1E00
1FFC00
0FF800
03E000
ENDCHAR
STARTCHAR omacron
ENCODING 333
SWIDTH 600 0
DWIDTH 19 0
BBX 15 22 2 0
BITMAP
3FF8
3FF8
3FF8
0000
0000
07E0
1FF0
3FF8
7C3C
F81E
F01E
F01E
F00E
E00E
E00E
F01E
F01E
F81E
7C3C
3FF8
1FF0
07E0
ENDCHAR
STARTCHAR Obreve
ENCODING 334
SWIDTH 600 0
DWIDTH 19 0
BBX 17 29 1 0
BITMAP
0E1C00
0E3C00
07F800
03F000
000000
000000
000000
03E000
0FF800
1FFC00
3E1E00
780F00
780F00
780700
700780
F00780
F00780
F00780
F00780
F00780
F00780
700780
780700
780F00
780F00
3E1E00
1FFC00
0FF800
03E000
ENDCHAR
STARTCHAR obreve
ENCODING 335
SWIDTH 600 0
DWIDTH 19 0
BBX 15 23 2 0
BITMAP
1C38
1C70
0FF0
07E0
0000
0000
07E0
1FF0
3FF8
7C3C
F81E
F01E
F01E
F00E
E00E
E00E
F01E
F01E
F81E
7C3C
3FF8
1FF0
07E0
ENDCHAR
STARTCHAR Ohungarumlaut
ENCODING 336
SWIDTH 600 0
DWIDTH 19 0
BBX 17 29 1 0
BITMAP
01F780
01CE00
039C00
077800
000000
000000
000000
03E000
0FF800
1FFC00
3E1E00
780F00
780F00
780700
700780
F00780
F00780
F00780
F00780
F00780
F00780
700780
780700
780F00
780F00
3E1E00
1FFC00
0FF800
03E000
ENDCHAR
STARTCHAR ohungarumlaut
ENCODING 337
SWIDTH 600 0
DWIDTH 19 0
BBX 16 23 2 0
BITMAP
03CF
079C
0738
0EF0
0000
0000
07E0
1FF0
3FF8
7C3C
F81E
F01E
F01E
F00E
E00E
E00E
F01E
F01E
F81E
7C3C
3FF8
1FF0
07E0
ENDCHAR
STARTCHAR OE
ENCODING 338
SWIDTH 600 0
DWIDTH 19 0
BBX 18 22 1 0
BITMAP
0FFF80
3FFF80
7FFF80
78F000
70F000
F0F000
F0F000
F0F000
F0F000
F0FF80
F0FF80
F0FF80
F0F000
F0F000
F0F000
F0F000
F0F000
70F000
78F000
7FFFC0
3FFFC0
0FFFC0
ENDCHAR
STARTCHAR oe
ENCODING 339
SWIDTH 600 0
DWIDTH 19 0
BBX 18 17 1 0
BITMAP
1E3E00
7FFF00
7FFF80
F3E780
F1E380
E1E3C0
E1E3C0
E1FFC0
E1FFC0
E1FFC0
E1E000
E1E000
F1E000
F3F100
7FFF00
7FFF80
1F1F00
ENDCHAR
STARTCHAR Racute
ENCODING 340
SWIDTH 600 0
DWIDTH 19 0
BBX 16 27 2 0
BITMAP
00F8
00E0
01C0
0380
0000
FFE0
FFF8
FFFC
F03E
F01E
F00F
F00F
F00F
F01E
F03E
FFFC
FFF8
FFF0
F0F0
F078
F078
F03C
F03C
F01E
F01E
F00F
F00F
ENDCHAR
STARTCHAR racute
ENCODING 341
SWIDTH 600 0
DWIDTH 19 0
BBX 12 22 5 0
BITMAP
07C0
0F00
0E00
3C00
0000
E1F0
E7F0
EFF0
FFF0
FC00
F000
F000
F000
F000
F000
F000
F000
F000
F000
F000
F000
F000
ENDCHAR
STARTCHAR Rcommaaccent
ENCODING 342
SWIDTH 600 0
DWIDTH 19 0
BBX 16 30 2 -8
BITMAP
FFE0
FFF8
FFFC
F03E
F01E
F00F
F00F
F00F
F01E
F03E
FFFC
FFF8
FFF0
F0F0
F078
F078
F03C
F03C
F01E
F01E
F00F
F00F
0000
0380
0380
0380
0380
0300
0700
0200
ENDCHAR
STARTCHAR rcommaaccent
ENCODING 343
SWIDTH 600 0
DWIDTH 19 0
BBX 13 25 4 -8
BITMAP
70F8
73F8
77F8
7FF8
7E00
7800
7800
7800
7800
7800
7800
7800
7800
7800
7800
7800
7800
0000
7000
7000
7000
7000
7000
E000
4000
ENDCHAR
STARTCHAR Rcaron
ENCODING 344
SWIDTH 600 0
DWIDTH 19 0
BBX 16 28 2 0
BITMAP
3C78
1EF0
07C0
0380
0000
0000
FFE0
FFF8
FFFC
F03E
F01E
F00F
F00F
F00F
F01E
F03E
FFFC
FFF8
FFF0
F0F0
F078
F078
F03C
F03C
F01E
F01E
F00F
F00F
ENDCHAR
STARTCHAR rcaron
ENCODING 345
SWIDTH 600 0
DWIDTH 19 0
BBX 13 23 4 0
BITMAP
E1E0
7380
3F00
1E00
0000
0000
70F8
73F8
77F8
7FF8
7E00
7800
7800
7800
7800
7800
7800
7800
7800
7800
7800
7800
7800
ENDCHAR
STARTCHAR Sacute
ENCODING 346
SWIDTH 600 0
DWIDTH 19 0
BBX 16 28 2 0
BITMAP
0078
00F0
01E0
03C0
0000
0000
07E0
1FF8
3FFC
7C3E
F81F
F00F
F00F
F800
7C00
3F80
1FF0
07F8
00FC
003E
000F
E00F
F00F
F00F
7C1E
7FFE
1FFC
07F0
ENDCHAR
STARTCHAR sacute
ENCODING 347
SWIDTH 600 0
DWIDTH 19 0
BBX 15 22 2 0
BITMAP
00F8
00E0
01C0
0380
0000
07E0
1FF8
3FFC
7C3E
781E
7800
7C00
3FC0
0FF8
03FC
003E
F01E
F01E
783E
7FFC
1FF8
07E0
ENDCHAR
STARTCHAR Scircumflex
ENCODING 348
SWIDTH 600 0
DWIDTH 19 0
BBX 16 29 2 0
BITMAP
03C0
07E0
0E70
1C38
0000
0000
0000
07E0
1FF8
3FFC
7C3E
F81F
F00F
F00F
F800
7C00
3F80
1FF0
07F8
00FC
003E
000F
E00F
F00F
F00F
7C1E
7FFE
1FFC
07F0
ENDCHAR
STARTCHAR scircumflex
ENCODING 349
SWIDTH 600 0
DWIDTH 19 0
BBX 15 23 2 0
BITMAP
0380
07C0
1EF0
3C78
0000
0000
07E0
1FF8
3FFC
7C3E
781E
7800
7C00
3FC0
0FF8
03FC
003E
F01E
F01E
783E
7FFC
1FF8
07E0
ENDCHAR
STARTCHAR Scedilla
ENCODING 350
SWIDTH 600 0
DWIDTH 19 0
BBX 16 28 2 -6
BITMAP
07E0
1FF8
3FFC
7C3E
F81F
F00F
F00F
F800
7C00
3F80
1FF0
07F8
00FC
003E
000F
E00F
F00F
F00F
7C1E
7FFE
1FFC
07F0
03E0
00F0
0070
00F0
01E0
01C0
ENDCHAR
STARTCHAR scedilla
ENCODING 351
SWIDTH 600 0
DWIDTH 19 0
BBX 15 23 2 -6
BITMAP
07E0
1FF8
3FFC
7C3E
781E
7800
7C00
3FC0
0FF8
03FC
003E
F01E
F01E
783E
7FFC
1FF8
07E0
03C0
00E0
00E0
00E0
03C0
0380
ENDCHAR
STARTCHAR Scaron
ENCODING 352
SWIDTH 600 0
DWIDTH 19 0
BBX 16 29 2 0
BITMAP
3C38
0E70
07E0
03C0
0000
0000
0000
07E0
1FF8
3FFC
7C3E
F81F
F00F
F00F
F800
7C00
3F80
1FF0
07F8
00FC
003E
000F
E00F
F00F
F00F
7C1E
7FFE
1FFC
07F0
ENDCHAR
STARTCHAR scaron
ENCODING 353
SWIDTH 600 0
DWIDTH 19 0
BBX 15 23 2 0
BITMAP
3C78
1EF0
07C0
0380
0000
0000
07E0
1FF8
3FFC
7C3E
781E
7800
7C00
3FC0
0FF8
03FC
003E
F01E
F01E
783E
7FFC
1FF8
07E0
ENDCHAR
STARTCHAR uni0162
ENCODING 354
SWIDTH 600 0
DWIDTH 19 0
BBX 17 28 1 -6
BITMAP
FFFF80
FFFF80
FFFF80
01C000
01C000
01C000
01C000
01C000
01C000
01C000
01C000
01C000
01C000
01C000
01C000
01C000
01C000
01C000
01C000
01C000
01C000
01C000
01E000
007000
007000
007000
01F000
01C000
ENDCHAR
STARTCHAR uni0163
ENCODING 355
SWIDTH 600 0
DWIDTH 19 0
BBX 15 27 2 -6
BITMAP
0F00
0F00
0F00
0F00
FFFC
FFFC
FFFC
0F00
0F00
0F00
0F00
0F00
0F00
0F00
0F00
0F00
0F00
0F80
07FE
03FE
01FC
01F0
0070
0070
0070
01F0
01C0
ENDCHAR
STARTCHAR Tcaron
ENCODING 356
SWIDTH 600 0
DWIDTH 19 0
BBX 17 28 1 0
BITMAP
1E3C00
077800
03F000
01C000
000000
000000
FFFF80
FFFF80
FFFF80
01C000
01C000
01C000
01C000
01C000
01C000
01C000
01C000
01C000
01C000
01C000
01C000
01C000
01C000
01C000
01C000
01C000
01C000
01C000
ENDCHAR
STARTCHAR tcaron
ENCODING 357
SWIDTH 619 0
DWIDTH 20 0
BBX 17 27 2 0
BITMAP
000780
000780
000780
000780
000700
000700
0F0F00
0F0E00
0F0400
0F0000
FFFC00
FFFC00
FFFC00
0F0000
0F0000
0F0000
0F0000
0F0000
0F0000
0F0000
0F0000
0F0000
0F0000
0F8000
07FE00
03FE00
01FC00
ENDCHAR
STARTCHAR Tbar
ENCODING 358
SWIDTH 600 0
DWIDTH 19 0
BBX 17 22 1 0
BITMAP
FFFF80
FFFF80
FFFF80
01C000
01C000
01C000
01C000
1FFC00
1FFC00
1FFC00
01C000
01C000
01C000
01C000
01C000
01C000
01C000
01C000
01C000
01C000
01C000
01C000
ENDCHAR
STARTCHAR tbar
ENCODING 359
SWIDTH 600 0
DWIDTH 19 0
BBX 15 21 2 0
BITMAP
0F00
0F00
0F00
0F00
FFFC
FFFC
FFFC
0F00
0F00
7FE0
7FE0
7FE0
0F00
0F00
0F00
0F00
0F00
0780
07FE
03FE
01FC
ENDCHAR
STARTCHAR Utilde
ENCODING 360
SWIDTH 600 0
DWIDTH 19 0
BBX 15 28 2 0
BITMAP
0F1C
1FF8
1FF8
38F0
0000
0000
F01E
F01E
F01E
F01E
F01E
F01E
F01E
F01E
F01E
F01E
F01E
F01E
F01E
F01E
F01E
F01E
F01E
781E
7C3C
3FF8
1FF0
07E0
ENDCHAR
STARTCHAR utilde
ENCODING 361
SWIDTH 600 0
DWIDTH 19 0
BBX 14 23 3 0
BITMAP
1E30
3FF0
7FF0
61E0
0000
0000
E03C
E03C
E03C
E03C
E03C
E03C
E03C
E03C
E03C
E03C
E03C
E03C
F03C
F07C
7FFC
7FFC
1F3C
ENDCHAR
STARTCHAR Umacron
ENCODING 362
SWIDTH 600 0
DWIDTH 19 0
BBX 15 27 2 0
BITMAP
3FFC
3FFC
3FFC
0000
0000
F01E
F01E
F01E
F01E
F01E
F01E
F01E
F01E
F01E
F01E
F01E
F01E
F01E
F01E
F01E
F01E
F01E
781E
7C3C
3FF8
1FF0
07E0
ENDCHAR
STARTCHAR umacron
ENCODING 363
SWIDTH 600 0
DWIDTH 19 0
BBX 14 22 3 0
BITMAP
7FF0
7FF0
7FF0
0000
0000
E03C
E03C
E03C
E03C
E03C
E03C
E03C
E03C
E03C
E03C
E03C
E03C
F03C
F07C
7FFC
7FFC
1F3C
ENDCHAR
STARTCHAR Ubreve
ENCODING 364
SWIDTH 600 0
DWIDTH 19 0
BBX 15 28 2 0
BITMAP
1C38
1E38
0FF0
07E0
0000
0000
F01E
F01E
F01E
F01E
F01E
F01E
F01E
F01E
F01E
F01E
F01E
F01E
F01E
F01E
F01E
F01E
F01E
781E
7C3C
3FF8
1FF0
07E0
ENDCHAR
STARTCHAR ubreve
ENCODING 365
SWIDTH 600 0
DWIDTH 19 0
BBX 14 23 3 0
BITMAP
3870
38E0
1FE0
0FC0
0000
0000
E03C
E03C
E03C
E03C
E03C
E03C
E03C
E03C
E03C
E03C
E03C
E03C
F03C
F07C
7FFC
7FFC
1F3C
ENDCHAR
STARTCHAR Uring
ENCODING 366
SWIDTH 600 0
DWIDTH 19 0
BBX 15 29 2 0
BITMAP
03C0
0660
0420
0660
03C0
0000
0000
F01E
F01E
F01E
F01E
F01E
F01E
F01E
F01E
F01E
F01E
F01E
F01E
F01E
F01E
F01E
F01E
F01E
781E
7C3C
3FF8
1FF0
07E0
ENDCHAR
STARTCHAR uring
ENCODING 367
SWIDTH 600 0
DWIDTH 19 0
BBX 14 24 3 0
BITMAP
0780
0CC0
18C0
08C0
0F80
0000
0000
E03C
E03C
E03C
E03C
E03C
E03C
E03C
E03C
E03C
E03C
E03C
E03C
F03C
F07C
7FFC
7FFC
1F3C
ENDCHAR
STARTCHAR Uhungarumlaut
ENCODING 368
SWIDTH 600 0
DWIDTH 19 0
BBX 16 28 2 0
BITMAP
01EF
039E
0738
0E70
0000
0000
F01E
F01E
F01E
F01E
F01E
F01E
F01E
F01E
F01E
F01E
F01E
F01E
F01E
F01E
F01E
F01E
F01E
781E
7C3C
3FF8
1FF0
07E0
ENDCHAR
STARTCHAR uhungarumlaut
ENCODING 369
SWIDTH 600 0
DWIDTH 19 0
BBX 15 23 3 0
BITMAP
079E
0F38
0E70
1DE0
0000
0000
E03C
E03C
E03C
E03C
E03C
E03C
E03C
E03C
E03C
E03C
E03C
E03C
F03C
F07C
7FFC
7FFC
1F3C
ENDCHAR
STARTCHAR Uogonek
ENCODING 370
SWIDTH 600 0
DWIDTH 19 0
BBX 15 28 2 -6
BITMAP
F01E
F01E
F01E
F01E
F01E
F01E
F01E
F01E
F01E
F01E
F01E
F01E
F01E
F01E
F01E
F01E
F01E
781E
7C3C
3FFC
1FF8
0FE0
01C0
0380
03C0
03F0
01F0
00F0
ENDCHAR
STARTCHAR uogonek
ENCODING 371
SWIDTH 600 0
DWIDTH 19 0
BBX 14 23 3 -6
BITMAP
E03C
E03C
E03C
E03C
E03C
E03C
E03C
E03C
E03C
E03C
E03C
E03C
F03C
F07C
7FFC
7FBC
1F3C
0070
0060
00E0
00FC
00FC
007C
ENDCHAR
STARTCHAR Wcircumflex
ENCODING 372
SWIDTH 600 0
DWIDTH 19 0
BBX 18 28 1 0
BITMAP
01C000
03E000
077800
1E3C00
000000
000000
E1C3C0
E1C380
F1E380
F1E380
F3E380
F3E380
73E780
73E780
73F780
737700
777700
7F7700
7F3700
3F3700
3F3700
3E3F00
3E3F00
3E3E00
3E1E00
3E1E00
3C1E00
1C1E00
ENDCHAR
STARTCHAR wcircumflex
ENCODING 373
SWIDTH 600 0
DWIDTH 19 0
BBX 18 23 1 0
BITMAP
01C000
03E000
0F7800
1E3C00
000000
000000
E1C3C0
E1C380
E1C380
E1E380
F3E380
73E780
736700
736700
737700
777700
363700
3E3600
3E3E00
3E3E00
3E1E00
1C1E00
1C1C00
ENDCHAR
STARTCHAR Ycircumflex
ENCODING 374
SWIDTH 600 0
DWIDTH 19 0
BBX 18 28 1 0
BITMAP
01C000
03F000
077800
1E3C00
000000
000000
F007C0
F80780
780F00
780F00
3C1E00
3C1E00
1E1C00
1E3C00
0F3800
0F7800
077000
07F000
03E000
03E000
01C000
01C000
01C000
01C000
01C000
01C000
01C000
01C000
ENDCHAR
STARTCHAR ycircumflex
ENCODING 375
SWIDTH 600 0
DWIDTH 19 0
BBX 18 29 1 -6
BITMAP
01E000
03F000
073800
0E1C00
000000
000000
F007C0
780780
780F80
3C0F00
3C0F00
3C1E00
1E1E00
1E3C00
0F3C00
0F3800
077800
07F000
03F000
03F000
01E000
01E000
01C000
03C000
038000
078000
3F0000
3E0000
3C0000
ENDCHAR
STARTCHAR Ydieresis
ENCODING 376
SWIDTH 600 0
DWIDTH 19 0
BBX 18 27 1 0
BITMAP
0C1800
1E3C00
1E3C00
0C1C00
000000
F007C0
F80780
780F00
780F00
3C1E00
3C1E00
1E1C00
1E3C00
0F3800
0F7800
077000
07F000
03E000
03E000
01C000
01C000
01C000
01C000
01C000
01C000
01C000
01C000
ENDCHAR
STARTCHAR Zacute
ENCODING 377
SWIDTH 600 0
DWIDTH 19 0
BBX 15 27 2 0
BITMAP
007C
00F0
01E0
03C0
0000
FFFE
FFFE
FFFE
003C
003C
0078
00F0
00F0
01E0
03C0
03C0
0780
0F00
0F00
1E00
3C00
3C00
7800
F000
FFFE
FFFE
FFFE
ENDCHAR
STARTCHAR zacute
ENCODING 378
SWIDTH 600 0
DWIDTH 19 0
BBX 15 22 2 0
BITMAP
007C
00F0
00E0
01C0
0000
FFFE
FFFE
FFFE
007C
0078
00F0
01E0
03E0
07C0
0F80
0F00
1E00
3C00
7C00
FFFE
FFFE
FFFE
ENDCHAR
STARTCHAR Zdotaccent
ENCODING 379
SWIDTH 600 0
DWIDTH 19 0
BBX 15 27 2 0
BITMAP
0180
03C0
03C0
01C0
0000
FFFE
FFFE
FFFE
003C
003C
0078
00F0
00F0
01E0
03C0
03C0
0780
0F00
0F00
1E00
3C00
3C00
7800
F000
FFFE
FFFE
FFFE
ENDCHAR
STARTCHAR zdotaccent
ENCODING 380
SWIDTH 600 0
DWIDTH 19 0
BBX 15 22 2 0
BITMAP
01C0
03C0
03C0
01C0
0000
FFFE
FFFE
FFFE
007C
0078
00F0
01E0
03E0
07C0
0F80
0F00
1E00
3C00
7C00
FFFE
FFFE
FFFE
ENDCHAR
STARTCHAR Zcaron
ENCODING 381
SWIDTH 600 0
DWIDTH 19 0
BBX 15 28 2 0
BITMAP
1C3C
0E70
07E0
03C0
0000
0000
FFFE
FFFE
FFFE
003C
003C
0078
00F0
00F0
01E0
03C0
03C0
0780
0F00
0F00
1E00
3C00
3C00
7800
F000
FFFE
FFFE
FFFE
ENDCHAR
STARTCHAR zcaron
ENCODING 382
SWIDTH 600 0
DWIDTH 19 0
BBX 15 23 2 0
BITMAP
1C3C
0F70
07E0
03C0
0000
0000
FFFE
FFFE
FFFE
007C
0078
00F0
01E0
03E0
07C0
0F80
0F00
1E00
3C00
7C00
FFFE
FFFE
FFFE
ENDCHAR
STARTCHAR longs
ENCODING 383
SWIDTH 600 0
DWIDTH 19 0
BBX 9 24 7 0
BITMAP
0F80
3F80
7F80
F800
F000
F000
F000
E000
E000
E000
E000
E000
E000
E000
E000
E000
E000
E000
E000
E000
E000
E000
E000
E000
ENDCHAR
STARTCHAR florin
ENCODING 402
SWIDTH 600 0
DWIDTH 19 0
BBX 15 31 2 -6
BITMAP
007E
00FE
01FE
03E0
03C0
0780
0780
0780
1FF0
1FF0
1FF0
0780
0780
0780
0780
0780
0780
0780
0780
0780
0780
0780
0780
0780
0780
0780
0780
0F80
7F00
FF00
FC00
ENDCHAR
STARTCHAR Ohorn
ENCODING 416
SWIDTH 600 0
DWIDTH 19 0
BBX 18 23 1 0
BITMAP
0001C0
03E1C0
0FF9C0
1FFFC0
3E1F80
380F00
780F00
780700
700780
F00780
F00780
F00780
F00780
F00780
F00780
700780
780700
780F00
7C0F00
3E1E00
1FFC00
0FF800
03F000
ENDCHAR
STARTCHAR ohorn
ENCODING 417
SWIDTH 600 0
DWIDTH 19 0
BBX 17 19 2 0
BITMAP
000380
000380
07C700
1FF700
3FFE00
7C7C00
F01E00
F01E00
F01E00
F00E00
E00E00
E00E00
F01E00
F01E00
F01E00
7C3C00
3FF800
1FF000
0FC000
ENDCHAR
STARTCHAR Uhorn
ENCODING 431
SWIDTH 600 0
DWIDTH 19 0
BBX 21 23 2 0
BITMAP
000038
F01E70
F01E70
F01EF0
F01FE0
F01FC0
F01E00
F01E00
F01E00
F01E00
F01E00
F01E00
F01E00
F01E00
F01E00
F01E00
F01E00
F01E00
781E00
7C3C00
3FFC00
1FF800
07E000
ENDCHAR
STARTCHAR uhorn
ENCODING 432
SWIDTH 600 0
DWIDTH 19 0
BBX 19 19 2 0
BITMAP
0000E0
0000E0
F01EE0
F01EE0
F01FC0
F01FC0
F01F00
F01E00
F01E00
F01E00
F01E00
F01E00
F01E00
F01E00
703E00
787E00
7FFE00
3FDE00
1F9E00
ENDCHAR
STARTCHAR uni01F0
ENCODING 496
SWIDTH 600 0
DWIDTH 19 0
BBX 14 29 3 -6
BITMAP
1C3C
0F70
07E0
03C0
0000
0000
7FC0
7FC0
7FC0
03C0
03C0
03C0
03C0
03C0
03C0
03C0
03C0
03C0
03C0
03C0
03C0
03C0
03C0
03C0
03C0
07C0
FF80
FF00
FC00
ENDCHAR
STARTCHAR Aringacute
ENCODING 506
SWIDTH 600 0
DWIDTH 19 0
BBX 18 33 1 0
BITMAP
003C00
007000
00E000
00C000
01E000
033000
033000
03E000
01C000
000000
000000
01E000
01E000
03E000
03F000
03F000
07F000
07F800
077800
0F3800
0F3C00
0E3C00
1E1C00
1E1E00
1C1E00
3FFE00
3FFF00
3FFF00
780700
780780
700780
F00780
F003C0
ENDCHAR
STARTCHAR aringacute
ENCODING 507
SWIDTH 600 0
DWIDTH 19 0
BBX 15 28 2 0
BITMAP
0078
00E0
0180
0100
07C0
0440
0440
06C0
0380
0000
0000
0FC0
3FF0
7FF8
787C
F03C
001C
001C
0FFC
3FFC
781C
F01C
F01C
F03C
F87C
7FFC
3FFE
1F9E
ENDCHAR
STARTCHAR AEacute
ENCODING 508
SWIDTH 600 0
DWIDTH 19 0
BBX 18 27 1 0
BITMAP
001F00
003C00
003800
007000
000000
00FF80
01FF80
01FF80
03F800
03F800
03F800
07F800
077800
077800
0F7F80
0E7F80
1E7F80
1E7800
1C7800
3FF800
3FF800
3FF800
787800
787800
F07FC0
F07FC0
F07FC0
ENDCHAR
STARTCHAR aeacute
ENCODING 509
SWIDTH 600 0
DWIDTH 19 0
BBX 18 22 1 0
BITMAP
003E00
007800
007000
00E000
000000
1F3E00
7FFF00
FFFF80
F3E380
F1C3C0
01C3C0
01C3C0
1FFFC0
7FFFC0
FFFFC0
F9C000
F1C000
E1C000
F1E080
FFFF80
7F7F80
3E3F00
ENDCHAR
STARTCHAR Oslashacute
ENCODING 510
SWIDTH 600 0
DWIDTH 19 0
BBX 17 29 1 -1
BITMAP
007C00
007800
00E000
01C000
000000
000380
03E300
0FFF00
1FFE00
3E3E00
781F00
781F00
783F00
707780
F06780
F0E780
F0C780
F1C780
F38780
F30780
770780
7E0700
7E0F00
7C0F00
3E1E00
3FFC00
7FF800
63E000
E00000
ENDCHAR
STARTCHAR oslashacute
ENCODING 511
SWIDTH 600 0
DWIDTH 19 0
BBX 15 24 2 -2
BITMAP
00F8
01E0
03C0
078C
0018
07D8
1FF0
3FF8
7C7C
F87E
F0DE
F0CE
F18E
E18E
F30E
F31E
F61E
FE1E
7C3C
3FF8
1FF0
1FE0
3000
7000
ENDCHAR
STARTCHAR uni0218
ENCODING 536
SWIDTH 600 0
DWIDTH 19 0
BBX 16 30 2 -8
BITMAP
07E0
1FF8
3FFC
7C3E
F81F
F00F
F00F
F800
7C00
3F80
1FF0
07F8
00FC
003E
000F
E00F
F00F
F00F
7C1E
7FFE
1FFC
07F0
0000
01C0
01C0
01C0
0380
0380
0300
0100
ENDCHAR
STARTCHAR uni0219
ENCODING 537
SWIDTH 600 0
DWIDTH 19 0
BBX 15 25 2 -8
BITMAP
07E0
1FF8
3FFC
7C3E
781E
7800
7C00
3FC0
0FF8
03FC
003E
F01E
F01E
783E
7FFC
1FF8
07E0
0000
0380
0380
0380
0380
0700
0700
0200
ENDCHAR
STARTCHAR uni021A
ENCODING 538
SWIDTH 600 0
DWIDTH 19 0
BBX 17 30 1 -8
BITMAP
FFFF80
FFFF80
FFFF80
01C000
01C000
01C000
01C000
01C000
01C000
01C000
01C000
01C000
01C000
01C000
01C000
01C000
01C000
01C000
01C000
01C000
01C000
01C000
000000
01C000
01C000
01C000
01C000
018000
038000
010000
ENDCHAR
STARTCHAR uni021B
ENCODING 539
SWIDTH 600 0
DWIDTH 19 0
BBX 15 29 2 -8
BITMAP
0F00
0F00
0F00
0F00
FFFC
FFFC
FFFC
0F00
0F00
0F00
0F00
0F00
0F00
0F00
0F00
0F00
0F00
0F80
07FE
03FE
01FC
0000
01C0
01C0
01C0
01C0
01C0
0380
0080
ENDCHAR
STARTCHAR uni0237
ENCODING 567
SWIDTH 600 0
DWIDTH 19 0
BBX 10 23 3 -6
BITMAP
7FC0
7FC0
7FC0
03C0
03C0
03C0
03C0
03C0
03C0
03C0
03C0
03C0
03C0
03C0
03C0
03C0
03C0
03C0
03C0
07C0
FF80
FF00
FC00
ENDCHAR
STARTCHAR schwa
ENCODING 601
SWIDTH 600 0
DWIDTH 19 0
BBX 15 17 3 0
BITMAP
1FC0
7FF0
FFF8
6078
003C
001C
001E
FFFE
FFFE
FFFE
E01E
E03C
F03C
F878
7FF8
3FF0
0FC0
ENDCHAR
STARTCHAR uni02BC
ENCODING 700
SWIDTH 600 0
DWIDTH 19 0
BBX 5 9 7 15
BITMAP
38
38
38
38
78
70
70
E0
20
ENDCHAR
STARTCHAR circumflex
ENCODING 710
SWIDTH 600 0
DWIDTH 19 0
BBX 11 4 2 19
BITMAP
0E00
1F80
3BC0
F1E0
ENDCHAR
STARTCHAR caron
ENCODING 711
SWIDTH 600 0
DWIDTH 19 0
BBX 11 4 4 19
BITMAP
F1E0
3BC0
1F80
0E00
ENDCHAR
STARTCHAR macron.dup1
ENCODING 713
SWIDTH 600 0
DWIDTH 19 0
BBX 11 3 4 19
BITMAP
FFE0
FFE0
FFE0
ENDCHAR
STARTCHAR breve
ENCODING 728
SWIDTH 600 0
DWIDTH 19 0
BBX 10 4 5 18
BITMAP
E1C0
E380
7F80
3F00
ENDCHAR
STARTCHAR dotaccent
ENCODING 729
SWIDTH 600 0
DWIDTH 19 0
BBX 4 4 8 18
BITMAP
E0
F0
F0
E0
ENDCHAR
STARTCHAR ring
ENCODING 730
SWIDTH 600 0
DWIDTH 19 0
BBX 7 5 6 17
BITMAP
3C
66
C6
46
7C
ENDCHAR
STARTCHAR ogonek
ENCODING 731
SWIDTH 600 0
DWIDTH 19 0
BBX 6 8 6 -6
BITMAP
1C
38
60
E0
E0
FC
FC
7C
ENDCHAR
STARTCHAR tilde
ENCODING 732
SWIDTH 600 0
DWIDTH 19 0
BBX 11 4 2 19
BITMAP
3C60
7FE0
FFE0
C3C0
ENDCHAR
STARTCHAR hungarumlaut
ENCODING 733
SWIDTH 600 0
DWIDTH 19 0
BBX 13 4 3 19
BITMAP
1EF8
3DE0
39C0
F780
ENDCHAR
STARTCHAR uni02F3
ENCODING 755
SWIDTH 600 0
DWIDTH 19 0
BBX 5 4 7 -6
BITMAP
70
D8
98
F0
ENDCHAR
STARTCHAR gravecomb
ENCODING 768
SWIDTH 600 0
DWIDTH 19 0
BBX 5 5 -13 19
BITMAP
E0
70
70
38
18
ENDCHAR
STARTCHAR acutecomb
ENCODING 769
SWIDTH 600 0
DWIDTH 19 0
BBX 5 5 -10 19
BITMAP
38
70
70
E0
C0
ENDCHAR
STARTCHAR tildecomb
ENCODING 771
SWIDTH 600 0
DWIDTH 19 0
BBX 11 4 -14 19
BITMAP
3C60
7FE0
FFC0
C780
ENDCHAR
STARTCHAR hook
ENCODING 777
SWIDTH 600 0
DWIDTH 19 0
BBX 5 6 -11 19
BITMAP
E0
F8
38
38
F0
E0
ENDCHAR
STARTCHAR uni030F
ENCODING 783
SWIDTH 600 0
DWIDTH 19 0
BBX 13 4 -16 19
BITMAP
FBC0
3DE0
1EF0
0F78
ENDCHAR
STARTCHAR dotbelow
ENCODING 803
SWIDTH 600 0
DWIDTH 19 0
BBX 5 4 -12 -5
BITMAP
70
78
F8
70
ENDCHAR
STARTCHAR tonos
ENCODING 900
SWIDTH 600 0
DWIDTH 19 0
BBX 5 6 9 20
BITMAP
78
70
E0
E0
C0
C0
ENDCHAR
STARTCHAR dieresistonos
ENCODING 901
SWIDTH 600 0
DWIDTH 19 0
BBX 13 8 4 18
BITMAP
03C0
0380
0380
0700
7770
F0F0
F0F8
7070
ENDCHAR
STARTCHAR Alphatonos
ENCODING 902
SWIDTH 600 0
DWIDTH 19 0
BBX 18 26 1 0
BITMAP
3C0000
380000
380000
700000
71E000
61E000
03E000
03F000
03F000
07F000
07F800
077800
0F3800
0F3C00
0E3C00
1E1C00
1E1E00
1C1E00
3FFE00
3FFF00
3FFF00
780700
780780
700780
F00780
F003C0
ENDCHAR
STARTCHAR anoteleia
ENCODING 903
SWIDTH 600 0
DWIDTH 19 0
BBX 4 4 9 9
BITMAP
E0
F0
F0
E0
ENDCHAR
STARTCHAR Epsilontonos
ENCODING 904
SWIDTH 648 0
DWIDTH 21 0
BBX 20 26 -1 0
BITMAP
780000
700000
700000
E00000
E7FFF0
C7FFF0
07FFF0
078000
078000
078000
078000
078000
078000
07FFC0
07FFC0
07FFC0
078000
078000
078000
078000
078000
078000
078000
07FFF0
07FFF0
07FFF0
ENDCHAR
STARTCHAR Etatonos
ENCODING 905
SWIDTH 648 0
DWIDTH 21 0
BBX 20 26 -1 0
BITMAP
780000
700000
700000
600000
E700F0
C700F0
0700F0
0700F0
0700F0
0700F0
0700F0
0700F0
0700F0
07FFF0
07FFF0
07FFF0
0700F0
0700F0
0700F0
0700F0
0700F0
0700F0
0700F0
0700F0
0700F0
0700F0
ENDCHAR
STARTCHAR Iotatonos
ENCODING 906
SWIDTH 648 0
DWIDTH 21 0
BBX 19 26 -1 0
BITMAP
780000
700000
700000
600000
67FFE0
C7FFE0
07FFE0
003C00
003C00
003C00
003C00
003C00
003C00
003C00
003C00
003C00
003C00
003C00
003C00
003C00
003C00
003C00
003C00
07FFE0
07FFE0
07FFE0
ENDCHAR
STARTCHAR Omicrontonos
ENCODING 908
SWIDTH 609 0
DWIDTH 20 0
BBX 19 26 -1 0
BITMAP
780000
700000
700000
600000
E0FC00
C3FF00
07FF80
0F8780
0F03C0
1E01C0
1E01E0
1E01E0
1E01E0
1E01E0
1E01E0
1E01E0
1E01E0
1E01E0
1E01E0
1E01E0
1E01C0
0F03C0
0F8780
07FF80
03FF00
00FC00
ENDCHAR
STARTCHAR Upsilontonos
ENCODING 910
SWIDTH 648 0
DWIDTH 21 0
BBX 22 26 -2 0
BITMAP
780000
700000
700000
E00000
EF803C
C78078
03C078
03C0F0
01C0F0
01E0E0
00E1E0
00F1C0
0073C0
007B80
003F80
003F00
001F00
001E00
001E00
001E00
001E00
001E00
001E00
001E00
001E00
001E00
ENDCHAR
STARTCHAR Omegatonos
ENCODING 911
SWIDTH 609 0
DWIDTH 20 0
BBX 19 26 -1 0
BITMAP
780000
780000
700000
700000
60FC00
E3FF00
07FF80
0F87C0
0F03C0
1E01E0
1E01E0
1E01E0
1E01E0
1E01E0
1E01E0
1E01E0
1E01E0
1E01E0
0E01C0
0E03C0
070380
078780
03CF00
1FCFE0
1FCFE0
1FCFE0
ENDCHAR
STARTCHAR iotadieresistonos
ENCODING 912
SWIDTH 600 0
DWIDTH 19 0
BBX 14 25 3 0
BITMAP
03C0
03C0
0380
0380
7330
7878
7878
7030
FF80
FF80
FF80
0780
0780
0780
0780
0780
0780
0780
0780
0780
0780
0784
07FC
03FC
01F8
ENDCHAR
STARTCHAR Alpha
ENCODING 913
SWIDTH 600 0
DWIDTH 19 0
BBX 18 22 1 0
BITMAP
01E000
01E000
03E000
03F000
03F000
07F000
07F800
077800
0F3800
0F3C00
0E3C00
1E1C00
1E1E00
1C1E00
3FFE00
3FFF00
3FFF00
780700
780780
700780
F00780
F003C0
ENDCHAR
STARTCHAR Beta
ENCODING 914
SWIDTH 600 0
DWIDTH 19 0
BBX 16 22 2 0
BITMAP
FFE0
FFF8
FFFC
F03E
F01E
F00E
F00E
F01E
F03E
FFFC
FFF0
FFFC
F01E
F00F
F00F
F00F
F00F
F00F
F03E
FFFE
FFF8
FFF0
ENDCHAR
STARTCHAR Gamma
ENCODING 915
SWIDTH 600 0
DWIDTH 19 0
BBX 15 22 2 0
BITMAP
FFFE
FFFE
FFFE
F000
F000
F000
F000
F000
F000
F000
F000
F000
F000
F000
F000
F000
F000
F000
F000
F000
F000
F000
ENDCHAR
STARTCHAR Delta
ENCODING 916
SWIDTH 600 0
DWIDTH 19 0
BBX 18 22 1 0
BITMAP
01E000
01F000
01F000
03F000
03F800
07F800
07B800
073C00
0F3C00
0F1C00
0E1E00
1E1E00
1E0E00
1C0F00
3C0F00
3C0700
380780
780780
780780
FFFFC0
FFFFC0
FFFFC0
ENDCHAR
STARTCHAR Epsilon
ENCODING 917
SWIDTH 600 0
DWIDTH 19 0
BBX 14 22 3 0
BITMAP
FFFC
FFFC
FFFC
E000
E000
E000
E000
E000
E000
FFF8
FFF8
FFF8
E000
E000
E000
E000
E000
E000
E000
FFFC
FFFC
FFFC
ENDCHAR
STARTCHAR Zeta
ENCODING 918
SWIDTH 600 0
DWIDTH 19 0
BBX 15 22 2 0
BITMAP
FFFE
FFFE
FFFE
003C
003C
0078
00F0
00F0
01E0
03C0
03C0
0780
0F00
0F00
1E00
3C00
3C00
7800
F000
FFFE
FFFE
FFFE
ENDCHAR
STARTCHAR Eta
ENCODING 919
SWIDTH 600 0
DWIDTH 19 0
BBX 15 22 2 0
BITMAP
F01E
F01E
F01E
F01E
F01E
F01E
F01E
F01E
F01E
FFFE
FFFE
FFFE
F01E
F01E
F01E
F01E
F01E
F01E
F01E
F01E
F01E
F01E
ENDCHAR
STARTCHAR Theta
ENCODING 920
SWIDTH 600 0
DWIDTH 19 0
BBX 16 22 2 0
BITMAP
07E0
1FF0
3FF8
7C3C
781E
F01E
F00E
E00F
E00F
EFEF
EFEF
EFEF
E00F
E00F
E00F
F00E
F01E
781E
7C3C
3FF8
1FF0
07E0
ENDCHAR
STARTCHAR Iota
ENCODING 921
SWIDTH 600 0
DWIDTH 19 0
BBX 13 22 3 0
BITMAP
FFF8
FFF8
FFF8
0700
0700
0700
0700
0700
0700
0700
0700
0700
0700
0700
0700
0700
0700
0700
0700
FFF8
FFF8
FFF8
ENDCHAR
STARTCHAR Kappa
ENCODING 922
SWIDTH 600 0
DWIDTH 19 0
BBX 17 22 2 0
BITMAP
F00F80
F01F00
F03E00
F07C00
F07800
F0F000
F1F000
F3E000
F3C000
F78000
FF8000
FFC000
FDE000
FDE000
F8F000
F0F800
F07800
F03C00
F03E00
F01E00
F00F00
F00F80
ENDCHAR
STARTCHAR Lambda
ENCODING 923
SWIDTH 600 0
DWIDTH 19 0
BBX 18 22 1 0
BITMAP
01E000
03E000
03E000
03F000
07F000
077000
077800
0F7800
0E3800
0E3C00
1E3C00
1E1C00
1C1E00
3C1E00
3C0E00
380F00
780F00
780F00
700780
F00780
F00780
F003C0
ENDCHAR
STARTCHAR Mu
ENCODING 924
SWIDTH 600 0
DWIDTH 19 0
BBX 15 22 2 0
BITMAP
F81E
F83E
F83E
FC3E
FC7E
FC7E
EE7E
EEEE
EEEE
F7EE
F7CE
F7CE
F3CE
F38E
F38E
F00E
F00E
F00E
F00E
F00E
F00E
F00E
ENDCHAR
STARTCHAR Nu
ENCODING 925
SWIDTH 600 0
DWIDTH 19 0
BBX 15 22 2 0
BITMAP
F01E
F81E
F81E
FC1E
FC1E
FE1E
FE1E
FF1E
F71E
F71E
F39E
F39E
F1DE
F1DE
F0FE
F0FE
F07E
F07E
F03E
F03E
F01E
F01E
ENDCHAR
STARTCHAR Xi
ENCODING 926
SWIDTH 600 0
DWIDTH 19 0
BBX 15 22 2 0
BITMAP
FFFE
FFFE
FFFE
0000
0000
0000
0000
0000
0000
3FF8
3FF8
3FF8
0000
0000
0000
0000
0000
0000
0000
FFFE
FFFE
FFFE
ENDCHAR
STARTCHAR Omicron
ENCODING 927
SWIDTH 600 0
DWIDTH 19 0
BBX 17 22 1 0
BITMAP
03E000
0FF800
1FFC00
3E1E00
780F00
780F00
780700
700780
F00780
F00780
F00780
F00780
F00780
F00780
700780
780700
780F00
780F00
3E1E00
1FFC00
0FF800
03E000
ENDCHAR
STARTCHAR Pi
ENCODING 928
SWIDTH 600 0
DWIDTH 19 0
BBX 15 22 2 0
BITMAP
FFFE
FFFE
FFFE
F01E
F01E
F01E
F01E
F01E
F01E
F01E
F01E
F01E
F01E
F01E
F01E
F01E
F01E
F01E
F01E
F01E
F01E
F01E
ENDCHAR
STARTCHAR Rho
ENCODING 929
SWIDTH 600 0
DWIDTH 19 0
BBX 15 22 3 0
BITMAP
FFE0
FFF8
FFFC
E07C
E01E
E01E
E01E
E01E
E01E
E03C
FFFC
FFF8
FFE0
E000
E000
E000
E000
E000
E000
E000
E000
E000
ENDCHAR
STARTCHAR Sigma
ENCODING 931
SWIDTH 600 0
DWIDTH 19 0
BBX 16 22 2 0
BITMAP
FFFE
FFFE
FFFE
7800
3C00
3E00
1E00
0F00
0780
03C0
01E0
01E0
03C0
0780
0F00
1E00
3E00
3C00
7800
FFFF
FFFF
FFFF
ENDCHAR
STARTCHAR Tau
ENCODING 932
SWIDTH 600 0
DWIDTH 19 0
BBX 17 22 1 0
BITMAP
FFFF80
FFFF80
FFFF80
01C000
01C000
01C000
01C000
01C000
01C000
01C000
01C000
01C000
01C000
01C000
01C000
01C000
01C000
01C000
01C000
01C000
01C000
01C000
ENDCHAR
STARTCHAR Upsilon
ENCODING 933
SWIDTH 600 0
DWIDTH 19 0
BBX 18 22 1 0
BITMAP
F007C0
F80780
780F00
780F00
3C1E00
3C1E00
1E1C00
1E3C00
0F3800
0F7800
077000
07F000
03E000
03E000
01C000
01C000
01C000
01C000
01C000
01C000
01C000
01C000
ENDCHAR
STARTCHAR Phi
ENCODING 934
SWIDTH 600 0
DWIDTH 19 0
BBX 18 22 1 0
BITMAP
01E000
01E000
01E000
03F000
1FFE00
3FFF00
7DEF80
79E780
F1E3C0
F1E3C0
F1E3C0
F1E3C0
F1E3C0
F1E3C0
79E780
7DEF80
3FFF00
1FFE00
07F800
01E000
01E000
01E000
ENDCHAR
STARTCHAR Chi
ENCODING 935
SWIDTH 600 0
DWIDTH 19 0
BBX 18 22 1 0
BITMAP
F807C0
780F80
3C0F00
3C1F00
1E1E00
1E3C00
0F3C00
0F7800
07F800
03F000
03E000
03E000
03F000
07F800
0F7800
0F3C00
1E3C00
1E1E00
3C1F00
7C0F00
780780
F807C0
ENDCHAR
STARTCHAR Psi
ENCODING 936
SWIDTH 600 0
DWIDTH 19 0
BBX 18 22 1 0
BITMAP
F1E3C0
F1E3C0
F1E3C0
F1E3C0
F1E3C0
F1E3C0
F1E3C0
F1E3C0
F1E3C0
F1E3C0
F1E3C0
71E380
79E780
7DEF80
3FFF00
1FFE00
07F800
01E000
01E000
01E000
01E000
01E000
ENDCHAR
STARTCHAR Omega
ENCODING 937
SWIDTH 600 0
DWIDTH 19 0
BBX 17 22 1 0
BITMAP
03F000
0FF800
1FFC00
3E1E00
7C0F00
780F00
780780
700780
F00780
F00780
F00780
F00780
700780
780700
780F00
380F00
3C0E00
1C1C00
0F3800
7F3F80
7F3F80
7F3F80
ENDCHAR
STARTCHAR Iotadieresis
ENCODING 938
SWIDTH 600 0
DWIDTH 19 0
BBX 13 27 3 0
BITMAP
70E0
70F0
F0E0
70E0
0000
FFF8
FFF8
FFF8
0700
0700
0700
0700
0700
0700
0700
0700
0700
0700
0700
0700
0700
0700
0700
0700
FFF8
FFF8
FFF8
ENDCHAR
STARTCHAR Upsilondieresis
ENCODING 939
SWIDTH 600 0
DWIDTH 19 0
BBX 18 27 1 0
BITMAP
0C1800
1E3C00
1E3C00
0C1C00
000000
F007C0
F80780
780F00
780F00
3C1E00
3C1E00
1E1C00
1E3C00
0F3800
0F7800
077000
07F000
03E000
03E000
01C000
01C000
01C000
01C000
01C000
01C000
01C000
01C000
ENDCHAR
STARTCHAR alphatonos
ENCODING 940
SWIDTH 600 0
DWIDTH 19 0
BBX 16 26 2 0
BITMAP
00F0
01E0
01C0
01C0
0180
0180
0000
0000
0000
0F9C
3FDC
7FFC
787C
F03C
F03C
F03C
F03C
F03C
F03C
F03C
F03C
F03C
787C
7FFF
3FDF
0F8F
ENDCHAR
STARTCHAR epsilontonos
ENCODING 941
SWIDTH 600 0
DWIDTH 19 0
BBX 16 26 2 0
BITMAP
00F0
00E0
00E0
01C0
0180
0180
0000
0000
0000
0FF0
3FFC
7FFE
781E
F00F
F000
7800
3FF0
1FF0
7FF0
F800
F000
F00F
F81F
7FFE
3FFC
0FF0
ENDCHAR
STARTCHAR etatonos
ENCODING 942
SWIDTH 600 0
DWIDTH 19 0
BBX 15 32 2 -6
BITMAP
00F0
00E0
01C0
01C0
0180
0180
0000
0000
0000
F3F0
F7F8
FFFC
F83E
F01E
F01E
F01E
F01E
F01E
F01E
F01E
F01E
F01E
F01E
F01E
F01E
F01E
001E
001E
001E
001E
001E
001E
ENDCHAR
STARTCHAR iotatonos
ENCODING 943
SWIDTH 600 0
DWIDTH 19 0
BBX 14 26 3 0
BITMAP
01E0
03C0
0380
0380
0300
0300
0000
0000
0000
FF80
FF80
FF80
0780
0780
0780
0780
0780
0780
0780
0780
0780
0780
0784
07FC
03FC
01F8
ENDCHAR
STARTCHAR upsilondieresistonos
ENCODING 944
SWIDTH 600 0
DWIDTH 19 0
BBX 15 25 2 0
BITMAP
01E0
01C0
01C0
0380
3BB8
7878
787C
3838
F03C
F03C
F01C
F01E
F01E
F01E
F01E
F01E
F01E
F01E
F01E
F01E
783C
7C7C
3FF8
3FF0
0FE0
ENDCHAR
STARTCHAR alpha
ENCODING 945
SWIDTH 600 0
DWIDTH 19 0
BBX 16 17 2 0
BITMAP
0F9C
3FDC
7FFC
787C
F03C
F03C
F03C
F03C
F03C
F03C
F03C
F03C
F03C
787C
7FFF
3FDF
0F8F
ENDCHAR
STARTCHAR beta
ENCODING 946
SWIDTH 600 0
DWIDTH 19 0
BBX 15 28 3 -6
BITMAP
0FC0
3FF0
7FF8
F878
F03C
E03C
E03C
E03C
E078
E3F0
E3F0
E3F8
E07C
E01C
E01E
E01E
E01E
E01E
F07C
FFFC
FFF8
E7E0
E000
E000
E000
E000
E000
E000
ENDCHAR
STARTCHAR gamma
ENCODING 947
SWIDTH 600 0
DWIDTH 19 0
BBX 18 23 1 -6
BITMAP
F003C0
F00780
780780
780F00
3C0F00
3C0E00
1C1E00
1E1C00
0E3C00
0F3800
0F3800
077800
07F000
03F000
03E000
01E000
01E000
01E000
01E000
01E000
01E000
01E000
01E000
ENDCHAR
STARTCHAR delta
ENCODING 948
SWIDTH 600 0
DWIDTH 19 0
BBX 16 25 2 0
BITMAP
07E0
1FF8
1FF8
3C10
3C00
3C00
3E00
1F80
0FE0
07F8
1FFC
783C
701E
F01E
F00F
E00F
E00F
E00F
F00F
F00E
F81E
7C3E
3FFC
1FF8
07E0
ENDCHAR
STARTCHAR epsilon
ENCODING 949
SWIDTH 600 0
DWIDTH 19 0
BBX 16 17 2 0
BITMAP
0FF0
3FFC
7FFE
781E
F00F
F000
7800
3FF0
1FF0
7FF0
F800
F000
F00F
F81F
7FFE
3FFC
0FF0
ENDCHAR
STARTCHAR zeta
ENCODING 950
SWIDTH 600 0
DWIDTH 19 0
BBX 15 28 2 -6
BITMAP
FFFE
FFFE
FFFC
0078
00F0
01F0
03E0
07C0
0F80
1E00
1C00
3C00
7800
7000
F000
F000
F000
F000
F800
7F00
3FF0
1FF8
00FC
003C
003C
0038
0078
0030
ENDCHAR
STARTCHAR eta
ENCODING 951
SWIDTH 600 0
DWIDTH 19 0
BBX 15 23 2 -6
BITMAP
F3F0
F7F8
FFFC
F83E
F01E
F01E
F01E
F01E
F01E
F01E
F01E
F01E
F01E
F01E
F01E
F01E
F01E
001E
001E
001E
001E
001E
001E
ENDCHAR
STARTCHAR theta
ENCODING 952
SWIDTH 600 0
DWIDTH 19 0
BBX 14 22 3 0
BITMAP
0FC0
3FE0
7FF0
7878
F038
F038
F03C
F03C
F03C
FFFC
FFFC
FFFC
F03C
F03C
F03C
F03C
F03C
F078
7878
7FF0
3FE0
0FC0
ENDCHAR
STARTCHAR iota
ENCODING 953
SWIDTH 600 0
DWIDTH 19 0
BBX 14 17 3 0
BITMAP
FF80
FF80
FF80
0780
0780
0780
0780
0780
0780
0780
0780
0780
0780
0784
07FC
03FC
01F8
ENDCHAR
STARTCHAR kappa
ENCODING 954
SWIDTH 600 0
DWIDTH 19 0
BBX 15 17 3 0
BITMAP
E03E
E07C
E0F8
E1F0
E3E0
E7C0
EF80
EF80
FF80
FFC0
FBE0
F1E0
E0F0
E0F8
E07C
E03C
E03E
ENDCHAR
STARTCHAR lambda
ENCODING 955
SWIDTH 600 0
DWIDTH 19 0
BBX 17 24 1 0
BITMAP
780000
7E0000
7E0000
1F0000
0F0000
078000
078000
03C000
07C000
07C000
07E000
0FE000
0EE000
0EF000
1EF000
1E7800
3C7800
3C7800
3C3C00
783C00
781E00
781F80
F00F80
F00780
ENDCHAR
STARTCHAR uni03BC
ENCODING 956
SWIDTH 600 0
DWIDTH 19 0
BBX 14 23 3 -6
BITMAP
F03C
F03C
F03C
F03C
F03C
F03C
F03C
F03C
F03C
F03C
F03C
F03C
F03C
F87C
FFFC
FFFC
FFBC
F000
F000
F000
F000
F000
F000
ENDCHAR
STARTCHAR nu
ENCODING 957
SWIDTH 600 0
DWIDTH 19 0
BBX 17 17 1 0
BITMAP
F00780
780F00
780F00
380F00
3C1E00
3C1E00
1C1C00
1E3C00
0E3C00
0E3800
0F7800
077000
077000
03F000
03E000
03E000
01C000
ENDCHAR
STARTCHAR xi
ENCODING 958
SWIDTH 600 0
DWIDTH 19 0
BBX 14 28 3 -6
BITMAP
07F8
1FFC
3FF8
7C04
7800
7800
7800
3C00
1FF0
07F0
1FF0
7C00
F800
F000
F000
E000
F000
F000
F800
7F00
3FF0
0FFC
00FC
003C
001C
003C
0078
0030
ENDCHAR
STARTCHAR omicron
ENCODING 959
SWIDTH 600 0
DWIDTH 19 0
BBX 15 17 2 0
BITMAP
07E0
1FF0
3FF8
7C3C
F81E
F01E
F01E
F00E
E00E
E00E
F01E
F01E
F81E
7C3C
3FF8
1FF0
07E0
ENDCHAR
STARTCHAR pi
ENCODING 960
SWIDTH 600 0
DWIDTH 19 0
BBX 18 17 1 0
BITMAP
FFFF80
FFFF80
FFFF80
3C1E00
3C1E00
3C1E00
3C1E00
3C1E00
3C1E00
3C1E00
3C1E00
3C1E00
3C1E00
3C1E00
3C1FC0
3C0FC0
3C07C0
ENDCHAR
STARTCHAR rho
ENCODING 961
SWIDTH 600 0
DWIDTH 19 0
BBX 15 23 2 -6
BITMAP
07E0
1FF8
3FF8
7C3C
781E
701E
F01E
F00E
F00E
F00E
F01E
F01E
F01E
F83C
FFFC
FFF8
F3E0
F000
F000
F000
F000
F000
F000
ENDCHAR
STARTCHAR sigma1
ENCODING 962
SWIDTH 600 0
DWIDTH 19 0
BBX 15 24 2 -7
BITMAP
07E0
1FF8
3FFC
7C3C
F01E
F01E
F000
E000
E000
E000
E000
F000
F000
7C00
3FC0
1FF8
07FC
007C
001C
001C
003C
00F8
0070
0020
ENDCHAR
STARTCHAR sigma
ENCODING 963
SWIDTH 600 0
DWIDTH 19 0
BBX 17 17 1 0
BITMAP
07FF80
1FFF80
3FFF80
3C3C00
781C00
780E00
700E00
F00F00
F00F00
F00F00
700F00
780F00
781E00
3C3E00
3FFC00
1FF800
07E000
ENDCHAR
STARTCHAR tau
ENCODING 964
SWIDTH 600 0
DWIDTH 19 0
BBX 15 17 2 0
BITMAP
FFFC
FFFC
FFFC
0780
0780
0780
0780
0780
0780
0780
0780
0780
0780
03C4
03FC
01FE
00FC
ENDCHAR
STARTCHAR upsilon
ENCODING 965
SWIDTH 600 0
DWIDTH 19 0
BBX 15 17 2 0
BITMAP
F03C
F03C
F01C
F01E
F01E
F01E
F01E
F01E
F01E
F01E
F01E
F01E
783C
7C7C
3FF8
3FF0
0FE0
ENDCHAR
STARTCHAR phi
ENCODING 966
SWIDTH 600 0
DWIDTH 19 0
BBX 18 24 1 -7
BITMAP
087C00
1CFE00
3DFF00
7DE780
79E780
79E380
F1E380
F1E3C0
F1E3C0
F1E3C0
71E380
79E780
79E780
3DFF00
3FFE00
0FFC00
03F000
01E000
01E000
01E000
01E000
01E000
01E000
01E000
ENDCHAR
STARTCHAR chi
ENCODING 967
SWIDTH 600 0
DWIDTH 19 0
BBX 16 17 2 0
BITMAP
F01F
781E
7C3C
3C7C
1E78
0FF0
0FE0
07E0
03C0
07E0
0FF0
1FF0
1E78
3C3C
783C
781E
F00F
ENDCHAR
STARTCHAR psi
ENCODING 968
SWIDTH 600 0
DWIDTH 19 0
BBX 18 24 1 -7
BITMAP
F1E780
F1E780
F1E780
F1E380
F1E3C0
F1E3C0
F1E3C0
F1E3C0
F1E3C0
F1E3C0
F1E3C0
79E780
79E780
3DEF00
3FFF00
1FFE00
07F800
01E000
01E000
01E000
01E000
01E000
01E000
01E000
ENDCHAR
STARTCHAR omega
ENCODING 969
SWIDTH 600 0
DWIDTH 19 0
BBX 17 17 1 0
BITMAP
780F00
780700
780780
F00780
F1E780
F1E780
F1E380
F1E380
F1E380
F1E380
F1E380
F1E780
F3E780
73E780
7F7F00
3F7F00
1E1C00
ENDCHAR
STARTCHAR iotadieresis
ENCODING 970
SWIDTH 600 0
DWIDTH 19 0
BBX 14 22 3 0
BITMAP
3870
78F0
78F0
3870
0000
FF80
FF80
FF80
0780
0780
0780
0780
0780
0780
0780
0780
0780
0780
0784
07FC
03FC
01F8
ENDCHAR
STARTCHAR upsilondieresis
ENCODING 971
SWIDTH 600 0
DWIDTH 19 0
BBX 15 22 2 0
BITMAP
3870
3C78
3C78
3870
0000
F03C
F03C
F01C
F01E
F01E
F01E
F01E
F01E
F01E
F01E
F01E
F01E
783C
7C7C
3FF8
3FF0
0FE0
ENDCHAR
STARTCHAR omicrontonos
ENCODING 972
SWIDTH 600 0
DWIDTH 19 0
BBX 15 26 2 0
BITMAP
00E0
01E0
01C0
01C0
0180
0180
0000
0000
0000
07E0
1FF0
3FF8
7C3C
F81E
F01E
F01E
F00E
E00E
E00E
F01E
F01E
F81E
7C3C
3FF8
1FF0
07E0
ENDCHAR
STARTCHAR upsilontonos
ENCODING 973
SWIDTH 600 0
DWIDTH 19 0
BBX 15 26 2 0
BITMAP
01E0
01C0
01C0
0180
0380
0300
0000
0000
0000
F03C
F03C
F01C
F01E
F01E
F01E
F01E
F01E
F01E
F01E
F01E
F01E
783C
7C7C
3FF8
3FF0
0FE0
ENDCHAR
STARTCHAR omegatonos
ENCODING 974
SWIDTH 600 0
DWIDTH 19 0
BBX 17 26 1 0
BITMAP
007800
00F000
00E000
00E000
00C000
00C000
000000
000000
000000
780F00
780700
780780
F00780
F1E780
F1E780
F1E380
F1E380
F1E380
F1E380
F1E380
F1E780
F3E780
73E780
7F7F00
3F7F00
1E1C00
ENDCHAR
STARTCHAR uni03D1
ENCODING 977
SWIDTH 600 0
DWIDTH 19 0
BBX 17 22 2 0
BITMAP
01F000
07F800
0FFC00
0F3E00
0E1E00
0E1E00
0E1E00
0F1E00
0F1E00
07DE00
03FF80
F1FF80
F0FF80
F01E00
F01E00
F01E00
F01E00
783C00
7C3C00
3FF800
1FF000
07E000
ENDCHAR
STARTCHAR uni03D2
ENCODING 978
SWIDTH 600 0
DWIDTH 19 0
BBX 18 22 1 0
BITMAP
F003C0
F807C0
FC07C0
3C0F00
1E0E00
1E1E00
0E1C00
0F3C00
073C00
07B800
03F800
03F000
01F000
01E000
01E000
01E000
01E000
01E000
01E000
01E000
01E000
01E000
ENDCHAR
STARTCHAR uni03D6
ENCODING 982
SWIDTH 600 0
DWIDTH 19 0
BBX 19 17 0 0
BITMAP
FFFFE0
FFFFE0
FFFFE0
3C0780
3803C0
7803C0
78F3C0
78F3C0
78F3C0
78F1C0
78F1C0
78F1C0
79F3C0
79F3C0
3FBFC0
3FBF80
1F0F00
ENDCHAR
STARTCHAR uni0400
ENCODING 1024
SWIDTH 600 0
DWIDTH 19 0
BBX 14 27 3 0
BITMAP
7C00
1E00
0E00
0700
0000
FFFC
FFFC
FFFC
E000
E000
E000
E000
E000
E000
FFF8
FFF8
FFF8
E000
E000
E000
E000
E000
E000
E000
FFFC
FFFC
FFFC
ENDCHAR
STARTCHAR uni0401
ENCODING 1025
SWIDTH 600 0
DWIDTH 19 0
BBX 14 27 3 0
BITMAP
3870
78F0
7870
3870
0000
FFFC
FFFC
FFFC
E000
E000
E000
E000
E000
E000
FFF8
FFF8
FFF8
E000
E000
E000
E000
E000
E000
E000
FFFC
FFFC
FFFC
ENDCHAR
STARTCHAR uni0402
ENCODING 1026
SWIDTH 600 0
DWIDTH 19 0
BBX 17 22 1 0
BITMAP
FFFF00
FFFF00
FFFF00
070000
070000
070000
070000
070000
070000
07F800
07FE00
07FF00
070F80
070780
070780
070780
070780
070780
070F80
073F00
073E00
073C00
ENDCHAR
STARTCHAR uni0403
ENCODING 1027
SWIDTH 600 0
DWIDTH 19 0
BBX 15 27 2 0
BITMAP
0078
00F0
01E0
0380
0000
FFFE
FFFE
FFFE
F000
F000
F000
F000
F000
F000
F000
F000
F000
F000
F000
F000
F000
F000
F000
F000
F000
F000
F000
ENDCHAR
STARTCHAR uni0404
ENCODING 1028
SWIDTH 600 0
DWIDTH 19 0
BBX 16 22 2 0
BITMAP
07E0
1FF8
3FFC
7C3E
781E
F00F
F00F
F000
E000
FFF0
FFF0
FFF0
E000
E000
F000
F00F
F00F
781E
7C3E
3FFC
1FF8
07E0
ENDCHAR
STARTCHAR uni0405
ENCODING 1029
SWIDTH 600 0
DWIDTH 19 0
BBX 16 22 2 0
BITMAP
07E0
1FF8
3FFC
7C3E
F81F
F00F
F00F
F800
7C00
3F80
1FF0
07F8
00FC
003E
000F
E00F
F00F
F00F
7C1E
7FFE
1FFC
07F0
ENDCHAR
STARTCHAR uni0406
ENCODING 1030
SWIDTH 600 0
DWIDTH 19 0
BBX 13 22 3 0
BITMAP
FFF8
FFF8
FFF8
0700
0700
0700
0700
0700
0700
0700
0700
0700
0700
0700
0700
0700
0700
0700
0700
FFF8
FFF8
FFF8
ENDCHAR
STARTCHAR uni0407
ENCODING 1031
SWIDTH 600 0
DWIDTH 19 0
BBX 13 27 3 0
BITMAP
70E0
70F0
F0E0
70E0
0000
FFF8
FFF8
FFF8
0700
0700
0700
0700
0700
0700
0700
0700
0700
0700
0700
0700
0700
0700
0700
0700
FFF8
FFF8
FFF8
ENDCHAR
STARTCHAR uni0408
ENCODING 1032
SWIDTH 600 0
DWIDTH 19 0
BBX 15 22 2 0
BITMAP
001E
001E
001E
001E
001E
001E
001E
001E
001E
001E
001E
001E
001E
001E
001E
E01E
F01E
F03C
F87C
7FF8
3FF0
0FC0
ENDCHAR
STARTCHAR uni0409
ENCODING 1033
SWIDTH 600 0
DWIDTH 19 0
BBX 17 22 1 0
BITMAP
3FE000
3FE000
3FE000
38E000
38E000
38E000
38E000
38E000
38FC00
38FE00
38FF00
38E780
38E380
38E380
38E380
38E380
78E380
78E380
70E780
F0FF00
E0FE00
C0FC00
ENDCHAR
STARTCHAR uni040A
ENCODING 1034
SWIDTH 600 0
DWIDTH 19 0
BBX 16 22 2 0
BITMAP
E3C0
E3C0
E3C0
E3C0
E3C0
E3C0
E3C0
E3C0
E3F8
FFFC
FFFE
FFCE
E3CF
E3C7
E3C7
E3C7
E3C7
E3CF
E3CE
E3FE
E3FC
E3F8
ENDCHAR
STARTCHAR uni040B
ENCODING 1035
SWIDTH 600 0
DWIDTH 19 0
BBX 16 22 1 0
BITMAP
FFFF
FFFF
FFFF
0780
0780
0780
0780
0780
0780
07F8
07FC
07FE
078F
078F
0787
0787
0787
0787
0787
0787
0787
0787
ENDCHAR
STARTCHAR uni040C
ENCODING 1036
SWIDTH 600 0
DWIDTH 19 0
BBX 17 27 2 0
BITMAP
00F800
00E000
01C000
038000
000000
F00F80
F01F00
F03E00
F07C00
F07800
F0F000
F1F000
F3E000
F3C000
F78000
FF8000
FFC000
FDE000
FDE000
F8F000
F0F800
F07800
F03C00
F03E00
F01E00
F00F00
F00F80
ENDCHAR
STARTCHAR uni040D
ENCODING 1037
SWIDTH 600 0
DWIDTH 19 0
BBX 15 27 2 0
BITMAP
3C00
1E00
0F00
0780
0000
F01E
F03E
F03E
F07E
F07E
F0FE
F0FE
F1FE
F1DE
F3DE
F39E
F39E
F79E
F71E
FF1E
FE1E
FE1E
FC1E
FC1E
F81E
F81E
F01E
ENDCHAR
STARTCHAR uni040E
ENCODING 1038
SWIDTH 600 0
DWIDTH 19 0
BBX 19 28 0 0
BITMAP
070E00
078E00
03FC00
01F800
000000
000000
F801E0
7803C0
3C03C0
3C0780
1E0780
1E0780
0E0F00
0F0F00
071E00
079E00
03BC00
03FC00
03F800
01F800
01F000
00F000
00F000
01E000
03E000
3FC000
3F8000
7F0000
ENDCHAR
STARTCHAR uni040F
ENCODING 1039
SWIDTH 600 0
DWIDTH 19 0
BBX 15 27 2 -5
BITMAP
F01E
F01E
F01E
F01E
F01E
F01E
F01E
F01E
F01E
F01E
F01E
F01E
F01E
F01E
F01E
F01E
F01E
F01E
F01E
FFFE
FFFE
FFFE
0380
0380
0380
0380
0380
ENDCHAR
STARTCHAR uni0410
ENCODING 1040
SWIDTH 600 0
DWIDTH 19 0
BBX 18 22 1 0
BITMAP
01E000
01E000
03E000
03F000
03F000
07F000
07F800
077800
0F3800
0F3C00
0E3C00
1E1C00
1E1E00
1C1E00
3FFE00
3FFF00
3FFF00
780700
780780
700780
F00780
F003C0
ENDCHAR
STARTCHAR uni0411
ENCODING 1041
SWIDTH 600 0
DWIDTH 19 0
BBX 15 22 2 0
BITMAP
FFFE
FFFE
FFFE
F000
F000
F000
F000
F000
FFE0
FFF8
FFFC
F03E
F01E
F01E
F00E
F00E
F01E
F01E
F03E
FFFC
FFF8
FFE0
ENDCHAR
STARTCHAR uni0412
ENCODING 1042
SWIDTH 600 0
DWIDTH 19 0
BBX 16 22 2 0
BITMAP
FFE0
FFF8
FFFC
F03E
F01E
F00E
F00E
F01E
F03E
FFFC
FFF0
FFFC
F01E
F00F
F00F
F00F
F00F
F00F
F03E
FFFE
FFF8
FFF0
ENDCHAR
STARTCHAR uni0413
ENCODING 1043
SWIDTH 600 0
DWIDTH 19 0
BBX 15 22 2 0
BITMAP
FFFE
FFFE
FFFE
F000
F000
F000
F000
F000
F000
F000
F000
F000
F000
F000
F000
F000
F000
F000
F000
F000
F000
F000
ENDCHAR
STARTCHAR uni0414
ENCODING 1044
SWIDTH 600 0
DWIDTH 19 0
BBX 17 28 1 -6
BITMAP
0FFE00
0FFE00
0FFE00
0F1E00
0F1E00
0F1E00
0F1E00
0F1E00
0F1E00
0F1E00
0F1E00
0E1E00
0E1E00
1E1E00
1E1E00
1E1E00
1E1E00
3C1E00
7C1E00
FFFF80
FFFF80
FFFF80
F00780
F00780
F00780
F00780
F00780
F00780
ENDCHAR
STARTCHAR uni0415
ENCODING 1045
SWIDTH 600 0
DWIDTH 19 0
BBX 14 22 3 0
BITMAP
FFFC
FFFC
FFFC
E000
E000
E000
E000
E000
E000
FFF8
FFF8
FFF8
E000
E000
E000
E000
E000
E000
E000
FFFC
FFFC
FFFC
ENDCHAR
STARTCHAR uni0416
ENCODING 1046
SWIDTH 600 0
DWIDTH 19 0
BBX 19 22 0 0
BITMAP
78E3C0
78E3C0
78E3C0
3CE780
3CE780
1CE780
1CE700
1EEF00
0EEF00
0FFE00
0FFE00
0FFE00
1EEF00
1EEF00
1CE700
3CE780
3CE780
3CE380
78E3C0
78E3C0
78E3C0
F8E1E0
ENDCHAR
STARTCHAR uni0417
ENCODING 1047
SWIDTH 600 0
DWIDTH 19 0
BBX 17 22 1 0
BITMAP
07F000
1FFC00
3FFF00
7C1F00
780F80
700780
000780
000700
001F00
03FE00
03F800
03FE00
000F00
000780
000780
000780
F00780
780780
7C1F00
3FFF00
1FFC00
07F000
ENDCHAR
STARTCHAR uni0418
ENCODING 1048
SWIDTH 600 0
DWIDTH 19 0
BBX 15 22 2 0
BITMAP
F01E
F03E
F03E
F07E
F07E
F0FE
F0FE
F1FE
F1DE
F3DE
F39E
F39E
F79E
F71E
FF1E
FE1E
FE1E
FC1E
FC1E
F81E
F81E
F01E
ENDCHAR
STARTCHAR uni0419
ENCODING 1049
SWIDTH 600 0
DWIDTH 19 0
BBX 15 28 2 0
BITMAP
3870
1C70
1FF0
0FC0
0000
0000
F01E
F03E
F03E
F07E
F07E
F0FE
F0FE
F1FE
F1DE
F3DE
F39E
F39E
F79E
F71E
FF1E
FE1E
FE1E
FC1E
FC1E
F81E
F81E
F01E
ENDCHAR
STARTCHAR uni041A
ENCODING 1050
SWIDTH 600 0
DWIDTH 19 0
BBX 17 22 2 0
BITMAP
F00F80
F01E00
F03E00
F03C00
F07800
F0F800
F0F000
F1E000
F3C000
FFC000
FFC000
FFC000
F1E000
F1F000
F0F000
F07800
F07C00
F03C00
F03E00
F01E00
F00F00
F00F80
ENDCHAR
STARTCHAR uni041B
ENCODING 1051
SWIDTH 600 0
DWIDTH 19 0
BBX 16 22 1 0
BITMAP
1FFF
1FFF
1FFF
1E0F
1E0F
1E0F
1E0F
1E0F
1E0F
1E0F
1E0F
1E0F
1E0F
1E0F
1E0F
1C0F
1C0F
3C0F
3C0F
F80F
F00F
E00F
ENDCHAR
STARTCHAR uni041C
ENCODING 1052
SWIDTH 600 0
DWIDTH 19 0
BBX 15 22 2 0
BITMAP
F81E
F83E
F83E
FC3E
FC7E
FC7E
EE7E
EEEE
EEEE
F7EE
F7CE
F7CE
F3CE
F38E
F38E
F00E
F00E
F00E
F00E
F00E
F00E
F00E
ENDCHAR
STARTCHAR uni041D
ENCODING 1053
SWIDTH 600 0
DWIDTH 19 0
BBX 15 22 2 0
BITMAP
F01E
F01E
F01E
F01E
F01E
F01E
F01E
F01E
F01E
FFFE
FFFE
FFFE
F01E
F01E
F01E
F01E
F01E
F01E
F01E
F01E
F01E
F01E
ENDCHAR
STARTCHAR uni041E
ENCODING 1054
SWIDTH 600 0
DWIDTH 19 0
BBX 17 22 1 0
BITMAP
03E000
0FF800
1FFC00
3E1E00
780F00
780F00
780700
700780
F00780
F00780
F00780
F00780
F00780
F00780
700780
780700
780F00
780F00
3E1E00
1FFC00
0FF800
03E000
ENDCHAR
STARTCHAR uni041F
ENCODING 1055
SWIDTH 600 0
DWIDTH 19 0
BBX 15 22 2 0
BITMAP
FFFE
FFFE
FFFE
F01E
F01E
F01E
F01E
F01E
F01E
F01E
F01E
F01E
F01E
F01E
F01E
F01E
F01E
F01E
F01E
F01E
F01E
F01E
ENDCHAR
STARTCHAR uni0420
ENCODING 1056
SWIDTH 600 0
DWIDTH 19 0
BBX 15 22 3 0
BITMAP
FFE0
FFF8
FFFC
E07C
E01E
E01E
E01E
E01E
E01E
E03C
FFFC
FFF8
FFE0
E000
E000
E000
E000
E000
E000
E000
E000
E000
ENDCHAR
STARTCHAR uni0421
ENCODING 1057
SWIDTH 600 0
DWIDTH 19 0
BBX 17 22 1 0
BITMAP
03F000
0FFC00
1FFE00
3E1F00
7C0F00
780700
780780
700000
F00000
F00000
F00000
F00000
F00000
F00000
700000
780780
780700
780F00
3E1F00
1FFE00
0FFC00
03F000
ENDCHAR
STARTCHAR uni0422
ENCODING 1058
SWIDTH 600 0
DWIDTH 19 0
BBX 17 22 1 0
BITMAP
FFFF80
FFFF80
FFFF80
01C000
01C000
01C000
01C000
01C000
01C000
01C000
01C000
01C000
01C000
01C000
01C000
01C000
01C000
01C000
01C000
01C000
01C000
01C000
ENDCHAR
STARTCHAR uni0423
ENCODING 1059
SWIDTH 600 0
DWIDTH 19 0
BBX 19 22 0 0
BITMAP
F801E0
7803C0
3C03C0
3C0780
1E0780
1E0780
0E0F00
0F0F00
071E00
079E00
03BC00
03FC00
03F800
01F800
01F000
00F000
00F000
01E000
03E000
3FC000
3F8000
7F0000
ENDCHAR
STARTCHAR uni0424
ENCODING 1060
SWIDTH 600 0
DWIDTH 19 0
BBX 18 22 1 0
BITMAP
01E000
01E000
01E000
03F000
1FFE00
3FFF00
7DEF80
79E780
F1E3C0
F1E3C0
F1E3C0
F1E3C0
F1E3C0
F1E3C0
79E780
7DEF80
3FFF00
1FFE00
07F800
01E000
01E000
01E000
ENDCHAR
STARTCHAR uni0425
ENCODING 1061
SWIDTH 600 0
DWIDTH 19 0
BBX 18 22 1 0
BITMAP
F807C0
780F80
3C0F00
3C1F00
1E1E00
1E3C00
0F3C00
0F7800
07F800
03F000
03E000
03E000
03F000
07F800
0F7800
0F3C00
1E3C00
1E1E00
3C1F00
7C0F00
780780
F807C0
ENDCHAR
STARTCHAR uni0426
ENCODING 1062
SWIDTH 600 0
DWIDTH 19 0
BBX 17 27 2 -5
BITMAP
F01E00
F01E00
F01E00
F01E00
F01E00
F01E00
F01E00
F01E00
F01E00
F01E00
F01E00
F01E00
F01E00
F01E00
F01E00
F01E00
F01E00
F01E00
F01E00
FFFF80
FFFF80
FFFF80
000780
000780
000780
000780
000780
ENDCHAR
STARTCHAR uni0427
ENCODING 1063
SWIDTH 600 0
DWIDTH 19 0
BBX 14 22 3 0
BITMAP
E03C
E03C
E03C
E03C
E03C
E03C
E03C
E03C
E03C
F03C
F03C
7FFC
3FFC
1FFC
003C
003C
003C
003C
003C
003C
003C
003C
ENDCHAR
STARTCHAR uni0428
ENCODING 1064
SWIDTH 600 0
DWIDTH 19 0
BBX 16 22 2 0
BITMAP
E3CF
E3CF
E3CF
E3CF
E3CF
E3CF
E3CF
E3CF
E3CF
E3CF
E3CF
E3CF
E3CF
E3CF
E3CF
E3CF
E3CF
E3CF
E3CF
FFFF
FFFF
FFFF
ENDCHAR
STARTCHAR uni0429
ENCODING 1065
SWIDTH 600 0
DWIDTH 19 0
BBX 18 27 2 -5
BITMAP
E3CF00
E3CF00
E3CF00
E3CF00
E3CF00
E3CF00
E3CF00
E3CF00
E3CF00
E3CF00
E3CF00
E3CF00
E3CF00
E3CF00
E3CF00
E3CF00
E3CF00
E3CF00
E3CF00
FFFFC0
FFFF80
FFFF80
000380
000380
000380
000380
000380
ENDCHAR
STARTCHAR uni042A
ENCODING 1066
SWIDTH 600 0
DWIDTH 19 0
BBX 17 22 1 0
BITMAP
FF0000
FF0000
FF0000
0F0000
0F0000
0F0000
0F0000
0F0000
0F0000
0FF800
0FFE00
0FFF00
0F0F00
0F0780
0F0780
0F0780
0F0780
0F0780
0F0F00
0FFF00
0FFE00
0FF800
ENDCHAR
STARTCHAR uni042B
ENCODING 1067
SWIDTH 600 0
DWIDTH 19 0
BBX 16 22 2 0
BITMAP
E00F
E00F
E00F
E00F
E00F
E00F
E00F
E00F
E00F
FE0F
FF8F
FFCF
E3CF
E3CF
E1CF
E1EF
E1CF
E3CF
E3CF
FF8F
FF8F
FE0F
ENDCHAR
STARTCHAR uni042C
ENCODING 1068
SWIDTH 600 0
DWIDTH 19 0
BBX 15 22 2 0
BITMAP
F000
F000
F000
F000
F000
F000
F000
F000
FFE0
FFF8
FFFC
F03E
F01E
F01E
F00E
F00E
F01E
F01E
F03E
FFFC
FFF8
FFE0
ENDCHAR
STARTCHAR uni042D
ENCODING 1069
SWIDTH 600 0
DWIDTH 19 0
BBX 16 22 1 0
BITMAP
07E0
1FF8
3FFC
7C3E
781E
F00F
F00F
000F
000F
03FF
03FF
03FF
000F
000F
F00F
F00F
F00F
781E
7C3E
3FFC
1FF8
07E0
ENDCHAR
STARTCHAR uni042E
ENCODING 1070
SWIDTH 600 0
DWIDTH 19 0
BBX 16 22 2 0
BITMAP
E0F0
E3FC
E7FE
E79E
E70E
E70F
E70F
E70F
E70F
FF0F
FF0F
FF0F
E70F
E70F
E70F
E70F
E70F
E70E
E79E
E3FE
E3FC
E0F0
ENDCHAR
STARTCHAR uni042F
ENCODING 1071
SWIDTH 600 0
DWIDTH 19 0
BBX 17 22 0 0
BITMAP
03FF80
0FFF80
3FFF80
3E0780
7C0780
780780
780780
780780
3C0780
3E0780
1FFF80
0FFF80
07FF80
0F0780
0F0780
1E0780
1E0780
3C0780
3C0780
780780
780780
F00780
ENDCHAR
STARTCHAR uni0430
ENCODING 1072
SWIDTH 600 0
DWIDTH 19 0
BBX 15 17 2 0
BITMAP
0FC0
3FF0
7FF8
787C
F03C
001C
001C
0FFC
3FFC
781C
F01C
F01C
F03C
F87C
7FFC
3FFE
1F9E
ENDCHAR
STARTCHAR uni0431
ENCODING 1073
SWIDTH 600 0
DWIDTH 19 0
BBX 15 25 2 0
BITMAP
001C
001C
007C
07F8
0FF0
1FC0
3C00
7800
7000
73E0
EFF8
FFFC
FC3C
F01E
F01E
F00E
F00E
F00E
F01E
F01E
781E
7C3C
3FFC
1FF0
07E0
ENDCHAR
STARTCHAR uni0432
ENCODING 1074
SWIDTH 600 0
DWIDTH 19 0
BBX 15 17 2 0
BITMAP
FFE0
FFF8
FFFC
F03C
F03C
F03C
F03C
FFF8
FFF0
FFFC
F03E
F01E
F01E
F01E
FFFC
FFFC
FFF0
ENDCHAR
STARTCHAR uni0433
ENCODING 1075
SWIDTH 600 0
DWIDTH 19 0
BBX 14 17 3 0
BITMAP
FFFC
FFFC
FFFC
E000
E000
E000
E000
E000
E000
E000
E000
E000
E000
E000
E000
E000
E000
ENDCHAR
STARTCHAR uni0434
ENCODING 1076
SWIDTH 600 0
DWIDTH 19 0
BBX 18 22 1 -5
BITMAP
0FFF00
0FFF00
0FFF00
0F0F00
0F0F00
0F0F00
0F0F00
0E0F00
0E0F00
0E0F00
1E0F00
1E0F00
1E0F00
3C0F00
FFFFC0
FFFFC0
FFFFC0
E003C0
E003C0
E003C0
E003C0
E003C0
ENDCHAR
STARTCHAR uni0435
ENCODING 1077
SWIDTH 600 0
DWIDTH 19 0
BBX 15 17 2 0
BITMAP
07E0
1FF8
3FFC
7C3C
781E
F01E
F00E
FFFE
FFFE
FFFE
F000
F000
7804
7C1E
3FFE
1FF8
07F0
ENDCHAR
STARTCHAR uni0436
ENCODING 1078
SWIDTH 600 0
DWIDTH 19 0
BBX 19 17 0 0
BITMAP
78E3C0
78E3C0
3CE780
3CE780
1CE700
1EEF00
0EEE00
0FFE00
0FFE00
0FFE00
1EEF00
1CE700
3CE780
3CE780
38E380
78E3C0
F8E3E0
ENDCHAR
STARTCHAR uni0437
ENCODING 1079
SWIDTH 600 0
DWIDTH 19 0
BBX 15 17 2 0
BITMAP
0FE0
3FF8
7FFC
F83E
F01E
001E
003E
0FFC
0FF0
0FFC
001E
001E
F01E
F83E
7FFE
3FF8
0FE0
ENDCHAR
STARTCHAR uni0438
ENCODING 1080
SWIDTH 600 0
DWIDTH 19 0
BBX 15 17 2 0
BITMAP
F01E
F03E
F03E
F07E
F0FE
F0FE
F1DE
F3DE
F39E
F79E
F71E
FE1E
FE1E
FC1E
F81E
F81E
F01E
ENDCHAR
STARTCHAR uni0439
ENCODING 1081
SWIDTH 600 0
DWIDTH 19 0
BBX 15 23 2 0
BITMAP
3870
1C70
1FE0
0FC0
0000
0000
F01E
F03E
F03E
F07E
F0FE
F0FE
F1DE
F3DE
F39E
F79E
F71E
FE1E
FE1E
FC1E
F81E
F81E
F01E
ENDCHAR
STARTCHAR uni043A
ENCODING 1082
SWIDTH 600 0
DWIDTH 19 0
BBX 17 17 2 0
BITMAP
F01F00
F03E00
F03C00
F07800
F0F800
F1F000
F1E000
FFC000
FFC000
FFE000
F1E000
F0F000
F0F800
F07C00
F03E00
F01F00
F00F80
ENDCHAR
STARTCHAR uni043B
ENCODING 1083
SWIDTH 600 0
DWIDTH 19 0
BBX 16 17 1 0
BITMAP
1FFF
1FFF
1FFF
1E0F
1E0F
1E0F
1E0F
1E0F
1E0F
1E0F
1E0F
1C0F
3C0F
3C0F
F80F
F80F
E00F
ENDCHAR
STARTCHAR uni043C
ENCODING 1084
SWIDTH 600 0
DWIDTH 19 0
BBX 15 17 2 0
BITMAP
F83E
F83E
F83E
F83E
FC7E
FC7E
FC7E
FC6E
EEEE
EEEE
EEEE
E6CE
E7CE
E7CE
E78E
E38E
E38E
ENDCHAR
STARTCHAR uni043D
ENCODING 1085
SWIDTH 600 0
DWIDTH 19 0
BBX 15 17 2 0
BITMAP
F01E
F01E
F01E
F01E
F01E
F01E
F01E
FFFE
FFFE
FFFE
F01E
F01E
F01E
F01E
F01E
F01E
F01E
ENDCHAR
STARTCHAR uni043E
ENCODING 1086
SWIDTH 600 0
DWIDTH 19 0
BBX 15 17 2 0
BITMAP
07E0
1FF0
3FF8
7C3C
F81E
F01E
F01E
F00E
E00E
E00E
F01E
F01E
F81E
7C3C
3FF8
1FF0
07E0
ENDCHAR
STARTCHAR uni043F
ENCODING 1087
SWIDTH 600 0
DWIDTH 19 0
BBX 15 17 2 0
BITMAP
FFFE
FFFE
FFFE
F01E
F01E
F01E
F01E
F01E
F01E
F01E
F01E
F01E
F01E
F01E
F01E
F01E
F01E
ENDCHAR
STARTCHAR uni0440
ENCODING 1088
SWIDTH 600 0
DWIDTH 19 0
BBX 15 23 2 -6
BITMAP
F3E0
FFF8
FFFC
F87C
F03E
F01E
F01E
F01E
F01E
F01E
F01E
F01E
F03E
F87C
FFFC
FFF8
F3E0
F000
F000
F000
F000
F000
F000
ENDCHAR
STARTCHAR uni0441
ENCODING 1089
SWIDTH 600 0
DWIDTH 19 0
BBX 15 17 2 0
BITMAP
07E0
1FF8
3FFC
7C3C
781E
F01E
F000
F000
F000
F000
F000
F01E
781E
7C3C
3FFC
1FF8
07E0
ENDCHAR
STARTCHAR uni0442
ENCODING 1090
SWIDTH 600 0
DWIDTH 19 0
BBX 16 17 2 0
BITMAP
FFFF
FFFF
FFFF
03C0
03C0
03C0
03C0
03C0
03C0
03C0
03C0
03C0
03C0
03C0
03C0
03C0
03C0
ENDCHAR
STARTCHAR uni0443
ENCODING 1091
SWIDTH 600 0
DWIDTH 19 0
BBX 18 23 1 -6
BITMAP
F007C0
780780
780F80
3C0F00
3C0F00
3C1E00
1E1E00
1E3C00
0F3C00
0F3800
077800
07F000
03F000
03F000
01E000
01E000
01C000
03C000
038000
078000
3F0000
3E0000
3C0000
ENDCHAR
STARTCHAR uni0444
ENCODING 1092
SWIDTH 600 0
DWIDTH 19 0
BBX 17 30 1 -6
BITMAP
01C000
01C000
01C000
01C000
01C000
01C000
01C000
07F000
1FFC00
3FFE00
3DDF00
79CF00
79C700
F1C780
F1C780
F1C780
F1C780
F1C780
79C700
79CF00
3DDE00
3FFE00
0FFC00
07F000
01C000
01C000
01C000
01C000
01C000
01C000
ENDCHAR
STARTCHAR uni0445
ENCODING 1093
SWIDTH 600 0
DWIDTH 19 0
BBX 16 17 2 0
BITMAP
F01F
781E
7C3C
3C7C
1E78
0FF0
0FE0
07E0
03C0
07E0
0FF0
1FF0
1E78
3C3C
783C
781E
F00F
ENDCHAR
STARTCHAR uni0446
ENCODING 1094
SWIDTH 600 0
DWIDTH 19 0
BBX 17 22 2 -5
BITMAP
F01C00
F01C00
F01C00
F01C00
F01C00
F01C00
F01C00
F01C00
F01C00
F01C00
F01C00
F01C00
F01C00
F01C00
FFFF80
FFFF80
FFFF80
000780
000700
000700
000700
000700
ENDCHAR
STARTCHAR uni0447
ENCODING 1095
SWIDTH 600 0
DWIDTH 19 0
BBX 15 17 2 0
BITMAP
F01E
F01E
F01E
F01E
F01E
F01E
F01E
F01E
781E
7FFE
3FFE
0FFE
001E
001E
001E
001E
001E
ENDCHAR
STARTCHAR uni0448
ENCODING 1096
SWIDTH 600 0
DWIDTH 19 0
BBX 16 17 2 0
BITMAP
E38F
E38F
E38F
E38F
E38F
E38F
E38F
E38F
E38F
E38F
E38F
E38F
E38F
E38F
FFFF
FFFF
FFFF
ENDCHAR
STARTCHAR uni0449
ENCODING 1097
SWIDTH 600 0
DWIDTH 19 0
BBX 17 22 2 -5
BITMAP
E38E00
E38E00
E38E00
E38E00
E38E00
E38E00
E38E00
E38E00
E38E00
E38E00
E38E00
E38E00
E38E00
E38E00
FFFF80
FFFF80
FFFF80
000380
000380
000380
000380
000380
ENDCHAR
STARTCHAR uni044A
ENCODING 1098
SWIDTH 600 0
DWIDTH 19 0
BBX 17 17 1 0
BITMAP
FF0000
FF0000
FF0000
0F0000
0F0000
0F0000
0FFC00
0FFE00
0FFF00
0F0F80
0F0780
0F0780
0F0780
0F0F80
0FFF00
0FFE00
0FFC00
ENDCHAR
STARTCHAR uni044B
ENCODING 1099
SWIDTH 600 0
DWIDTH 19 0
BBX 16 17 2 0
BITMAP
F00F
F00F
F00F
F00F
F00F
F00F
FE0F
FF8F
FFCF
F3CF
F1CF
F1CF
F1CF
F3CF
FFCF
FF8F
FE0F
ENDCHAR
STARTCHAR uni044C
ENCODING 1100
SWIDTH 600 0
DWIDTH 19 0
BBX 16 17 2 0
BITMAP
F000
F000
F000
F000
F000
F000
FFF0
FFFC
FFFE
F01E
F00E
F00F
F00E
F01E
FFFE
FFFC
FFF0
ENDCHAR
STARTCHAR uni044D
ENCODING 1101
SWIDTH 600 0
DWIDTH 19 0
BBX 15 17 2 0
BITMAP
0FC0
3FF0
7FF8
F87C
F03C
E01E
001E
03FE
03FE
03FE
001E
E01E
F03C
F87C
7FF8
3FF0
0FC0
ENDCHAR
STARTCHAR uni044E
ENCODING 1102
SWIDTH 600 0
DWIDTH 19 0
BBX 17 17 1 0
BITMAP
F07C00
F0FE00
F1FF00
F3C780
F3C780
F38780
F38380
FF8380
FF8380
FF8380
F38380
F38780
F3C780
F3C780
F1FF00
F0FE00
F07C00
ENDCHAR
STARTCHAR uni044F
ENCODING 1103
SWIDTH 600 0
DWIDTH 19 0
BBX 16 17 1 0
BITMAP
07FF
1FFF
3FFF
7C0F
780F
780F
780F
7C0F
3FFF
1FFF
0FFF
1E0F
1E0F
3C0F
3C0F
780F
F00F
ENDCHAR
STARTCHAR uni0450
ENCODING 1104
SWIDTH 600 0
DWIDTH 19 0
BBX 15 22 2 0
BITMAP
3E00
0E00
0700
0380
0000
07E0
1FF8
3FFC
7C3C
781E
F01E
F00E
FFFE
FFFE
FFFE
F000
F000
7804
7C1E
3FFE
1FF8
07F0
ENDCHAR
STARTCHAR uni0451
ENCODING 1105
SWIDTH 600 0
DWIDTH 19 0
BBX 15 22 2 0
BITMAP
1830
3C78
3C78
1830
0000
07E0
1FF8
3FFC
7C3C
781E
F01E
F00E
FFFE
FFFE
FFFE
F000
F000
7804
7C1E
3FFE
1FF8
07F0
ENDCHAR
STARTCHAR uni0452
ENCODING 1106
SWIDTH 600 0
DWIDTH 19 0
BBX 18 30 -1 -6
BITMAP
1E0000
1E0000
FFE000
FFE000
FFE000
1E0000
1E0000
1E3E00
1EFF00
1FFF80
1F8780
1E03C0
1E03C0
1E03C0
1E03C0
1E03C0
1E03C0
1E03C0
1E03C0
1E03C0
1E03C0
1E03C0
1E03C0
1E03C0
0003C0
0003C0
0003C0
001F80
001F80
003E00
ENDCHAR
STARTCHAR uni0453
ENCODING 1107
SWIDTH 600 0
DWIDTH 19 0
BBX 14 22 3 0
BITMAP
00F0
01E0
03C0
0700
0000
FFFC
FFFC
FFFC
E000
E000
E000
E000
E000
E000
E000
E000
E000
E000
E000
E000
E000
E000
ENDCHAR
STARTCHAR uni0454
ENCODING 1108
SWIDTH 600 0
DWIDTH 19 0
BBX 15 17 2 0
BITMAP
07E0
1FF8
3FFC
7C3C
781E
F01E
F000
FF80
FF80
FF80
F000
F01E
781E
7C3C
3FFC
1FF8
07E0
ENDCHAR
STARTCHAR uni0455
ENCODING 1109
SWIDTH 600 0
DWIDTH 19 0
BBX 15 17 2 0
BITMAP
07E0
1FF8
3FFC
7C3E
781E
7800
7C00
3FC0
0FF8
03FC
003E
F01E
F01E
783E
7FFC
1FF8
07E0
ENDCHAR
STARTCHAR uni0456
ENCODING 1110
SWIDTH 600 0
DWIDTH 19 0
BBX 14 22 3 0
BITMAP
0380
0780
0780
0380
0000
FF80
FF80
FF80
0780
0780
0780
0780
0780
0780
0780
0780
0780
0780
0780
FFFC
FFFC
FFFC
ENDCHAR
STARTCHAR uni0457
ENCODING 1111
SWIDTH 600 0
DWIDTH 19 0
BBX 14 22 3 0
BITMAP
3830
3C78
3C78
3830
0000
FF80
FF80
FF80
0780
0780
0780
0780
0780
0780
0780
0780
0780
0780
0780
FFFC
FFFC
FFFC
ENDCHAR
STARTCHAR uni0458
ENCODING 1112
SWIDTH 600 0
DWIDTH 19 0
BBX 11 28 3 -6
BITMAP
01C0
03E0
03E0
01C0
0000
3FC0
3FC0
3FC0
01C0
01C0
01C0
01C0
01C0
01C0
01C0
01C0
01C0
01C0
01C0
01C0
01C0
01C0
01C0
03C0
07C0
7F80
FF00
FE00
ENDCHAR
STARTCHAR uni0459
ENCODING 1113
SWIDTH 600 0
DWIDTH 19 0
BBX 19 17 0 0
BITMAP
1FF800
1FF800
1FF800
1E7800
1E7800
1E7800
1E7F00
1E7F80
1E7FC0
1E7BE0
1E79E0
1C79E0
1C79E0
3C7BE0
F87FC0
F87F80
E07F00
ENDCHAR
STARTCHAR uni045A
ENCODING 1114
SWIDTH 600 0
DWIDTH 19 0
BBX 16 17 2 0
BITMAP
E3C0
E3C0
E3C0
E3C0
E3C0
E3C0
E3F8
FFFE
FFFF
FFCF
E3C7
E3C7
E3CF
E3CF
E3FF
E3FE
E3F8
ENDCHAR
STARTCHAR uni045B
ENCODING 1115
SWIDTH 600 0
DWIDTH 19 0
BBX 17 24 0 0
BITMAP
3C0000
3C0000
3C0000
FFE000
FFE000
FFE000
3C0000
3C7C00
3DFE00
3FFF00
3F0F80
3C0780
3C0780
3C0780
3C0780
3C0780
3C0780
3C0780
3C0780
3C0780
3C0780
3C0780
3C0780
3C0780
ENDCHAR
STARTCHAR uni045C
ENCODING 1116
SWIDTH 600 0
DWIDTH 19 0
BBX 17 22 2 0
BITMAP
00F000
01E000
03C000
070000
000000
F01F00
F03E00
F03C00
F07800
F0F800
F1F000
F1E000
FFC000
FFC000
FFE000
F1E000
F0F000
F0F800
F07C00
F03E00
F01F00
F00F80
ENDCHAR
STARTCHAR uni045D
ENCODING 1117
SWIDTH 600 0
DWIDTH 19 0
BBX 15 22 2 0
BITMAP
3C00
1E00
0F00
0780
0000
F01E
F03E
F03E
F07E
F0FE
F0FE
F1DE
F3DE
F39E
F79E
F71E
FE1E
FE1E
FC1E
F81E
F81E
F01E
ENDCHAR
STARTCHAR uni045E
ENCODING 1118
SWIDTH 600 0
DWIDTH 19 0
BBX 18 29 1 -6
BITMAP
0E1C00
0E1C00
07F800
03F000
000000
000000
F007C0
780780
780F80
3C0F00
3C0F00
3C1E00
1E1E00
1E3C00
0F3C00
0F3800
077800
07F000
03F000
03F000
01E000
01E000
01C000
03C000
038000
078000
3F0000
3E0000
3C0000
ENDCHAR
STARTCHAR uni045F
ENCODING 1119
SWIDTH 600 0
DWIDTH 19 0
BBX 15 22 2 -5
BITMAP
F01E
F01E
F01E
F01E
F01E
F01E
F01E
F01E
F01E
F01E
F01E
F01E
F01E
F01E
FFFE
FFFE
FFFE
0380
0380
0380
0380
0380
ENDCHAR
STARTCHAR uni0460
ENCODING 1120
SWIDTH 600 0
DWIDTH 19 0
BBX 17 22 1 0
BITMAP
F1E380
F1E380
F1E380
F1E380
F1E380
F1E380
F1E380
F1E380
F1E380
F1E380
F1E380
F1E380
F1E380
F1E380
F1E380
F1E380
F1E380
F1E380
73E780
7FFF80
3F7F00
1E3E00
ENDCHAR
STARTCHAR uni0461
ENCODING 1121
SWIDTH 600 0
DWIDTH 19 0
BBX 17 17 1 0
BITMAP
F1E780
F1E780
F1E780
F1E780
F1E780
F1E780
F1E780
F1E780
F1E780
F1E780
F1E780
F1E780
F1E780
73E780
7FFF00
3F7F00
1E3C00
ENDCHAR
STARTCHAR uni0462
ENCODING 1122
SWIDTH 600 0
DWIDTH 19 0
BBX 18 22 -1 0
BITMAP
1E0000
1E0000
FFE000
FFE000
FFE000
1E0000
1E0000
1E0000
1FFC00
1FFF00
1FFF80
1E07C0
1E03C0
1E03C0
1E01C0
1E01C0
1E03C0
1E03C0
1E07C0
1FFF80
1FFF00
1FFC00
ENDCHAR
STARTCHAR uni0463
ENCODING 1123
SWIDTH 600 0
DWIDTH 19 0
BBX 17 24 0 0
BITMAP
1E0000
1E0000
1E0000
1E0000
1E0000
FFF000
FFF000
FFF000
1E0000
1E0000
1E0000
1E0000
1E0000
1FFC00
1FFF00
1FFF80
1E0780
1E0380
1E0380
1E0380
1E0780
1FFF80
1FFF00
1FFC00
ENDCHAR
STARTCHAR uni0464
ENCODING 1124
SWIDTH 600 0
DWIDTH 19 0
BBX 17 22 1 0
BITMAP
F03C00
F0FF00
F1FF80
F1E780
F3C380
F3C380
F3C380
F3C000
F3C000
FFF800
FFF800
FFF800
F3C000
F3C000
F3C000
F3C380
F3C380
F3C380
F1E780
F1FF00
F0FF00
F07C00
ENDCHAR
STARTCHAR uni0465
ENCODING 1125
SWIDTH 600 0
DWIDTH 19 0
BBX 16 17 2 0
BITMAP
E07C
E1FE
E3FF
E3CF
E387
E787
E780
FFF8
FFF8
FFF8
E780
E780
E387
E3CF
E3FF
E1FE
E078
ENDCHAR
STARTCHAR uni0466
ENCODING 1126
SWIDTH 600 0
DWIDTH 19 0
BBX 19 22 0 0
BITMAP
00F000
00F000
01F800
01F800
01F800
03FC00
03BC00
079C00
079E00
070E00
0F0E00
0F0F00
0FFF00
1FFF00
1FFF80
1CF380
3CF3C0
3CF3C0
38F3C0
78F1E0
78F1E0
F0F1E0
ENDCHAR
STARTCHAR uni0467
ENCODING 1127
SWIDTH 600 0
DWIDTH 19 0
BBX 17 17 1 0
BITMAP
01E000
03E000
03F000
03F000
07F000
077800
0F3800
0F3C00
0E3C00
1E1C00
1FFE00
3FFE00
3FFF00
39CF00
79C700
79C780
F1C780
ENDCHAR
STARTCHAR uni0468
ENCODING 1128
SWIDTH 600 0
DWIDTH 19 0
BBX 18 22 1 0
BITMAP
F03800
F07800
F07C00
F07C00
F07C00
F0FC00
F0EC00
F0EE00
F0EE00
F1CE00
F1CE00
F1C700
FFFF00
FFFF00
FFFF00
F3BF00
F3BB80
F7BB80
F7BB80
F73B80
F73BC0
FF3BC0
ENDCHAR
STARTCHAR uni0469
ENCODING 1129
SWIDTH 600 0
DWIDTH 19 0
BBX 18 17 1 0
BITMAP
F03800
F07800
F07C00
F07C00
F0FC00
F0FE00
F0EE00
F1EE00
F1CE00
F1C700
FFFF00
FFFF00
FFFF80
F3BB80
F7BB80
F73BC0
FF3BC0
ENDCHAR
STARTCHAR uni046A
ENCODING 1130
SWIDTH 600 0
DWIDTH 19 0
BBX 18 22 1 0
BITMAP
FFFF80
7FFF00
3FFF00
3C1E00
1E1E00
1E3C00
0F3C00
0F3800
07F800
07F000
1FFE00
7FFF00
7FFF80
F1E780
F1E380
F1E3C0
F1E3C0
F1E3C0
F1E3C0
F1E3C0
F1E3C0
F1E3C0
ENDCHAR
STARTCHAR uni046B
ENCODING 1131
SWIDTH 600 0
DWIDTH 19 0
BBX 17 17 1 0
BITMAP
7FFF00
3FFF00
3FFE00
1C1C00
1E3C00
0F3800
0F7800
07F000
3FFE00
7FFF00
7DDF00
F1C700
F1C780
F1C780
F1C780
F1C780
F1C780
ENDCHAR
STARTCHAR uni046C
ENCODING 1132
SWIDTH 600 0
DWIDTH 19 0
BBX 18 22 1 0
BITMAP
E7FF80
E3FF80
E3FF00
E3C700
E1CF00
E1CE00
E0EE00
E0FE00
E0FC00
E07C00
FFFE00
FFFF80
FFFF80
E73BC0
E739C0
E739C0
E739C0
E739C0
E739C0
E739C0
E739C0
E739C0
ENDCHAR
STARTCHAR uni046D
ENCODING 1133
SWIDTH 600 0
DWIDTH 19 0
BBX 18 17 1 0
BITMAP
E7FF80
E3FF80
E3FF00
E1C700
E1CF00
E0EE00
E0EE00
E0FC00
FFFF00
FFFF80
FFFF80
E73BC0
E739C0
E739C0
E739C0
E739C0
E739C0
ENDCHAR
STARTCHAR uni046E
ENCODING 1134
SWIDTH 600 0
DWIDTH 19 0
BBX 14 37 3 -7
BITMAP
F1E0
7BC0
3F80
1F00
0E00
0000
0000
0000
7F80
7FE0
7FF0
00F8
0078
0078
0078
0078
00F0
1FE0
1FC0
1FF0
00F8
0078
003C
003C
003C
0078
00F8
3FF0
7FE0
FF80
F000
E000
E000
F000
7C00
3800
0800
ENDCHAR
STARTCHAR uni046F
ENCODING 1135
SWIDTH 600 0
DWIDTH 19 0
BBX 13 31 3 -7
BITMAP
70F0
39C0
1F80
0F00
0000
0000
0000
7F80
7FE0
7FF0
00F8
0078
0078
00F0
1FF0
1FC0
1FF0
0078
0038
0038
0078
1FF8
7FF0
FFC0
F000
F000
F000
7000
7C00
1800
0800
ENDCHAR
STARTCHAR uni0470
ENCODING 1136
SWIDTH 600 0
DWIDTH 19 0
BBX 18 22 1 0
BITMAP
F1E3C0
F1E3C0
F1E3C0
F1E3C0
F1E3C0
F1E3C0
F1E3C0
F1E3C0
F1E3C0
F1E3C0
F1E3C0
71E380
79E780
7DEF80
3FFF00
1FFE00
07F800
01E000
01E000
01E000
01E000
01E000
ENDCHAR
STARTCHAR uni0471
ENCODING 1137
SWIDTH 600 0
DWIDTH 19 0
BBX 18 24 1 -7
BITMAP
F1E780
F1E780
F1E780
F1E380
F1E3C0
F1E3C0
F1E3C0
F1E3C0
F1E3C0
F1E3C0
F1E3C0
79E780
79E780
3DEF00
3FFF00
1FFE00
07F800
01E000
01E000
01E000
01E000
01E000
01E000
01E000
ENDCHAR
STARTCHAR uni0472
ENCODING 1138
SWIDTH 600 0
DWIDTH 19 0
BBX 17 22 1 0
BITMAP
03E000
0FF800
1FFC00
3C1E00
780F00
780F00
700700
F00700
F00780
FFFF80
FFFF80
FFFF80
F00780
F00780
700780
780F00
780F00
781F00
3E3E00
1FFC00
0FF800
07E000
ENDCHAR
STARTCHAR uni0473
ENCODING 1139
SWIDTH 600 0
DWIDTH 19 0
BBX 16 17 1 0
BITMAP
07E0
1FF8
3FFC
3C3E
781E
780F
700F
FFFF
FFFF
FFFF
700F
780F
781E
3C3E
3FFC
1FF8
07E0
ENDCHAR
STARTCHAR uni0474
ENCODING 1140
SWIDTH 600 0
DWIDTH 19 0
BBX 20 22 0 0
BITMAP
F80070
7800F0
7801F0
7C03C0
3C03C0
3C0380
1C0780
1E0780
1E0700
0E0F00
0F0F00
0F0E00
071E00
079E00
079C00
039C00
03FC00
03F800
01F800
01F800
00F000
00F000
ENDCHAR
STARTCHAR uni0475
ENCODING 1141
SWIDTH 600 0
DWIDTH 19 0
BBX 17 17 1 0
BITMAP
F00780
700F80
781F00
781E00
383C00
3C3C00
3C3800
1C7800
1E7800
0E7000
0EF000
0FE000
07E000
07E000
07C000
03C000
03C000
ENDCHAR
STARTCHAR uni0476
ENCODING 1142
SWIDTH 600 0
DWIDTH 19 0
BBX 20 29 0 0
BITMAP
7DE000
1EF000
0F7800
07BC00
000000
000000
000000
F80070
7800F0
7801F0
7C03C0
3C03C0
3C0380
1C0780
1E0780
1E0700
0E0F00
0F0F00
0F0E00
071E00
079E00
079C00
039C00
03FC00
03F800
01F800
01F800
00F000
00F000
ENDCHAR
STARTCHAR uni0477
ENCODING 1143
SWIDTH 600 0
DWIDTH 19 0
BBX 17 24 1 0
BITMAP
F3C000
39C000
1CE000
0F7000
000000
000000
000000
F00780
700F80
781F00
781E00
383C00
3C3C00
3C3800
1C7800
1E7800
0E7000
0EF000
0FE000
07E000
07E000
07C000
03C000
03C000
ENDCHAR
STARTCHAR uni0478
ENCODING 1144
SWIDTH 600 0
DWIDTH 19 0
BBX 18 28 1 -6
BITMAP
1C0000
3F0000
7F0000
778000
E38000
E3B9C0
E3B9C0
E3B9C0
E39980
E39B80
E39B80
E39F80
E39F80
E39F00
E39F00
E38F00
E38F00
E38F00
678E00
7F0E00
3F0E00
1E0E00
000E00
000C00
000C00
007C00
007800
007000
ENDCHAR
STARTCHAR uni0479
ENCODING 1145
SWIDTH 600 0
DWIDTH 19 0
BBX 18 23 1 -6
BITMAP
1E39C0
3F39C0
7FB9C0
F39980
E1DB80
E1DB80
E1DF80
E1DF80
E1DF00
E1DF00
E1CF00
E1CF00
E1CF00
738E00
7F8E00
3F0E00
1E0E00
000E00
000C00
000C00
007C00
007800
007000
ENDCHAR
STARTCHAR uni047A
ENCODING 1146
SWIDTH 600 0
DWIDTH 19 0
BBX 17 27 1 -2
BITMAP
01C000
01C000
01C000
03E000
0FF800
1FFC00
3FDE00
79CF00
780F00
780700
700780
F00780
F00780
F00780
F00780
F00780
F00780
700780
780700
780F00
79CF00
3FDE00
1FFC00
0FF800
03E000
01C000
01C000
ENDCHAR
STARTCHAR uni047B
ENCODING 1147
SWIDTH 600 0
DWIDTH 19 0
BBX 15 21 2 -2
BITMAP
0380
0380
07E0
1FF0
3FF8
7FBC
FB9E
F01E
F01E
F00E
E00E
E00E
F01E
F01E
F39E
7FBC
3FF8
1FF0
07E0
0380
0380
ENDCHAR
STARTCHAR uni047C
ENCODING 1148
SWIDTH 600 0
DWIDTH 19 0
BBX 18 29 1 0
BITMAP
03C000
07F000
0E7E00
0C0E00
00E000
00E000
00C000
1CCE00
3D8F00
7C0F80
F807C0
F003C0
F003C0
F003C0
F003C0
F003C0
F003C0
F1E3C0
F1E3C0
F1E3C0
F1E3C0
F1E3C0
F1E3C0
F1E3C0
F1E3C0
F1E3C0
7FFF80
7FFF80
1F3E00
ENDCHAR
STARTCHAR uni047D
ENCODING 1149
SWIDTH 600 0
DWIDTH 19 0
BBX 17 22 1 0
BITMAP
07FE00
0FFE00
00E000
00E000
00C000
0CCC00
3DCF00
7C8F00
780780
700780
F00380
F00380
F00380
F1C380
F1C380
F1C380
F1C380
F1E780
71E780
7FFF80
3F7F00
1E3C00
ENDCHAR
STARTCHAR uni047E
ENCODING 1150
SWIDTH 600 0
DWIDTH 19 0
BBX 17 28 1 0
BITMAP
1FFE00
1FFE00
01C000
01C000
000000
000000
F1E380
F1E380
F1E380
F1E380
F1E380
F1E380
F1E380
F1E380
F1E380
F1E380
F1E380
F1E380
F1E380
F1E380
F1E380
F1E380
F1E380
71E380
79E780
7FFF80
3FFF00
1F3E00
ENDCHAR
STARTCHAR uni047F
ENCODING 1151
SWIDTH 600 0
DWIDTH 19 0
BBX 17 22 1 0
BITMAP
1FFE00
1FFE00
01C000
000000
000000
F1E780
F1E780
F1E780
F1E780
F1E780
F1E780
F1E780
F1E780
F1E780
F1E780
F1E780
F1E780
F1E780
73E780
7FFF00
3F7F00
1E3C00
ENDCHAR
STARTCHAR uni0480
ENCODING 1152
SWIDTH 600 0
DWIDTH 19 0
BBX 15 28 2 -6
BITMAP
07E0
1FF8
3FFC
3C3E
781E
781E
F00E
F00E
F000
F000
F000
F000
F000
F000
F000
F000
F000
7800
7800
3E00
1FE0
0FE0
03E0
01E0
01E0
01E0
01E0
01E0
ENDCHAR
STARTCHAR uni0481
ENCODING 1153
SWIDTH 600 0
DWIDTH 19 0
BBX 14 23 3 -6
BITMAP
07C0
1FF0
3FF8
7C7C
783C
F01C
F000
F000
F000
F000
F000
F000
F000
7800
7C00
3FC0
1FC0
07C0
03C0
03C0
03C0
03C0
03C0
ENDCHAR
STARTCHAR uni0482
ENCODING 1154
SWIDTH 600 0
DWIDTH 19 0
BBX 16 21 2 0
BITMAP
0006
000E
001C
041C
0F38
07F0
01F0
00F8
00FE
01CF
81C3
E380
FB00
3F00
1F00
0FC0
1DE0
1870
3820
3000
7000
ENDCHAR
STARTCHAR uni0483
ENCODING 1155
SWIDTH 0 0
DWIDTH 0 0
BBX 11 6 -4 18
BITMAP
00E0
0060
FFE0
FFE0
E000
E000
ENDCHAR
STARTCHAR uni0484
ENCODING 1156
SWIDTH 0 0
DWIDTH 0 0
BBX 12 4 -4 20
BITMAP
03C0
1FE0
FC70
F030
ENDCHAR
STARTCHAR uni0485
ENCODING 1157
SWIDTH 0 0
DWIDTH 0 0
BBX 3 5 0 20
BITMAP
E0
E0
E0
60
20
ENDCHAR
STARTCHAR uni0486
ENCODING 1158
SWIDTH 0 0
DWIDTH 0 0
BBX 4 5 0 20
BITMAP
70
70
70
E0
40
ENDCHAR
STARTCHAR uni0488
ENCODING 1160
SWIDTH 0 0
DWIDTH 0 0
BBX 30 27 -13 -5
BITMAP
00078000
000CC000
0018C000
00000000
0F0003C0
19800660
11800620
00000000
00000000
00000000
00000000
00000000
78000078
CC0000CC
C400008C
00000000
00000000
00000000
00000000
00000000
0F0003C0
19800660
31800460
00000000
00078000
000CC000
0008C000
ENDCHAR
STARTCHAR uni0489
ENCODING 1161
SWIDTH 0 0
DWIDTH 0 0
BBX 29 28 -12 -6
BITMAP
00010000
00030000
00030000
04070000
04060080
060001C0
03000780
03800E00
01000400
00000000
00000000
00000000
80000100
F80000E0
3C0000F8
0C000018
00000000
00000000
00000000
00000000
01000600
03800600
07000300
1C030300
00030180
00020100
00060000
00060000
ENDCHAR
STARTCHAR uni048A
ENCODING 1162
SWIDTH 600 0
DWIDTH 19 0
BBX 18 33 2 -5
BITMAP
387000
1C7000
1FF000
0FC000
000000
000000
F01E00
F03E00
F03E00
F07E00
F07E00
F0FE00
F0FE00
F1FE00
F1DE00
F3DE00
F39E00
F39E00
F79E00
F71E00
FF1E00
FE1E00
FE1E00
FC1E00
FC1FC0
F81FC0
F81FC0
F01FC0
0003C0
0003C0
000380
000780
000700
ENDCHAR
STARTCHAR uni048B
ENCODING 1163
SWIDTH 600 0
DWIDTH 19 0
BBX 18 28 2 -5
BITMAP
387000
1C7000
1FE000
0FC000
000000
000000
F01E00
F03E00
F03E00
F07E00
F0FE00
F0FE00
F1DE00
F3DE00
F39E00
F79E00
F71E00
FE1E00
FE1E00
FC1FC0
F81FC0
F81FC0
F01FC0
0003C0
0003C0
000380
000780
000700
ENDCHAR
STARTCHAR uni048C
ENCODING 1164
SWIDTH 600 0
DWIDTH 19 0
BBX 18 22 -1 0
BITMAP
1E0000
1E0000
FFE000
FFE000
FFE000
1E0000
1E0000
1E0000
1FFC00
1FFF00
1FFF80
1E07C0
1E03C0
1E03C0
1E01C0
1E01C0
1E03C0
1E03C0
1E07C0
1FFF80
1FFF00
1FFC00
ENDCHAR
STARTCHAR uni048D
ENCODING 1165
SWIDTH 600 0
DWIDTH 19 0
BBX 18 17 0 0
BITMAP
3C0000
3C0000
FFE000
FFE000
FFE000
3C0000
3FFC00
3FFF00
3FFF80
3C0780
3C0380
3C03C0
3C0380
3C0780
3FFF80
3FFF00
3FFC00
ENDCHAR
STARTCHAR uni048E
ENCODING 1166
SWIDTH 600 0
DWIDTH 19 0
BBX 15 22 3 0
BITMAP
FFE0
FFF8
FFFC
E07C
E01E
E01E
E01E
E11E
E39E
E1FC
FFFC
FFF8
FFF0
E038
E01C
E00C
E000
E000
E000
E000
E000
E000
ENDCHAR
STARTCHAR uni048F
ENCODING 1167
SWIDTH 600 0
DWIDTH 19 0
BBX 15 23 2 -6
BITMAP
F3E0
FFF8
FFFC
F87C
F03E
F01E
F01E
F01E
F01E
F01E
F09E
F1DE
F0FE
F87C
FFFC
FFFC
F3EE
F004
F000
F000
F000
F000
F000
ENDCHAR
STARTCHAR uni0490
ENCODING 1168
SWIDTH 600 0
DWIDTH 19 0
BBX 14 28 3 0
BITMAP
001C
001C
001C
001C
001C
001C
FFFC
FFFC
FFFC
E000
E000
E000
E000
E000
E000
E000
E000
E000
E000
E000
E000
E000
E000
E000
E000
E000
E000
E000
ENDCHAR
STARTCHAR uni0491
ENCODING 1169
SWIDTH 600 0
DWIDTH 19 0
BBX 14 22 3 0
BITMAP
003C
003C
003C
003C
003C
FFFC
FFFC
FFFC
E000
E000
E000
E000
E000
E000
E000
E000
E000
E000
E000
E000
E000
E000
ENDCHAR
STARTCHAR uni0492
ENCODING 1170
SWIDTH 600 0
DWIDTH 19 0
BBX 17 22 0 0
BITMAP
3FFF80
3FFF80
3FFF80
3C0000
3C0000
3C0000
3C0000
3C0000
3C0000
FFC000
FFC000
FFC000
3C0000
3C0000
3C0000
3C0000
3C0000
3C0000
3C0000
3C0000
3C0000
3C0000
ENDCHAR
STARTCHAR uni0493
ENCODING 1171
SWIDTH 600 0
DWIDTH 19 0
BBX 17 17 0 0
BITMAP
1FFF80
1FFF80
1FFF80
1C0000
1C0000
1C0000
1C0000
FFC000
FFC000
FFC000
1C0000
1C0000
1C0000
1C0000
1C0000
1C0000
1C0000
ENDCHAR
STARTCHAR uni0494
ENCODING 1172
SWIDTH 600 0
DWIDTH 19 0
BBX 16 27 2 -5
BITMAP
FFFE
FFFE
FFFE
F000
F000
F000
F000
F000
F000
FFC0
FFF8
FFFC
F03E
F01E
F00F
F00F
F007
F007
F007
F007
F00F
F00F
000F
001E
00FE
0078
0060
ENDCHAR
STARTCHAR uni0495
ENCODING 1173
SWIDTH 600 0
DWIDTH 19 0
BBX 15 21 3 -4
BITMAP
FFFC
FFFC
FFFC
E000
E000
E000
E000
FFC0
FFF0
FFF8
E07C
E03C
E01C
E01E
E01E
E01E
E03C
003C
01F8
00F0
00E0
ENDCHAR
STARTCHAR uni0496
ENCODING 1174
SWIDTH 600 0
DWIDTH 19 0
BBX 20 28 0 -6
BITMAP
78E3C0
78E3C0
78E3C0
3CE780
3CE780
1CE780
1CE700
1EEF00
0EEF00
0FFE00
0FFE00
0FFE00
1EEF00
1EEF00
1CE700
3CE780
3CE780
3CE380
78E3C0
78E3C0
78E3F0
F8E1F0
000070
000070
000070
000070
000070
000070
ENDCHAR
STARTCHAR uni0497
ENCODING 1175
SWIDTH 600 0
DWIDTH 19 0
BBX 20 23 0 -6
BITMAP
78E3C0
78E3C0
3CE780
3CE780
1CE700
1EEF00
0EEE00
0FFE00
0FFE00
0FFE00
1EEF00
1CE700
3CE780
3CE780
38E380
78E3F0
F8E3F0
000070
000070
000070
000070
000070
000070
ENDCHAR
STARTCHAR uni0498
ENCODING 1176
SWIDTH 600 0
DWIDTH 19 0
BBX 17 30 1 -8
BITMAP
07F000
1FFC00
3FFF00
7C1F00
780F80
700780
000780
000700
001F00
03FE00
03F800
03FE00
000F00
000780
000780
000780
F00780
780780
7C1F00
3FFF00
1FFC00
07F000
01C000
01C000
01C000
01C000
01C000
01C000
01C000
01C000
ENDCHAR
STARTCHAR uni0499
ENCODING 1177
SWIDTH 600 0
DWIDTH 19 0
BBX 15 25 2 -8
BITMAP
0FE0
3FF8
7FFC
F83E
F01E
001E
003E
0FFC
0FF0
0FFC
001E
001E
F01E
F83E
7FFE
3FF8
0FE0
0380
0380
0380
0380
0380
0380
0380
0380
ENDCHAR
STARTCHAR uni049A
ENCODING 1178
SWIDTH 600 0
DWIDTH 19 0
BBX 18 28 2 -6
BITMAP
F00F80
F01E00
F03E00
F03C00
F07800
F0F800
F0F000
F1E000
F3C000
FFC000
FFC000
FFC000
F1E000
F1F000
F0F000
F07800
F07C00
F03C00
F03E00
F01E00
F00FC0
F00FC0
0003C0
0003C0
0003C0
0003C0
0003C0
0003C0
ENDCHAR
STARTCHAR uni049B
ENCODING 1179
SWIDTH 600 0
DWIDTH 19 0
BBX 18 23 2 -6
BITMAP
F01F00
F03E00
F03C00
F07800
F0F800
F1F000
F1E000
FFC000
FFC000
FFE000
F1E000
F0F000
F0F800
F07C00
F03E00
F01FC0
F00FC0
0003C0
0003C0
0003C0
0003C0
0003C0
0003C0
ENDCHAR
STARTCHAR uni049C
ENCODING 1180
SWIDTH 600 0
DWIDTH 19 0
BBX 18 22 2 0
BITMAP
F00F80
F00F00
F01F00
F01E00
F01E00
F73C00
F73C00
F77800
F77800
FFF000
FFF000
FFF800
F77800
F77C00
F73C00
F73E00
F01E00
F01F00
F01F00
F00F80
F00F80
F007C0
ENDCHAR
STARTCHAR uni049D
ENCODING 1181
SWIDTH 600 0
DWIDTH 19 0
BBX 17 17 2 0
BITMAP
F01F00
F01E00
F03E00
F03C00
F77800
F77800
F7F000
FFF000
FFE000
FFF000
F77800
F77800
F73C00
F03C00
F01E00
F01F00
F00F80
ENDCHAR
STARTCHAR uni049E
ENCODING 1182
SWIDTH 609 0
DWIDTH 20 0
BBX 19 22 0 0
BITMAP
1E03E0
1E07C0
FFC780
FFCF00
FFDF00
1E1E00
1E3C00
1E7800
1E7800
1FF000
1FF000
1FF800
1E7800
1E3C00
1E3E00
1E1E00
1E1F00
1E0F00
1E0780
1E07C0
1E03C0
1E01E0
ENDCHAR
STARTCHAR uni049F
ENCODING 1183
SWIDTH 609 0
DWIDTH 20 0
BBX 19 24 0 0
BITMAP
1C0000
1C0000
1C0000
FFC000
FFC000
FFC000
1C0000
1C07C0
1C0F00
1C1E00
1C3C00
1C7800
1CF000
1DF000
1FE000
1FF000
1FF800
1F7C00
1E3C00
1C1E00
1C1F00
1C0F80
1C0780
1C03E0
ENDCHAR
STARTCHAR uni04A0
ENCODING 1184
SWIDTH 600 0
DWIDTH 19 0
BBX 19 22 0 0
BITMAP
FF83C0
FF87C0
FF8780
078780
078F00
078F00
079E00
079E00
07BC00
07FC00
07FC00
07FC00
079E00
079E00
079F00
078F00
078F00
078780
078780
0787C0
0783C0
0783E0
ENDCHAR
STARTCHAR uni04A1
ENCODING 1185
SWIDTH 600 0
DWIDTH 19 0
BBX 18 17 1 0
BITMAP
FF07C0
FF0F80
FF0F00
071F00
071E00
073C00
073C00
07F800
07F800
07FC00
073C00
071E00
071E00
071F00
070F80
070F80
0707C0
ENDCHAR
STARTCHAR uni04A2
ENCODING 1186
SWIDTH 600 0
DWIDTH 19 0
BBX 17 28 2 -6
BITMAP
F01E00
F01E00
F01E00
F01E00
F01E00
F01E00
F01E00
F01E00
F01E00
FFFE00
FFFE00
FFFE00
F01E00
F01E00
F01E00
F01E00
F01E00
F01E00
F01E00
F01E00
F01F80
F01F80
000380
000380
000380
000380
000380
000380
ENDCHAR
STARTCHAR uni04A3
ENCODING 1187
SWIDTH 600 0
DWIDTH 19 0
BBX 17 23 2 -6
BITMAP
F01E00
F01E00
F01E00
F01E00
F01E00
F01E00
F01E00
FFFE00
FFFE00
FFFE00
F01E00
F01E00
F01E00
F01E00
F01E00
F01F80
F01F80
000380
000380
000380
000380
000380
000380
ENDCHAR
STARTCHAR uni04A4
ENCODING 1188
SWIDTH 600 0
DWIDTH 19 0
BBX 18 22 1 0
BITMAP
F07FC0
F07FC0
F07FC0
F07800
F07800
F07800
F07800
F07800
F07800
FFF800
FFF800
FFF800
F07800
F07800
F07800
F07800
F07800
F07800
F07800
F07800
F07800
F07800
ENDCHAR
STARTCHAR uni04A5
ENCODING 1189
SWIDTH 600 0
DWIDTH 19 0
BBX 17 17 2 0
BITMAP
E0FF80
E0FF80
E0FF80
E0F000
E0F000
E0F000
E0F000
FFF000
FFF000
FFF000
E0F000
E0F000
E0F000
E0F000
E0F000
E0F000
E0F000
ENDCHAR
STARTCHAR uni04A6
ENCODING 1190
SWIDTH 600 0
DWIDTH 19 0
BBX 18 27 1 -5
BITMAP
FFE000
FFE000
FFE000
F1E000
F1E000
F1E000
F1E000
F1E000
F1E000
F1F800
F1FE00
F1FF00
F1EF00
F1E780
F1E780
F1E780
F1E380
F1E3C0
F1E3C0
F1E380
F1E380
F1E780
000780
000F80
001F00
001E00
001800
ENDCHAR
STARTCHAR uni04A7
ENCODING 1191
SWIDTH 600 0
DWIDTH 19 0
BBX 16 21 2 -4
BITMAP
FFC0
FFC0
FFC0
E3C0
E3C0
E3C0
E3C0
E3F0
E3FC
E3FE
E3DE
E3CF
E3CF
E3CF
E3CF
E3CF
E3CF
001F
003E
003C
0018
ENDCHAR
STARTCHAR uni04A8
ENCODING 1192
SWIDTH 600 0
DWIDTH 19 0
BBX 17 22 1 0
BITMAP
0C3C00
1CFE00
3CFF00
79EF00
79E700
79C780
71C780
F1C780
F1C780
F1C780
F1C780
F1C780
F1C780
71C780
71E780
79E700
78EF00
3CFF00
3E7E00
1FFF80
0FFF80
03F780
ENDCHAR
STARTCHAR uni04A9
ENCODING 1193
SWIDTH 600 0
DWIDTH 19 0
BBX 18 17 1 0
BITMAP
0C3C00
3CFE00
3CFF00
79E780
71C780
F1C780
F1C780
F1C780
F1C780
F1C780
F1C780
79E780
78FF00
3C7F00
3FFFC0
0FFFC0
07F3C0
ENDCHAR
STARTCHAR uni04AA
ENCODING 1194
SWIDTH 600 0
DWIDTH 19 0
BBX 17 30 1 -8
BITMAP
03F000
0FFC00
1FFE00
3E1F00
7C0F00
780700
780780
700000
F00000
F00000
F00000
F00000
F00000
F00000
700000
780780
780700
780F00
3E1F00
1FFE00
0FFC00
03F000
01C000
01C000
01C000
01C000
01C000
01C000
01C000
01C000
ENDCHAR
STARTCHAR uni04AB
ENCODING 1195
SWIDTH 600 0
DWIDTH 19 0
BBX 15 25 2 -8
BITMAP
07E0
1FF8
3FFC
7C3C
781E
F01E
F000
F000
F000
F000
F000
F01E
781E
7C3C
3FFC
1FF8
07E0
03C0
03C0
03C0
03C0
03C0
03C0
03C0
03C0
ENDCHAR
STARTCHAR uni04AC
ENCODING 1196
SWIDTH 600 0
DWIDTH 19 0
BBX 17 28 1 -6
BITMAP
FFFF80
FFFF80
FFFF80
01C000
01C000
01C000
01C000
01C000
01C000
01C000
01C000
01C000
01C000
01C000
01C000
01C000
01C000
01C000
01C000
01C000
01F800
01F800
007800
007800
007800
007800
007800
007800
ENDCHAR
STARTCHAR uni04AD
ENCODING 1197
SWIDTH 600 0
DWIDTH 19 0
BBX 16 23 2 -6
BITMAP
FFFF
FFFF
FFFF
03C0
03C0
03C0
03C0
03C0
03C0
03C0
03C0
03C0
03C0
03C0
03C0
03F0
03F0
0070
0070
0070
0070
0070
0070
ENDCHAR
STARTCHAR uni04AE
ENCODING 1198
SWIDTH 600 0
DWIDTH 19 0
BBX 18 22 1 0
BITMAP
F007C0
F80780
780F00
780F00
3C1E00
3C1E00
1E1C00
1E3C00
0F3800
0F7800
077000
07F000
03E000
03E000
01C000
01C000
01C000
01C000
01C000
01C000
01C000
01C000
ENDCHAR
STARTCHAR uni04AF
ENCODING 1199
SWIDTH 600 0
DWIDTH 19 0
BBX 18 23 1 -6
BITMAP
F003C0
F00780
780780
780F00
3C0F00
3C0E00
1C1E00
1E1C00
0E3C00
0F3800
0F3800
077800
07F000
03F000
03E000
01E000
01E000
01E000
01E000
01E000
01E000
01E000
01E000
ENDCHAR
STARTCHAR uni04B0
ENCODING 1200
SWIDTH 600 0
DWIDTH 19 0
BBX 18 22 1 0
BITMAP
F007C0
F80780
780F00
780F00
3C1E00
1C1E00
1E3C00
0E3C00
0F7800
077800
07F000
1FFC00
1FFC00
1FFC00
01C000
01C000
01C000
01C000
01C000
01C000
01C000
01C000
ENDCHAR
STARTCHAR uni04B1
ENCODING 1201
SWIDTH 600 0
DWIDTH 19 0
BBX 18 23 1 -6
BITMAP
F003C0
F00780
780780
780F00
380F00
3C0E00
1C1E00
1E1C00
1E3C00
0E3C00
0F3800
077800
07F000
03F000
0FFC00
0FFC00
0FFC00
01E000
01E000
01E000
01E000
01E000
01E000
ENDCHAR
STARTCHAR uni04B2
ENCODING 1202
SWIDTH 600 0
DWIDTH 19 0
BBX 19 28 1 -6
BITMAP
F807C0
780F80
3C0F00
3C1F00
1E1E00
1E3C00
0F3C00
0F7800
07F800
03F000
03E000
03E000
03F000
07F800
0F7800
0F3C00
1E3C00
1E1E00
3C1F00
7C0F00
7807E0
F807E0
0001E0
0001E0
0001E0
0001E0
0001E0
0001E0
ENDCHAR
STARTCHAR uni04B3
ENCODING 1203
SWIDTH 600 0
DWIDTH 19 0
BBX 16 23 2 -6
BITMAP
F01F
781E
7C3C
3C7C
1E78
0FF0
0FE0
07E0
03C0
07E0
0FF0
1FF0
1E78
3C3C
783C
781F
F00F
000F
000F
000F
000F
000F
000F
ENDCHAR
STARTCHAR uni04B4
ENCODING 1204
SWIDTH 600 0
DWIDTH 19 0
BBX 19 28 0 -6
BITMAP
FFF780
FFF780
FFF780
0F0780
0F0780
0F0780
0F0780
0F0780
0F0780
0F0780
0F0780
0F0780
0F0780
0F0780
0F0780
0F0780
0F0780
0F0780
0F0780
0FFFE0
0FFFE0
0FFFE0
0000E0
0000E0
0000E0
0000E0
0000E0
0000E0
ENDCHAR
STARTCHAR uni04B5
ENCODING 1205
SWIDTH 600 0
DWIDTH 19 0
BBX 18 22 1 -5
BITMAP
FFCE00
FFCE00
FFCE00
1E0E00
1E0E00
1E0E00
1E0E00
1E0E00
1E0E00
1E0E00
1E0E00
1E0E00
1E0E00
1E0E00
1FFFC0
1FFFC0
1FFFC0
000380
000380
000380
000380
000380
ENDCHAR
STARTCHAR uni04B6
ENCODING 1206
SWIDTH 600 0
DWIDTH 19 0
BBX 17 28 3 -6
BITMAP
E03C00
E03C00
E03C00
E03C00
E03C00
E03C00
E03C00
E03C00
E03C00
F03C00
F03C00
7FFC00
3FFC00
1FFC00
003C00
003C00
003C00
003C00
003C00
003C00
003F80
003F80
000780
000780
000780
000780
000780
000780
ENDCHAR
STARTCHAR uni04B7
ENCODING 1207
SWIDTH 600 0
DWIDTH 19 0
BBX 18 23 2 -6
BITMAP
F01E00
F01E00
F01E00
F01E00
F01E00
F01E00
F01E00
F01E00
781E00
7FFE00
3FFE00
0FFE00
001E00
001E00
001E00
001FC0
001FC0
0003C0
0003C0
0003C0
0003C0
0003C0
0003C0
ENDCHAR
STARTCHAR uni04B8
ENCODING 1208
SWIDTH 600 0
DWIDTH 19 0
BBX 15 22 2 0
BITMAP
F01E
F01E
F01E
F01E
F01E
F01E
F01E
F39E
F39E
739E
7B9E
7FFE
3FFE
0FFE
039E
039E
039E
039E
001E
001E
001E
001E
ENDCHAR
STARTCHAR uni04B9
ENCODING 1209
SWIDTH 600 0
DWIDTH 19 0
BBX 15 17 2 0
BITMAP
F01E
F01E
F01E
F01E
F01E
F39E
F39E
F39E
7B9E
7FFE
3FFE
0FFE
039E
039E
001E
001E
001E
ENDCHAR
STARTCHAR uni04BA
ENCODING 1210
SWIDTH 600 0
DWIDTH 19 0
BBX 15 22 3 0
BITMAP
E000
E000
E000
E000
E000
E000
E000
E000
EFE0
FFF0
FFF8
F07C
E03C
E03C
E01C
E01E
E01E
E01E
E01C
E01C
E01C
E01C
ENDCHAR
STARTCHAR uni04BB
ENCODING 1211
SWIDTH 600 0
DWIDTH 19 0
BBX 15 23 2 0
BITMAP
F000
F000
F000
F000
F000
F000
F1F0
F7F8
FFFC
FC3E
F01E
F01E
F01E
F01E
F01E
F01E
F01E
F01E
F01E
F01E
F01E
F01E
F01E
ENDCHAR
STARTCHAR uni04BC
ENCODING 1212
SWIDTH 600 0
DWIDTH 19 0
BBX 18 22 0 0
BITMAP
007C00
01FF00
03FF80
07C780
0783C0
EF03C0
EF03C0
FF03C0
7FFFC0
3FFFC0
1FFFC0
0F0000
0F0000
0F0000
0F0000
0F0000
078000
078000
03C180
03FF80
01FF80
007F00
ENDCHAR
STARTCHAR uni04BD
ENCODING 1213
SWIDTH 600 0
DWIDTH 19 0
BBX 18 17 0 0
BITMAP
007C00
01FF00
03FF80
83C780
6783C0
7783C0
7783C0
7FFFC0
3FFFC0
0FFFC0
070000
078000
078000
03C180
03FFC0
01FF80
007E00
ENDCHAR
STARTCHAR uni04BE
ENCODING 1214
SWIDTH 600 0
DWIDTH 19 0
BBX 18 30 0 -8
BITMAP
007C00
01FF00
03FF80
07C780
0783C0
EF03C0
EF03C0
FF03C0
7FFFC0
3FFFC0
1FFFC0
0F0000
0F0000
0F0000
0F0000
0F0000
078000
078000
03C180
03FF80
01FF80
007F00
003C00
003C00
003C00
003C00
003C00
003C00
003C00
003C00
ENDCHAR
STARTCHAR uni04BF
ENCODING 1215
SWIDTH 600 0
DWIDTH 19 0
BBX 18 25 0 -8
BITMAP
007C00
01FF00
03FF80
83C780
6783C0
7783C0
7783C0
7FFFC0
3FFFC0
0FFFC0
070000
078000
078000
03C180
03FFC0
01FF80
007E00
003C00
003C00
003C00
003C00
003C00
003C00
003C00
003C00
ENDCHAR
STARTCHAR uni04C0
ENCODING 1216
SWIDTH 600 0
DWIDTH 19 0
BBX 13 22 3 0
BITMAP
FFF8
FFF8
FFF8
0700
0700
0700
0700
0700
0700
0700
0700
0700
0700
0700
0700
0700
0700
0700
0700
FFF8
FFF8
FFF8
ENDCHAR
STARTCHAR uni04C1
ENCODING 1217
SWIDTH 600 0
DWIDTH 19 0
BBX 19 28 0 0
BITMAP
070E00
071E00
03FC00
01F800
000000
000000
78E3C0
78E3C0
78E3C0
3CE780
3CE780
1CE780
1CE700
1EEF00
0EEF00
0FFE00
0FFE00
0FFE00
1EEF00
1EEF00
1CE700
3CE780
3CE780
3CE380
78E3C0
78E3C0
78E3C0
F8E1E0
ENDCHAR
STARTCHAR uni04C2
ENCODING 1218
SWIDTH 600 0
DWIDTH 19 0
BBX 19 23 0 0
BITMAP
060E00
071C00
07FC00
01F800
000000
000000
78E3C0
78E3C0
3CE780
3CE780
1CE700
1EEF00
0EEE00
0FFE00
0FFE00
0FFE00
1EEF00
1CE700
3CE780
3CE780
38E380
78E3C0
F8E3E0
ENDCHAR
STARTCHAR uni04C3
ENCODING 1219
SWIDTH 600 0
DWIDTH 19 0
BBX 16 27 3 -5
BITMAP
F03E
F03C
F07C
F078
F0F0
F0F0
F1E0
F3C0
F3C0
FF80
FFF0
FFF8
F07C
F01E
F01E
F00E
F00F
F00F
F00F
F00F
F00E
F01E
001E
003C
00FC
00F8
00E0
ENDCHAR
STARTCHAR uni04C4
ENCODING 1220
SWIDTH 600 0
DWIDTH 19 0
BBX 14 21 3 -4
BITMAP
E07C
E078
E0F8
E1F0
E1E0
E3C0
E7C0
FF80
FFE0
FFF8
E078
E03C
E03C
E01C
E01C
E03C
E03C
0078
01F8
00F0
00E0
ENDCHAR
STARTCHAR uni04C5
ENCODING 1221
SWIDTH 600 0
DWIDTH 19 0
BBX 19 27 1 -5
BITMAP
1FFF00
1FFF00
1FFF00
1E0F00
1E0F00
1E0F00
1E0F00
1E0F00
1E0F00
1E0F00
1E0F00
1E0F00
1E0F00
1E0F00
1E0F00
1C0F00
1C0F00
3C0F00
3C0FE0
F80FE0
F00FE0
E00FE0
0001E0
0001E0
0001C0
0001C0
000380
ENDCHAR
STARTCHAR uni04C6
ENCODING 1222
SWIDTH 600 0
DWIDTH 19 0
BBX 19 22 1 -5
BITMAP
1FFF00
1FFF00
1FFF00
1E0F00
1E0F00
1E0F00
1E0F00
1E0F00
1E0F00
1E0F00
1E0F00
1C0F00
3C0F00
3C0FE0
F80FE0
F80FE0
E00FE0
0001E0
0001E0
0001C0
0003C0
000380
ENDCHAR
STARTCHAR uni04C7
ENCODING 1223
SWIDTH 600 0
DWIDTH 19 0
BBX 15 28 2 -6
BITMAP
F01E
F01E
F01E
F01E
F01E
F01E
F01E
F01E
F01E
FFFE
FFFE
FFFE
F01E
F01E
F01E
F01E
F01E
F01E
F01E
F01E
F01E
F01E
001E
001E
003C
01FC
01F8
01F0
ENDCHAR
STARTCHAR uni04C8
ENCODING 1224
SWIDTH 600 0
DWIDTH 19 0
BBX 15 23 2 -6
BITMAP
F01E
F01E
F01E
F01E
F01E
F01E
F01E
FFFE
FFFE
FFFE
F01E
F01E
F01E
F01E
F01E
F01E
F01E
001E
001E
003C
01FC
01F8
01F0
ENDCHAR
STARTCHAR uni04C9
ENCODING 1225
SWIDTH 600 0
DWIDTH 19 0
BBX 18 27 2 -5
BITMAP
F01E00
F01E00
F01E00
F01E00
F01E00
F01E00
F01E00
F01E00
F01E00
FFFE00
FFFE00
FFFE00
F01E00
F01E00
F01E00
F01E00
F01E00
F01E00
F01FC0
F01FC0
F01FC0
F01FC0
0003C0
0003C0
000380
000780
000700
ENDCHAR
STARTCHAR uni04CA
ENCODING 1226
SWIDTH 600 0
DWIDTH 19 0
BBX 18 22 2 -5
BITMAP
F01E00
F01E00
F01E00
F01E00
F01E00
F01E00
F01E00
FFFE00
FFFE00
FFFE00
F01E00
F01E00
F01E00
F01FC0
F01FC0
F01FC0
F01FC0
0003C0
0003C0
000380
000780
000700
ENDCHAR
STARTCHAR uni04CB
ENCODING 1227
SWIDTH 600 0
DWIDTH 19 0
BBX 14 28 3 -6
BITMAP
E03C
E03C
E03C
E03C
E03C
E03C
E03C
E03C
E03C
F03C
F03C
7FFC
3FFC
1FFC
003C
003C
003C
003C
003C
003C
00FC
00FC
00E0
00E0
00E0
00E0
00E0
00E0
ENDCHAR
STARTCHAR uni04CC
ENCODING 1228
SWIDTH 600 0
DWIDTH 19 0
BBX 15 23 2 -6
BITMAP
F01E
F01E
F01E
F01E
F01E
F01E
F01E
F01E
781E
7FFE
3FFE
0FFE
001E
001E
001E
007E
007E
0070
0070
0070
0070
0070
0070
ENDCHAR
STARTCHAR uni04CD
ENCODING 1229
SWIDTH 600 0
DWIDTH 19 0
BBX 19 27 2 -5
BITMAP
F81E00
F83E00
F83E00
FC3E00
FC7E00
FC7E00
EE7E00
EEEE00
EEEE00
F7EE00
F7CE00
F7CE00
F3CE00
F38E00
F38E00
F00E00
F00E00
F00E00
F00FE0
F00FE0
F00FE0
F00FE0
0001E0
0001C0
0003C0
000380
000380
ENDCHAR
STARTCHAR uni04CE
ENCODING 1230
SWIDTH 600 0
DWIDTH 19 0
BBX 18 22 2 -5
BITMAP
F83E00
F83E00
F83E00
F83E00
FC7E00
FC7E00
FC7E00
FC6E00
EEEE00
EEEE00
EEEE00
E6CE00
E7CE00
E7CFC0
E78FC0
E38FC0
E38FC0
0001C0
0003C0
0003C0
000380
000700
ENDCHAR
STARTCHAR uni04CF
ENCODING 1231
SWIDTH 600 0
DWIDTH 19 0
BBX 13 22 3 0
BITMAP
FFF8
FFF8
FFF8
0700
0700
0700
0700
0700
0700
0700
0700
0700
0700
0700
0700
0700
0700
0700
0700
FFF8
FFF8
FFF8
ENDCHAR
STARTCHAR uni04D0
ENCODING 1232
SWIDTH 600 0
DWIDTH 19 0
BBX 18 28 1 0
BITMAP
0E1C00
0E3C00
07F800
03F000
000000
000000
01E000
01E000
03E000
03F000
03F000
07F000
07F800
077800
0F3800
0F3C00
0E3C00
1E1C00
1E1E00
1C1E00
3FFE00
3FFF00
3FFF00
780700
780780
700780
F00780
F003C0
ENDCHAR
STARTCHAR uni04D1
ENCODING 1233
SWIDTH 600 0
DWIDTH 19 0
BBX 15 23 2 0
BITMAP
1838
1C70
1FF0
07E0
0000
0000
0FC0
3FF0
7FF8
787C
F03C
001C
001C
0FFC
3FFC
781C
F01C
F01C
F03C
F87C
7FFC
3FFE
1F9E
ENDCHAR
STARTCHAR uni04D2
ENCODING 1234
SWIDTH 600 0
DWIDTH 19 0
BBX 18 27 1 0
BITMAP
0E1C00
1E3C00
1E3C00
0E1C00
000000
01E000
01E000
03E000
03F000
03F000
07F000
07F800
077800
0F3800
0F3C00
0E3C00
1E1C00
1E1E00
1C1E00
3FFE00
3FFF00
3FFF00
780700
780780
700780
F00780
F003C0
ENDCHAR
STARTCHAR uni04D3
ENCODING 1235
SWIDTH 600 0
DWIDTH 19 0
BBX 15 22 2 0
BITMAP
1830
3C78
3C78
1830
0000
0FC0
3FF0
7FF8
787C
F03C
001C
001C
0FFC
3FFC
781C
F01C
F01C
F03C
F87C
7FFC
3FFE
1F9E
ENDCHAR
STARTCHAR uni04D4
ENCODING 1236
SWIDTH 600 0
DWIDTH 19 0
BBX 18 22 1 0
BITMAP
00FF80
01FF80
01FF80
03F800
03F800
03F800
07F800
077800
077800
0F7F80
0E7F80
1E7F80
1E7800
1C7800
3FF800
3FF800
3FF800
787800
787800
F07FC0
F07FC0
F07FC0
ENDCHAR
STARTCHAR uni04D5
ENCODING 1237
SWIDTH 600 0
DWIDTH 19 0
BBX 18 17 1 0
BITMAP
1F3E00
7FFF00
FFFF80
F3E380
F1C3C0
01C3C0
01C3C0
1FFFC0
7FFFC0
FFFFC0
F9C000
F1C000
E1C000
F1E080
FFFF80
7F7F80
3E3F00
ENDCHAR
STARTCHAR uni04D6
ENCODING 1238
SWIDTH 600 0
DWIDTH 19 0
BBX 14 28 3 0
BITMAP
3870
38F0
1FE0
0FC0
0000
0000
FFFC
FFFC
FFFC
E000
E000
E000
E000
E000
E000
FFF8
FFF8
FFF8
E000
E000
E000
E000
E000
E000
E000
FFFC
FFFC
FFFC
ENDCHAR
STARTCHAR uni04D7
ENCODING 1239
SWIDTH 600 0
DWIDTH 19 0
BBX 15 23 2 0
BITMAP
1838
1C70
1FF0
07E0
0000
0000
07E0
1FF8
3FFC
7C3C
781E
F01E
F00E
FFFE
FFFE
FFFE
F000
F000
7804
7C1E
3FFE
1FF8
07F0
ENDCHAR
STARTCHAR uni04D8
ENCODING 1240
SWIDTH 600 0
DWIDTH 19 0
BBX 17 22 1 0
BITMAP
0FE000
3FF800
1FFC00
103E00
000F00
000F00
000700
000700
000780
000780
FFFF80
FFFF80
FFFF80
F00780
F00700
700F00
700F00
781F00
3C3E00
3FFC00
1FF800
07E000
ENDCHAR
STARTCHAR uni04D9
ENCODING 1241
SWIDTH 600 0
DWIDTH 19 0
BBX 15 17 3 0
BITMAP
1FC0
7FF0
FFF8
6078
003C
001C
001E
FFFE
FFFE
FFFE
E01E
E03C
F03C
F878
7FF8
3FF0
0FC0
ENDCHAR
STARTCHAR uni04DA
ENCODING 1242
SWIDTH 600 0
DWIDTH 19 0
BBX 17 27 1 0
BITMAP
0C1800
1E3C00
1E3C00
0C1C00
000000
0FE000
3FF800
1FFC00
103E00
000F00
000F00
000700
000700
000780
000780
FFFF80
FFFF80
FFFF80
F00780
F00700
700F00
700F00
781F00
3C3E00
3FFC00
1FF800
07E000
ENDCHAR
STARTCHAR uni04DB
ENCODING 1243
SWIDTH 600 0
DWIDTH 19 0
BBX 15 22 3 0
BITMAP
3870
3878
3878
3870
0000
1FC0
7FF0
FFF8
6078
003C
001C
001E
FFFE
FFFE
FFFE
E01E
E03C
F03C
F878
7FF8
3FF0
0FC0
ENDCHAR
STARTCHAR uni04DC
ENCODING 1244
SWIDTH 600 0
DWIDTH 19 0
BBX 19 27 0 0
BITMAP
060E00
0F1E00
0F1E00
070E00
000000
78E3C0
78E3C0
78E3C0
3CE780
3CE780
1CE780
1CE700
1EEF00
0EEF00
0FFE00
0FFE00
0FFE00
1EEF00
1EEF00
1CE700
3CE780
3CE780
3CE380
78E3C0
78E3C0
78E3C0
F8E1E0
ENDCHAR
STARTCHAR uni04DD
ENCODING 1245
SWIDTH 600 0
DWIDTH 19 0
BBX 19 22 0 0
BITMAP
060C00
0F1E00
0F1E00
060C00
000000
78E3C0
78E3C0
3CE780
3CE780
1CE700
1EEF00
0EEE00
0FFE00
0FFE00
0FFE00
1EEF00
1CE700
3CE780
3CE780
38E380
78E3C0
F8E3E0
ENDCHAR
STARTCHAR uni04DE
ENCODING 1246
SWIDTH 600 0
DWIDTH 19 0
BBX 17 28 1 0
BITMAP
0C1800
1E3C00
1E3C00
0C1800
000000
000000
07F000
1FFC00
3FFF00
7C1F00
780F80
700780
000780
000700
001F00
03FE00
03F800
03FE00
000F00
000780
000780
000780
F00780
780780
7C1F00
3FFF00
1FFC00
07F000
ENDCHAR
STARTCHAR uni04DF
ENCODING 1247
SWIDTH 600 0
DWIDTH 19 0
BBX 15 22 2 0
BITMAP
1838
3C78
3C78
1838
0000
0FE0
3FF8
7FFC
F83E
F01E
001E
003E
0FFC
0FF0
0FFC
001E
001E
F01E
F83E
7FFE
3FF8
0FE0
ENDCHAR
STARTCHAR uni04E0
ENCODING 1248
SWIDTH 600 0
DWIDTH 19 0
BBX 16 22 2 0
BITMAP
7FFE
7FFE
7FFE
003C
0078
00F0
01E0
03C0
0780
07F0
07F8
00FC
001E
000E
000F
000F
F00F
F01E
7C3E
7FFC
3FF8
07E0
ENDCHAR
STARTCHAR uni04E1
ENCODING 1249
SWIDTH 600 0
DWIDTH 19 0
BBX 16 23 2 -6
BITMAP
7FFE
7FFE
7FFE
003C
0078
00F0
01E0
03E0
07C0
07C0
07F8
07FC
003E
001E
000E
000E
F00F
F00E
F01E
783E
7FFC
3FF8
0FE0
ENDCHAR
STARTCHAR uni04E2
ENCODING 1250
SWIDTH 600 0
DWIDTH 19 0
BBX 15 27 2 0
BITMAP
3FF8
3FF8
3FF8
0000
0000
F01E
F03E
F03E
F07E
F07E
F0FE
F0FE
F1FE
F1DE
F3DE
F39E
F39E
F79E
F71E
FF1E
FE1E
FE1E
FC1E
FC1E
F81E
F81E
F01E
ENDCHAR
STARTCHAR uni04E3
ENCODING 1251
SWIDTH 600 0
DWIDTH 19 0
BBX 15 22 2 0
BITMAP
3FF8
3FF8
3FF8
0000
0000
F01E
F03E
F03E
F07E
F0FE
F0FE
F1DE
F3DE
F39E
F79E
F71E
FE1E
FE1E
FC1E
F81E
F81E
F01E
ENDCHAR
STARTCHAR uni04E4
ENCODING 1252
SWIDTH 600 0
DWIDTH 19 0
BBX 15 27 2 0
BITMAP
3870
3C78
3C78
3830
0000
F01E
F03E
F03E
F07E
F07E
F0FE
F0FE
F1FE
F1DE
F3DE
F39E
F39E
F79E
F71E
FF1E
FE1E
FE1E
FC1E
FC1E
F81E
F81E
F01E
ENDCHAR
STARTCHAR uni04E5
ENCODING 1253
SWIDTH 600 0
DWIDTH 19 0
BBX 15 22 2 0
BITMAP
3870
3C78
3C78
3870
0000
F01E
F03E
F03E
F07E
F0FE
F0FE
F1DE
F3DE
F39E
F79E
F71E
FE1E
FE1E
FC1E
F81E
F81E
F01E
ENDCHAR
STARTCHAR uni04E6
ENCODING 1254
SWIDTH 600 0
DWIDTH 19 0
BBX 17 28 1 0
BITMAP
0C1C00
1E3C00
1E3C00
0E1C00
000000
000000
03E000
0FF800
1FFC00
3E1E00
780F00
780F00
780700
700780
F00780
F00780
F00780
F00780
F00780
F00780
700780
780700
780F00
780F00
3E1E00
1FFC00
0FF800
03E000
ENDCHAR
STARTCHAR uni04E7
ENCODING 1255
SWIDTH 600 0
DWIDTH 19 0
BBX 15 22 2 0
BITMAP
1830
3C78
3C78
1838
0000
07E0
1FF0
3FF8
7C3C
F81E
F01E
F01E
F00E
E00E
E00E
F01E
F01E
F81E
7C3C
3FF8
1FF0
07E0
ENDCHAR
STARTCHAR uni04E8
ENCODING 1256
SWIDTH 600 0
DWIDTH 19 0
BBX 17 22 1 0
BITMAP
03E000
0FF800
1FFC00
3C1E00
780F00
780F00
700700
F00700
F00780
FFFF80
FFFF80
FFFF80
F00780
F00780
700780
780F00
780F00
781F00
3E3E00
1FFC00
0FF800
07E000
ENDCHAR
STARTCHAR uni04E9
ENCODING 1257
SWIDTH 600 0
DWIDTH 19 0
BBX 16 17 1 0
BITMAP
07E0
1FF8
3FFC
3C3E
781E
780F
700F
FFFF
FFFF
FFFF
700F
780F
781E
3C3E
3FFC
1FF8
07E0
ENDCHAR
STARTCHAR uni04EA
ENCODING 1258
SWIDTH 600 0
DWIDTH 19 0
BBX 17 27 1 0
BITMAP
0E1C00
1E3C00
1E3C00
0E1C00
000000
03E000
0FF800
1FFC00
3C1E00
780F00
780F00
700700
F00700
F00780
FFFF80
FFFF80
FFFF80
F00780
F00780
700780
780F00
780F00
781F00
3E3E00
1FFC00
0FF800
07E000
ENDCHAR
STARTCHAR uni04EB
ENCODING 1259
SWIDTH 600 0
DWIDTH 19 0
BBX 16 23 1 0
BITMAP
1C38
1C3C
3C38
1C38
0000
0000
07E0
1FF8
3FFC
3C3E
781E
780F
700F
FFFF
FFFF
FFFF
700F
780F
781E
3C3E
3FFC
1FF8
07E0
ENDCHAR
STARTCHAR uni04EC
ENCODING 1260
SWIDTH 600 0
DWIDTH 19 0
BBX 16 28 1 0
BITMAP
1C38
1C3C
3C38
1C38
0000
0000
07E0
1FF8
3FFC
7C3E
781E
F00F
F00F
000F
000F
03FF
03FF
03FF
000F
000F
F00F
F00F
F00F
781E
7C3E
3FFC
1FF8
07E0
ENDCHAR
STARTCHAR uni04ED
ENCODING 1261
SWIDTH 600 0
DWIDTH 19 0
BBX 15 22 2 0
BITMAP
3870
3C78
3C78
3830
0000
0FC0
3FF0
7FF8
F87C
F03C
E01E
001E
03FE
03FE
03FE
001E
E01E
F03C
F87C
7FF8
3FF0
0FC0
ENDCHAR
STARTCHAR uni04EE
ENCODING 1262
SWIDTH 600 0
DWIDTH 19 0
BBX 19 27 0 0
BITMAP
07FF00
07FF00
07FF00
000000
000000
F801E0
7803C0
3C03C0
3C0780
1E0780
1E0780
0E0F00
0F0F00
071E00
079E00
03BC00
03FC00
03F800
01F800
01F000
00F000
00F000
01E000
03E000
3FC000
3F8000
7F0000
ENDCHAR
STARTCHAR uni04EF
ENCODING 1263
SWIDTH 600 0
DWIDTH 19 0
BBX 18 28 1 -6
BITMAP
1FFE00
1FFE00
1FFE00
000000
000000
F007C0
780780
780F80
3C0F00
3C0F00
3C1E00
1E1E00
1E3C00
0F3C00
0F3800
077800
07F000
03F000
03F000
01E000
01E000
01C000
03C000
038000
078000
3F0000
3E0000
3C0000
ENDCHAR
STARTCHAR uni04F0
ENCODING 1264
SWIDTH 600 0
DWIDTH 19 0
BBX 19 27 0 0
BITMAP
070E00
078F00
078F00
070E00
000000
F801E0
7803C0
3C03C0
3C0780
1E0780
1E0780
0E0F00
0F0F00
071E00
079E00
03BC00
03FC00
03F800
01F800
01F000
00F000
00F000
01E000
03E000
3FC000
3F8000
7F0000
ENDCHAR
STARTCHAR uni04F1
ENCODING 1265
SWIDTH 600 0
DWIDTH 19 0
BBX 18 28 1 -6
BITMAP
0E1C00
1E1C00
1E1C00
0E1C00
000000
F007C0
780780
780F80
3C0F00
3C0F00
3C1E00
1E1E00
1E3C00
0F3C00
0F3800
077800
07F000
03F000
03F000
01E000
01E000
01C000
03C000
038000
078000
3F0000
3E0000
3C0000
ENDCHAR
STARTCHAR uni04F2
ENCODING 1266
SWIDTH 600 0
DWIDTH 19 0
BBX 19 28 0 0
BITMAP
007BE0
00F780
01EF00
03DC00
000000
000000
F801E0
7803C0
3C03C0
3C0780
1E0780
1E0780
0E0F00
0F0F00
071E00
079E00
03BC00
03FC00
03F800
01F800
01F000
00F000
00F000
01E000
03E000
3FC000
3F8000
7F0000
ENDCHAR
STARTCHAR uni04F3
ENCODING 1267
SWIDTH 600 0
DWIDTH 19 0
BBX 18 29 1 -6
BITMAP
00F780
01CF00
039C00
073800
000000
000000
F007C0
780780
780F80
3C0F00
3C0F00
3C1E00
1E1E00
1E3C00
0F3C00
0F3800
077800
07F000
03F000
03F000
01E000
01E000
01C000
03C000
038000
078000
3F0000
3E0000
3C0000
ENDCHAR
STARTCHAR uni04F4
ENCODING 1268
SWIDTH 600 0
DWIDTH 19 0
BBX 14 27 3 0
BITMAP
60E0
F1E0
F1E0
60C0
0000
E03C
E03C
E03C
E03C
E03C
E03C
E03C
E03C
E03C
F03C
F03C
7FFC
3FFC
1FFC
003C
003C
003C
003C
003C
003C
003C
003C
ENDCHAR
STARTCHAR uni04F5
ENCODING 1269
SWIDTH 600 0
DWIDTH 19 0
BBX 15 22 2 0
BITMAP
1C38
1C3C
1E3C
1C38
0000
F01E
F01E
F01E
F01E
F01E
F01E
F01E
F01E
781E
7FFE
3FFE
0FFE
001E
001E
001E
001E
001E
ENDCHAR
STARTCHAR uni04F6
ENCODING 1270
SWIDTH 600 0
DWIDTH 19 0
BBX 15 28 2 -6
BITMAP
FFFE
FFFE
FFFE
F000
F000
F000
F000
F000
F000
F000
F000
F000
F000
F000
F000
F000
F000
F000
F000
F000
FE00
FE00
1E00
1E00
1E00
1E00
1E00
1E00
ENDCHAR
STARTCHAR uni04F7
ENCODING 1271
SWIDTH 600 0
DWIDTH 19 0
BBX 14 23 3 -6
BITMAP
FFFC
FFFC
FFFC
E000
E000
E000
E000
E000
E000
E000
E000
E000
E000
E000
E000
F800
F800
7800
7800
7800
7800
7800
7800
ENDCHAR
STARTCHAR uni04F8
ENCODING 1272
SWIDTH 600 0
DWIDTH 19 0
BBX 16 27 2 0
BITMAP
3870
3878
7870
3870
0000
E00F
E00F
E00F
E00F
E00F
E00F
E00F
E00F
E00F
FE0F
FF8F
FFCF
E3CF
E3CF
E1CF
E1EF
E1CF
E3CF
E3CF
FF8F
FF8F
FE0F
ENDCHAR
STARTCHAR uni04F9
ENCODING 1273
SWIDTH 600 0
DWIDTH 19 0
BBX 16 22 2 0
BITMAP
0C18
1E3C
1E3C
0C18
0000
F00F
F00F
F00F
F00F
F00F
F00F
FE0F
FF8F
FFCF
F3CF
F1CF
F1CF
F1CF
F3CF
FFCF
FF8F
FE0F
ENDCHAR
STARTCHAR uni04FA
ENCODING 1274
SWIDTH 600 0
DWIDTH 19 0
BBX 17 28 1 -6
BITMAP
1FFF80
1FFF80
1FFF80
1E0000
1E0000
1E0000
1E0000
1E0000
FFC000
FFC000
FFC000
1E0000
1E0000
1E0000
1E0000
1E0000
1E0000
1E0000
1FC000
1FC000
1FC000
1FC000
03C000
03C000
03C000
1F8000
1F8000
1E0000
ENDCHAR
STARTCHAR uni04FB
ENCODING 1275
SWIDTH 600 0
DWIDTH 19 0
BBX 17 23 1 -6
BITMAP
1FFF80
1FFF80
1FFF80
1C0000
1C0000
1C0000
1C0000
FFE000
FFE000
FFE000
1C0000
1C0000
1C0000
1F8000
1F8000
1F8000
1F8000
038000
078000
078000
3F8000
3F0000
3C0000
ENDCHAR
STARTCHAR uni04FC
ENCODING 1276
SWIDTH 600 0
DWIDTH 19 0
BBX 20 28 1 -6
BITMAP
F807C0
780F80
3C0F00
3C1F00
1E1E00
1E3C00
0F3C00
0F7800
07F800
03F000
03E000
03E000
03F000
07F800
0F7800
0F3C00
1E3C00
1E1E00
3C1FF0
7C0FF0
7807F0
F807F0
0000F0
0000F0
0000F0
0007E0
0007C0
000780
ENDCHAR
STARTCHAR uni04FD
ENCODING 1277
SWIDTH 600 0
DWIDTH 19 0
BBX 17 23 2 -6
BITMAP
F01F00
781E00
7C3C00
3C7C00
1E7800
0FF000
0FE000
07E000
03C000
07E000
0FF000
1FF000
1E7800
3C3F80
783F80
781F80
F00F80
000380
000780
000780
003F80
003F00
003C00
ENDCHAR
STARTCHAR uni04FE
ENCODING 1278
SWIDTH 600 0
DWIDTH 19 0
BBX 18 22 1 0
BITMAP
F807C0
780F80
3C0F00
3C1E00
1E1E00
1E3C00
0F7800
07F800
07F000
0FFC00
0FFC00
0FFC00
07F000
07F800
0F7800
0F3C00
1E3E00
3E1E00
3C1F00
7C0F00
780780
F807C0
ENDCHAR
STARTCHAR uni04FF
ENCODING 1279
SWIDTH 600 0
DWIDTH 19 0
BBX 16 17 2 0
BITMAP
F01F
781E
7C3C
3C7C
1E78
0FF0
0FE0
3FF8
3FF8
3FF8
0FF0
1FF0
1E78
3C3C
783C
781E
F00F
ENDCHAR
STARTCHAR uni0500
ENCODING 1280
SWIDTH 600 0
DWIDTH 19 0
BBX 16 22 1 0
BITMAP
000F
000F
000F
000F
000F
000F
000F
000F
07FF
1FFF
3FFF
7C0F
780F
F00F
F00F
F00F
F00F
780F
7C0F
3FFF
1FFF
07FF
ENDCHAR
STARTCHAR uni0501
ENCODING 1281
SWIDTH 600 0
DWIDTH 19 0
BBX 15 23 2 0
BITMAP
001E
001E
001E
001E
001E
001E
0F9E
1FFE
3FFE
7C3E
781E
F01E
F01E
F01E
F01E
F01E
F01E
F01E
781E
7C3E
3FFE
1FFE
0F9E
ENDCHAR
STARTCHAR uni0502
ENCODING 1282
SWIDTH 600 0
DWIDTH 19 0
BBX 18 22 1 0
BITMAP
00E000
00E000
00E000
00E000
00E000
00E000
00E000
00E000
0FE780
3FE380
3FE3C0
78E3C0
70E3C0
F0E3C0
F0E3C0
F0E3C0
F0E3C0
78E3C0
78E780
3FFF80
3FFF00
0FFC00
ENDCHAR
STARTCHAR uni0503
ENCODING 1283
SWIDTH 600 0
DWIDTH 19 0
BBX 17 25 1 0
BITMAP
01E000
01E000
01E000
01E000
01E000
01E000
01E000
01E000
1FE000
3FE000
3FE000
79E780
79E780
71E780
F1E380
F1E380
F1E380
F1E380
F1E380
71E780
70E780
79F780
7FFF00
3F7E00
1E3C00
ENDCHAR
STARTCHAR uni0504
ENCODING 1284
SWIDTH 600 0
DWIDTH 19 0
BBX 17 22 1 0
BITMAP
FC0000
FF0000
FF8000
07C000
03C000
03C000
03C000
03C700
078780
7F8780
7E0780
7F8780
078380
03C380
03C780
03C780
03C780
03C780
03CF00
01FF00
01FE00
007800
ENDCHAR
STARTCHAR uni0505
ENCODING 1285
SWIDTH 600 0
DWIDTH 19 0
BBX 17 17 1 0
BITMAP
FE0000
FF8000
FFC000
03C000
01E000
01E700
03C780
3F8780
3F8780
3FC780
03E780
01E780
01E780
01E780
01FF00
00FE00
007C00
ENDCHAR
STARTCHAR uni0506
ENCODING 1286
SWIDTH 600 0
DWIDTH 19 0
BBX 15 28 3 -6
BITMAP
FF00
FFC0
FFE0
01F0
00F0
00F0
00F0
00F0
00F0
01E0
7FC0
7F80
7FE0
01E0
00F0
00F0
00F0
00F0
00FE
00FE
007E
007E
001E
001E
001E
001C
0038
0008
ENDCHAR
STARTCHAR uni0507
ENCODING 1287
SWIDTH 600 0
DWIDTH 19 0
BBX 15 23 3 -6
BITMAP
FF00
FFC0
FFE0
01E0
00F0
00F0
00E0
01E0
7FC0
7F80
7FE0
01E0
00F0
00F0
00FE
00FE
00FE
001E
001C
001C
003C
0038
0070
ENDCHAR
STARTCHAR uni0508
ENCODING 1288
SWIDTH 600 0
DWIDTH 19 0
BBX 19 22 0 0
BITMAP
1FF800
1FF800
1FF800
1E7800
1E7800
1E7800
1E7800
1E7800
1E79C0
1E79C0
1E79C0
1E79E0
1E79E0
1E79E0
1E79E0
1E79E0
1C79C0
3C79C0
3C7BC0
F87F80
F83F80
E01E00
ENDCHAR
STARTCHAR uni0509
ENCODING 1289
SWIDTH 600 0
DWIDTH 19 0
BBX 17 17 1 0
BITMAP
3FE000
3FE000
3FE000
38E700
38E780
38E780
38E780
38E380
38E380
38E380
38E380
78E780
78E780
78F780
F0FF00
F07E00
C03C00
ENDCHAR
STARTCHAR uni050A
ENCODING 1290
SWIDTH 600 0
DWIDTH 19 0
BBX 18 22 1 0
BITMAP
F0F000
F0F000
F0F000
F0F000
F0F000
F0F000
F0F000
F0F780
F0F780
FFF780
FFF380
FFF380
F0F380
F0F3C0
F0F380
F0F380
F0F380
F0F780
F0F780
F0FF00
F07E00
F03C00
ENDCHAR
STARTCHAR uni050B
ENCODING 1291
SWIDTH 600 0
DWIDTH 19 0
BBX 17 17 1 0
BITMAP
F1E000
F1E000
F1E000
F1E700
F1E780
F1E780
F1E780
FFE780
FFE780
FFE780
F1E780
F1E780
F1E780
F1E700
F0FF00
F0FE00
F07C00
ENDCHAR
STARTCHAR uni050C
ENCODING 1292
SWIDTH 600 0
DWIDTH 19 0
BBX 16 22 2 0
BITMAP
07F0
1FFC
3FF8
7C08
7800
F000
F000
F000
F000
F000
F00E
F00F
F00F
F00F
F00F
F00F
F00F
780F
7C1E
3FFE
1FFC
07F0
ENDCHAR
STARTCHAR uni050D
ENCODING 1293
SWIDTH 600 0
DWIDTH 19 0
BBX 16 17 2 0
BITMAP
03F0
0FFC
3FF8
3C08
7800
7800
F000
F000
F000
F00E
F00F
780F
780F
3E1E
3FFE
0FFC
03F0
ENDCHAR
STARTCHAR uni050E
ENCODING 1294
SWIDTH 600 0
DWIDTH 19 0
BBX 17 22 1 0
BITMAP
FFFE00
FFFE00
FFFE00
078000
078000
078000
078000
078000
078780
078780
078780
078380
078380
078380
078380
078380
078780
078780
03CF00
03FF00
01FE00
00F800
ENDCHAR
STARTCHAR uni050F
ENCODING 1295
SWIDTH 600 0
DWIDTH 19 0
BBX 17 17 1 0
BITMAP
FFFC00
FFFC00
FFFC00
078000
078000
078F00
078700
078700
078780
078780
078780
078780
078780
078F00
03FF00
03FE00
00F800
ENDCHAR
STARTCHAR uni0510
ENCODING 1296
SWIDTH 600 0
DWIDTH 19 0
BBX 17 22 1 0
BITMAP
07F000
1FFC00
3FFE00
7C1F00
780F00
780700
700000
780000
3C0000
1FF000
0FF000
3FF000
7C0000
780000
F00000
F00000
F00780
780F00
7C1F00
3FFE00
1FFC00
07F000
ENDCHAR
STARTCHAR uni0511
ENCODING 1297
SWIDTH 600 0
DWIDTH 19 0
BBX 16 17 2 0
BITMAP
0FF0
3FFC
7FFE
781E
F00F
F000
7800
3FF0
1FF0
7FF0
F800
F000
F00F
F81F
7FFE
3FFC
0FF0
ENDCHAR
STARTCHAR uni0512
ENCODING 1298
SWIDTH 600 0
DWIDTH 19 0
BBX 20 28 1 -6
BITMAP
1FFF00
1FFF00
1FFF00
1E0F00
1E0F00
1E0F00
1E0F00
1E0F00
1E0F00
1E0F00
1E0F00
1E0F00
1E0F00
1E0F00
1E0F00
1C0F00
1C0F00
3C0F00
3C0FF0
F80FF0
F00FF0
E00FF0
0000F0
0000F0
0001E0
000FE0
000FC0
000F80
ENDCHAR
STARTCHAR uni0513
ENCODING 1299
SWIDTH 600 0
DWIDTH 19 0
BBX 20 23 1 -6
BITMAP
1FFF00
1FFF00
1FFF00
1E0F00
1E0F00
1E0F00
1E0F00
1E0F00
1E0F00
1E0F00
1E0F00
1C0F00
3C0F00
3C0FF0
F80FF0
F80FF0
E00FF0
0000F0
0000E0
0001E0
000FE0
000FC0
000F80
ENDCHAR
STARTCHAR uni1E00
ENCODING 7680
SWIDTH 600 0
DWIDTH 19 0
BBX 18 28 1 -6
BITMAP
01E000
01E000
03E000
03F000
03F000
07F000
07F800
077800
0F3800
0F3C00
0E3C00
1E1C00
1E1E00
1C1E00
3FFE00
3FFF00
3FFF00
780700
780780
700780
F00780
F003C0
000000
000000
01C000
036000
036000
01C000
ENDCHAR
STARTCHAR uni1E01
ENCODING 7681
SWIDTH 600 0
DWIDTH 19 0
BBX 15 23 2 -6
BITMAP
0FC0
3FF0
7FF8
787C
F03C
001C
001C
0FFC
3FFC
781C
F01C
F01C
F03C
F87C
7FFC
3FFE
1F9E
0000
0000
0700
0D80
0D80
0700
ENDCHAR
STARTCHAR uni1E3E
ENCODING 7742
SWIDTH 600 0
DWIDTH 19 0
BBX 15 27 2 0
BITMAP
00F8
00E0
01C0
0380
0000
F81E
F83E
F83E
FC3E
FC7E
FC7E
EE7E
EEEE
EEEE
F7EE
F7CE
F7CE
F3CE
F38E
F38E
F00E
F00E
F00E
F00E
F00E
F00E
F00E
ENDCHAR
STARTCHAR uni1E3F
ENCODING 7743
SWIDTH 600 0
DWIDTH 19 0
BBX 17 22 1 0
BITMAP
003E00
007800
007000
00E000
000000
F79E00
FFFF00
FFFF80
F1E780
F1C780
F1C780
F1C780
F1C780
F1C780
F1C780
F1C780
F1C780
F1C780
F1C780
F1C780
F1C780
F1C780
ENDCHAR
STARTCHAR Wgrave
ENCODING 7808
SWIDTH 600 0
DWIDTH 19 0
BBX 18 27 1 0
BITMAP
1F0000
070000
038000
01C000
000000
E1C3C0
E1C380
F1E380
F1E380
F3E380
F3E380
73E780
73E780
73F780
737700
777700
7F7700
7F3700
3F3700
3F3700
3E3F00
3E3F00
3E3E00
3E1E00
3E1E00
3C1E00
1C1E00
ENDCHAR
STARTCHAR wgrave
ENCODING 7809
SWIDTH 600 0
DWIDTH 19 0
BBX 18 22 1 0
BITMAP
1F0000
070000
038000
01C000
000000
E1C3C0
E1C380
E1C380
E1E380
F3E380
73E780
736700
736700
737700
777700
363700
3E3600
3E3E00
3E3E00
3E1E00
1C1E00
1C1C00
ENDCHAR
STARTCHAR Wacute
ENCODING 7810
SWIDTH 600 0
DWIDTH 19 0
BBX 18 27 1 0
BITMAP
007C00
007800
00E000
01C000
000000
E1C3C0
E1C380
F1E380
F1E380
F3E380
F3E380
73E780
73E780
73F780
737700
777700
7F7700
7F3700
3F3700
3F3700
3E3F00
3E3F00
3E3E00
3E1E00
3E1E00
3C1E00
1C1E00
ENDCHAR
STARTCHAR wacute
ENCODING 7811
SWIDTH 600 0
DWIDTH 19 0
BBX 18 22 1 0
BITMAP
007C00
007000
00E000
01C000
000000
E1C3C0
E1C380
E1C380
E1E380
F3E380
73E780
736700
736700
737700
777700
363700
3E3600
3E3E00
3E3E00
3E1E00
1C1E00
1C1C00
ENDCHAR
STARTCHAR Wdieresis
ENCODING 7812
SWIDTH 600 0
DWIDTH 19 0
BBX 18 27 1 0
BITMAP
0C1800
1E3C00
1E3C00
0C1800
000000
E1C3C0
E1C380
F1E380
F1E380
F3E380
F3E380
73E780
73E780
73F780
737700
777700
7F7700
7F3700
3F3700
3F3700
3E3F00
3E3F00
3E3E00
3E1E00
3E1E00
3C1E00
1C1E00
ENDCHAR
STARTCHAR wdieresis
ENCODING 7813
SWIDTH 600 0
DWIDTH 19 0
BBX 18 22 1 0
BITMAP
0C1800
1E3C00
1E3C00
0C1800
000000
E1C3C0
E1C380
E1C380
E1E380
F3E380
73E780
736700
736700
737700
777700
363700
3E3600
3E3E00
3E3E00
3E1E00
1C1E00
1C1C00
ENDCHAR
STARTCHAR uni1EA0
ENCODING 7840
SWIDTH 600 0
DWIDTH 19 0
BBX 18 27 1 -5
BITMAP
01E000
01E000
03E000
03F000
03F000
07F000
07F800
077800
0F3800
0F3C00
0E3C00
1E1C00
1E1E00
1C1E00
3FFE00
3FFF00
3FFF00
780700
780780
700780
F00780
F003C0
000000
01C000
01E000
01E000
01C000
ENDCHAR
STARTCHAR uni1EA1
ENCODING 7841
SWIDTH 600 0
DWIDTH 19 0
BBX 15 22 2 -5
BITMAP
0FC0
3FF0
7FF8
787C
F03C
001C
001C
0FFC
3FFC
781C
F01C
F01C
F03C
F87C
7FFC
3FFE
1F9E
0000
0700
0780
0780
0700
ENDCHAR
STARTCHAR uni1EA2
ENCODING 7842
SWIDTH 600 0
DWIDTH 19 0
BBX 18 30 1 0
BITMAP
01E000
01F000
007800
007800
01F000
01C000
000000
000000
01E000
01E000
03E000
03F000
03F000
07F000
07F800
077800
0F3800
0F3C00
0E3C00
1E1C00
1E1E00
1C1E00
3FFE00
3FFF00
3FFF00
780700
780780
700780
F00780
F003C0
ENDCHAR
STARTCHAR uni1EA3
ENCODING 7843
SWIDTH 600 0
DWIDTH 19 0
BBX 15 25 2 0
BITMAP
0380
03E0
00E0
00E0
03C0
0380
0000
0000
0FC0
3FF0
7FF8
787C
F03C
001C
001C
0FFC
3FFC
781C
F01C
F01C
F03C
F87C
7FFC
3FFE
1F9E
ENDCHAR
STARTCHAR uni1EA4
ENCODING 7844
SWIDTH 600 0
DWIDTH 19 0
BBX 19 31 1 0
BITMAP
0001E0
0001C0
01C380
03E700
077000
0E3C00
100200
000000
000000
01E000
01E000
03E000
03F000
03F000
07F000
07F800
077800
0F3800
0F3C00
0E3C00
1E1C00
1E1E00
1C1E00
3FFE00
3FFF00
3FFF00
780700
780780
700780
F00780
F003C0
ENDCHAR
STARTCHAR uni1EA5
ENCODING 7845
SWIDTH 600 0
DWIDTH 19 0
BBX 18 26 2 0
BITMAP
0003C0
000700
038700
07CE00
0EE000
1C7000
200800
000000
000000
0FC000
3FF000
7FF800
787C00
F03C00
001C00
001C00
0FFC00
3FFC00
781C00
F01C00
F01C00
F03C00
F87C00
7FFC00
3FFE00
1F9E00
ENDCHAR
STARTCHAR uni1EA6
ENCODING 7846
SWIDTH 600 0
DWIDTH 19 0
BBX 20 31 -1 0
BITMAP
F00000
380000
1C7000
0CF800
01DE00
038F00
040080
000000
000000
007800
007800
00F800
00FC00
00FC00
01FC00
01FE00
01DE00
03CE00
03CF00
038F00
078700
078780
070780
0FFF80
0FFFC0
0FFFC0
1E01C0
1E01E0
1C01E0
3C01E0
3C00F0
ENDCHAR
STARTCHAR uni1EA7
ENCODING 7847
SWIDTH 600 0
DWIDTH 19 0
BBX 18 26 -1 0
BITMAP
F00000
380000
387000
1CF800
01DC00
078F00
000000
000000
000000
01F800
07FE00
0FFF00
0F0F80
1E0780
000380
000380
01FF80
07FF80
0F0380
1E0380
1E0380
1E0780
1F0F80
0FFF80
07FFC0
03F3C0
ENDCHAR
STARTCHAR uni1EA8
ENCODING 7848
SWIDTH 600 0
DWIDTH 19 0
BBX 18 32 1 0
BITMAP
000380
0001C0
0000C0
01C3C0
03E300
077000
0E1C00
100200
000000
000000
01E000
01E000
03E000
03F000
03F000
07F000
07F800
077800
0F3800
0F3C00
0E3C00
1E1C00
1E1E00
1C1E00
3FFE00
3FFF00
3FFF00
780700
780780
700780
F00780
F003C0
ENDCHAR
STARTCHAR uni1EA9
ENCODING 7849
SWIDTH 600 0
DWIDTH 19 0
BBX 17 27 2 0
BITMAP
000600
000B00
000180
038700
07C600
0EE000
3C7000
000800
000000
000000
0FC000
3FF000
7FF800
787C00
F03C00
001C00
001C00
0FFC00
3FFC00
781C00
F01C00
F01C00
F03C00
F87C00
7FFC00
3FFE00
1F9E00
ENDCHAR
STARTCHAR uni1EAA
ENCODING 7850
SWIDTH 600 0
DWIDTH 19 0
BBX 18 33 1 0
BITMAP
001800
07D800
06F000
040000
01C000
03E000
073800
0E1C00
100200
000000
000000
01E000
01E000
03E000
03F000
03F000
07F000
07F800
077800
0F3800
0F3C00
0E3C00
1E1C00
1E1E00
1C1E00
3FFE00
3FFF00
3FFF00
780700
780780
700780
F00780
F003C0
ENDCHAR
STARTCHAR uni1EAB
ENCODING 7851
SWIDTH 600 0
DWIDTH 19 0
BBX 15 28 2 0
BITMAP
0030
0FE0
09E0
1800
0380
07C0
0EE0
1C70
2008
0000
0000
0FC0
3FF0
7FF8
787C
F03C
001C
001C
0FFC
3FFC
781C
F01C
F01C
F03C
F87C
7FFC
3FFE
1F9E
ENDCHAR
STARTCHAR uni1EAC
ENCODING 7852
SWIDTH 600 0
DWIDTH 19 0
BBX 18 33 1 -5
BITMAP
01E000
03F000
077800
0E1C00
000000
000000
01E000
01E000
03E000
03F000
03F000
07F000
07F800
077800
0F3800
0F3C00
0E3C00
1E1C00
1E1E00
1C1E00
3FFE00
3FFF00
3FFF00
780700
780780
700780
F00780
F003C0
000000
01C000
01E000
01E000
01C000
ENDCHAR
STARTCHAR uni1EAD
ENCODING 7853
SWIDTH 600 0
DWIDTH 19 0
BBX 15 28 2 -5
BITMAP
0380
07C0
1EF0
3C78
0000
0000
0FC0
3FF0
7FF8
787C
F03C
001C
001C
0FFC
3FFC
781C
F01C
F01C
F03C
F87C
7FFC
3FFE
1F9E
0000
0700
0780
0780
0700
ENDCHAR
STARTCHAR uni1EAE
ENCODING 7854
SWIDTH 600 0
DWIDTH 19 0
BBX 18 31 1 0
BITMAP
007000
006000
00C000
0E1C00
0E1C00
07F800
01C000
000000
000000
01E000
01E000
03E000
03F000
03F000
07F000
07F800
077800
0F3800
0F3C00
0E3C00
1E1C00
1E1E00
1C1E00
3FFE00
3FFF00
3FFF00
780700
780780
700780
F00780
F003C0
ENDCHAR
STARTCHAR uni1EAF
ENCODING 7855
SWIDTH 600 0
DWIDTH 19 0
BBX 15 26 2 0
BITMAP
00E0
01C0
0380
3838
1C70
1FF0
0380
0000
0000
0FC0
3FF0
7FF8
787C
F03C
001C
001C
0FFC
3FFC
781C
F01C
F01C
F03C
F87C
7FFC
3FFE
1F9E
ENDCHAR
STARTCHAR uni1EB0
ENCODING 7856
SWIDTH 600 0
DWIDTH 19 0
BBX 18 33 1 0
BITMAP
0F8000
038000
01C000
002000
0E1C00
0E1C00
0FF800
07F800
00C000
000000
000000
01E000
01E000
03E000
03F000
03F000
07F000
07F800
077800
0F3800
0F3C00
0E3C00
1E1C00
1E1E00
1C1E00
3FFE00
3FFF00
3FFF00
780700
780780
700780
F00780
F003C0
ENDCHAR
STARTCHAR uni1EB1
ENCODING 7857
SWIDTH 600 0
DWIDTH 19 0
BBX 15 28 2 0
BITMAP
1E00
0F00
0780
0000
3838
1C70
1FF0
0FE0
0380
0000
0000
0FC0
3FF0
7FF8
787C
F03C
001C
001C
0FFC
3FFC
781C
F01C
F01C
F03C
F87C
7FFC
3FFE
1F9E
ENDCHAR
STARTCHAR uni1EB2
ENCODING 7858
SWIDTH 600 0
DWIDTH 19 0
BBX 18 33 1 0
BITMAP
01C000
006000
003000
00E000
00C000
0C1C00
0E3800
07F800
01C000
000000
000000
01E000
01E000
03E000
03F000
03F000
07F000
07F800
077800
0F3800
0F3C00
0E3C00
1E1C00
1E1E00
1C1E00
3FFE00
3FFF00
3FFF00
780700
780780
700780
F00780
F003C0
ENDCHAR
STARTCHAR uni1EB3
ENCODING 7859
SWIDTH 600 0
DWIDTH 19 0
BBX 15 28 2 0
BITMAP
0380
00C0
00C0
03C0
0300
3830
1C70
1FE0
0380
0000
0000
0FC0
3FF0
7FF8
787C
F03C
001C
001C
0FFC
3FFC
781C
F01C
F01C
F03C
F87C
7FFC
3FFE
1F9E
ENDCHAR
STARTCHAR uni1EB4
ENCODING 7860
SWIDTH 600 0
DWIDTH 19 0
BBX 18 32 1 0
BITMAP
079800
07F800
0C7000
000000
0E1C00
0E3C00
07F800
01E000
000000
000000
01E000
01E000
03E000
03F000
03F000
07F000
07F800
077800
0F3800
0F3C00
0E3C00
1E1C00
1E1E00
1C1E00
3FFE00
3FFF00
3FFF00
780700
780780
700780
F00780
F003C0
ENDCHAR
STARTCHAR uni1EB5
ENCODING 7861
SWIDTH 600 0
DWIDTH 19 0
BBX 15 27 2 0
BITMAP
0F30
1FF0
18E0
0000
3830
1C70
1FE0
07C0
0000
0000
0FC0
3FF0
7FF8
787C
F03C
001C
001C
0FFC
3FFC
781C
F01C
F01C
F03C
F87C
7FFC
3FFE
1F9E
ENDCHAR
STARTCHAR uni1EB6
ENCODING 7862
SWIDTH 600 0
DWIDTH 19 0
BBX 18 33 1 -5
BITMAP
0E1C00
0E3C00
07F800
03F000
000000
000000
01E000
01E000
03E000
03F000
03F000
07F000
07F800
077800
0F3800
0F3C00
0E3C00
1E1C00
1E1E00
1C1E00
3FFE00
3FFF00
3FFF00
780700
780780
700780
F00780
F003C0
000000
01C000
01E000
01E000
01C000
ENDCHAR
STARTCHAR uni1EB7
ENCODING 7863
SWIDTH 600 0
DWIDTH 19 0
BBX 15 28 2 -5
BITMAP
1838
1C70
1FF0
07E0
0000
0000
0FC0
3FF0
7FF8
787C
F03C
001C
001C
0FFC
3FFC
781C
F01C
F01C
F03C
F87C
7FFC
3FFE
1F9E
0000
0700
0780
0780
0700
ENDCHAR
STARTCHAR uni1EB8
ENCODING 7864
SWIDTH 600 0
DWIDTH 19 0
BBX 14 27 3 -5
BITMAP
FFFC
FFFC
FFFC
E000
E000
E000
E000
E000
E000
FFF8
FFF8
FFF8
E000
E000
E000
E000
E000
E000
E000
FFFC
FFFC
FFFC
0000
0780
0780
0780
0780
ENDCHAR
STARTCHAR uni1EB9
ENCODING 7865
SWIDTH 600 0
DWIDTH 19 0
BBX 15 22 2 -5
BITMAP
07E0
1FF8
3FFC
7C3C
781E
F01E
F00E
FFFE
FFFE
FFFE
F000
F000
7804
7C1E
3FFE
1FF8
07F0
0000
0380
03C0
03C0
03C0
ENDCHAR
STARTCHAR uni1EBA
ENCODING 7866
SWIDTH 600 0
DWIDTH 19 0
BBX 14 30 3 0
BITMAP
0780
07C0
00E0
05E0
03C0
0300
0000
0000
FFFC
FFFC
FFFC
E000
E000
E000
E000
E000
E000
FFF8
FFF8
FFF8
E000
E000
E000
E000
E000
E000
E000
FFFC
FFFC
FFFC
ENDCHAR
STARTCHAR uni1EBB
ENCODING 7867
SWIDTH 600 0
DWIDTH 19 0
BBX 15 25 2 0
BITMAP
0380
03E0
00E0
00E0
03C0
0380
0000
0000
07E0
1FF8
3FFC
7C3C
781E
F01E
F00E
FFFE
FFFE
FFFE
F000
F000
7804
7C1E
3FFE
1FF8
07F0
ENDCHAR
STARTCHAR uni1EBC
ENCODING 7868
SWIDTH 600 0
DWIDTH 19 0
BBX 14 28 3 0
BITMAP
1E38
3FF0
3FF0
71E0
0000
0000
FFFC
FFFC
FFFC
E000
E000
E000
E000
E000
E000
FFF8
FFF8
FFF8
E000
E000
E000
E000
E000
E000
E000
FFFC
FFFC
FFFC
ENDCHAR
STARTCHAR uni1EBD
ENCODING 7869
SWIDTH 600 0
DWIDTH 19 0
BBX 15 23 2 0
BITMAP
0F18
1FF8
3FF0
31E0
0000
0000
07E0
1FF8
3FFC
7C3C
781E
F01E
F00E
FFFE
FFFE
FFFE
F000
F000
7804
7C1E
3FFE
1FF8
07F0
ENDCHAR
STARTCHAR uni1EBE
ENCODING 7870
SWIDTH 600 0
DWIDTH 19 0
BBX 17 31 3 0
BITMAP
000780
000700
030E00
0F9C00
1DC000
38F000
400800
000000
000000
FFFC00
FFFC00
FFFC00
E00000
E00000
E00000
E00000
E00000
E00000
FFF800
FFF800
FFF800
E00000
E00000
E00000
E00000
E00000
E00000
E00000
FFFC00
FFFC00
FFFC00
ENDCHAR
STARTCHAR uni1EBF
ENCODING 7871
SWIDTH 600 0
DWIDTH 19 0
BBX 18 26 2 0
BITMAP
0003C0
000700
038700
07CE00
0EE000
1C7000
200800
000000
000000
07E000
1FF800
3FFC00
7C3C00
781E00
F01E00
F00E00
FFFE00
FFFE00
FFFE00
F00000
F00000
780400
7C1E00
3FFE00
1FF800
07F000
ENDCHAR
STARTCHAR uni1EC0
ENCODING 7872
SWIDTH 600 0
DWIDTH 19 0
BBX 17 31 0 0
BITMAP
E00000
700000
386000
19F800
03BC00
070E00
080100
000000
000000
1FFF80
1FFF80
1FFF80
1C0000
1C0000
1C0000
1C0000
1C0000
1C0000
1FFF00
1FFF00
1FFF00
1C0000
1C0000
1C0000
1C0000
1C0000
1C0000
1C0000
1FFF80
1FFF80
1FFF80
ENDCHAR
STARTCHAR uni1EC1
ENCODING 7873
SWIDTH 600 0
DWIDTH 19 0
BBX 18 26 -1 0
BITMAP
F00000
380000
387000
1CF800
01DC00
078F00
000000
000000
000000
00FC00
03FF00
07FF80
0F8780
0F03C0
1E03C0
1E01C0
1FFFC0
1FFFC0
1FFFC0
1E0000
1E0000
0F0080
0F83C0
07FFC0
03FF00
00FE00
ENDCHAR
STARTCHAR uni1EC2
ENCODING 7874
SWIDTH 600 0
DWIDTH 19 0
BBX 16 32 3 0
BITMAP
000E
0007
0003
070F
0F8C
1CE0
3870
4008
0000
0000
FFFC
FFFC
FFFC
E000
E000
E000
E000
E000
E000
FFF8
FFF8
FFF8
E000
E000
E000
E000
E000
E000
E000
FFFC
FFFC
FFFC
ENDCHAR
STARTCHAR uni1EC3
ENCODING 7875
SWIDTH 600 0
DWIDTH 19 0
BBX 17 27 2 0
BITMAP
000600
000B00
000180
038700
07C600
0EE000
3C7000
000800
000000
000000
07E000
1FF800
3FFC00
7C3C00
781E00
F01E00
F00E00
FFFE00
FFFE00
FFFE00
F00000
F00000
780400
7C1E00
3FFE00
1FF800
07F000
ENDCHAR
STARTCHAR uni1EC4
ENCODING 7876
SWIDTH 600 0
DWIDTH 19 0
BBX 14 33 3 0
BITMAP
0020
1F60
1BC0
1000
0700
0F80
1CE0
3870
4008
0000
0000
FFFC
FFFC
FFFC
E000
E000
E000
E000
E000
E000
FFF8
FFF8
FFF8
E000
E000
E000
E000
E000
E000
E000
FFFC
FFFC
FFFC
ENDCHAR
STARTCHAR uni1EC5
ENCODING 7877
SWIDTH 600 0
DWIDTH 19 0
BBX 15 28 2 0
BITMAP
0030
0FE0
09E0
1800
0380
07C0
0EE0
1C70
2008
0000
0000
07E0
1FF8
3FFC
7C3C
781E
F01E
F00E
FFFE
FFFE
FFFE
F000
F000
7804
7C1E
3FFE
1FF8
07F0
ENDCHAR
STARTCHAR uni1EC6
ENCODING 7878
SWIDTH 600 0
DWIDTH 19 0
BBX 14 33 3 -5
BITMAP
0780
0FC0
1CE0
3870
0000
0000
FFFC
FFFC
FFFC
E000
E000
E000
E000
E000
E000
FFF8
FFF8
FFF8
E000
E000
E000
E000
E000
E000
E000
FFFC
FFFC
FFFC
0000
0780
0780
0780
0780
ENDCHAR
STARTCHAR uni1EC7
ENCODING 7879
SWIDTH 600 0
DWIDTH 19 0
BBX 15 28 2 -5
BITMAP
0380
07C0
1EF0
3C78
0000
0000
07E0
1FF8
3FFC
7C3C
781E
F01E
F00E
FFFE
FFFE
FFFE
F000
F000
7804
7C1E
3FFE
1FF8
07F0
0000
0380
03C0
03C0
03C0
ENDCHAR
STARTCHAR uni1EC8
ENCODING 7880
SWIDTH 600 0
DWIDTH 19 0
BBX 13 30 3 0
BITMAP
0F00
0F80
01C0
03C0
0780
0600
0000
0000
FFF8
FFF8
FFF8
0700
0700
0700
0700
0700
0700
0700
0700
0700
0700
0700
0700
0700
0700
0700
0700
FFF8
FFF8
FFF8
ENDCHAR
STARTCHAR uni1EC9
ENCODING 7881
SWIDTH 600 0
DWIDTH 19 0
BBX 14 25 3 0
BITMAP
0380
03E0
00E0
00E0
03C0
0380
0000
0000
FF80
FF80
FF80
0780
0780
0780
0780
0780
0780
0780
0780
0780
0780
0780
FFFC
FFFC
FFFC
ENDCHAR
STARTCHAR uni1ECA
ENCODING 7882
SWIDTH 600 0
DWIDTH 19 0
BBX 13 27 3 -5
BITMAP
FFF8
FFF8
FFF8
0700
0700
0700
0700
0700
0700
0700
0700
0700
0700
0700
0700
0700
0700
0700
0700
FFF8
FFF8
FFF8
0000
0700
0F00
0F00
0700
ENDCHAR
STARTCHAR uni1ECB
ENCODING 7883
SWIDTH 600 0
DWIDTH 19 0
BBX 14 27 3 -5
BITMAP
0380
0780
0780
0380
0000
FF80
FF80
FF80
0780
0780
0780
0780
0780
0780
0780
0780
0780
0780
0780
FFFC
FFFC
FFFC
0000
0380
07C0
07C0
0380
ENDCHAR
STARTCHAR uni1ECC
ENCODING 7884
SWIDTH 600 0
DWIDTH 19 0
BBX 17 27 1 -5
BITMAP
03E000
0FF800
1FFC00
3E1E00
780F00
780F00
780700
700780
F00780
F00780
F00780
F00780
F00780
F00780
700780
780700
780F00
780F00
3E1E00
1FFC00
0FF800
03E000
000000
01C000
01E000
01E000
01C000
ENDCHAR
STARTCHAR uni1ECD
ENCODING 7885
SWIDTH 600 0
DWIDTH 19 0
BBX 15 22 2 -5
BITMAP
07E0
1FF0
3FF8
7C3C
F81E
F01E
F01E
F00E
E00E
E00E
F01E
F01E
F81E
7C3C
3FF8
1FF0
07E0
0000
0380
07C0
07C0
0380
ENDCHAR
STARTCHAR uni1ECE
ENCODING 7886
SWIDTH 600 0
DWIDTH 19 0
BBX 17 30 1 0
BITMAP
01E000
01F000
007800
007000
01F000
01C000
000000
000000
03E000
0FF800
1FFC00
3E1E00
780F00
780F00
780700
700780
F00780
F00780
F00780
F00780
F00780
F00780
700780
780700
780F00
780F00
3E1E00
1FFC00
0FF800
03E000
ENDCHAR
STARTCHAR uni1ECF
ENCODING 7887
SWIDTH 600 0
DWIDTH 19 0
BBX 15 25 2 0
BITMAP
0380
03E0
00E0
00E0
03C0
0380
0000
0000
07E0
1FF0
3FF8
7C3C
F81E
F01E
F01E
F00E
E00E
E00E
F01E
F01E
F81E
7C3C
3FF8
1FF0
07E0
ENDCHAR
STARTCHAR uni1ED0
ENCODING 7888
SWIDTH 600 0
DWIDTH 19 0
BBX 19 32 1 0
BITMAP
0001E0
0001C0
01C380
03E700
077000
0E3C00
100000
000000
000000
000000
03E000
0FF800
1FFC00
3E1E00
780F00
780F00
780700
700780
F00780
F00780
F00780
F00780
F00780
F00780
700780
780700
780F00
780F00
3E1E00
1FFC00
0FF800
03E000
ENDCHAR
STARTCHAR uni1ED1
ENCODING 7889
SWIDTH 600 0
DWIDTH 19 0
BBX 18 26 2 0
BITMAP
0003C0
000380
038700
07CE00
0EE000
1C7000
200800
000000
000000
07E000
1FF000
3FF800
7C3C00
F81E00
F01E00
F01E00
F00E00
E00E00
E00E00
F01E00
F01E00
F81E00
7C3C00
3FF800
1FF000
07E000
ENDCHAR
STARTCHAR uni1ED2
ENCODING 7890
SWIDTH 600 0
DWIDTH 19 0
BBX 19 31 -1 0
BITMAP
F00000
380000
187000
1CF800
01DE00
038F00
040080
000000
000000
00F800
03FE00
07FF00
0F8780
1E03C0
1E03C0
1E01C0
1C01E0
3C01E0
3C01E0
3C01E0
3C01E0
3C01E0
3C01E0
1C01E0
1E01C0
1E03C0
1E03C0
0F8780
07FF00
03FE00
00F800
ENDCHAR
STARTCHAR uni1ED3
ENCODING 7891
SWIDTH 600 0
DWIDTH 19 0
BBX 18 26 -1 0
BITMAP
F00000
380000
187000
1CF800
01DC00
038F00
040000
000000
000000
00FC00
03FE00
07FF00
0F8780
1F03C0
1E03C0
1E03C0
1E01C0
1C01C0
1C01C0
1E03C0
1E03C0
1F03C0
0F8780
07FF00
03FE00
00FC00
ENDCHAR
STARTCHAR uni1ED4
ENCODING 7892
SWIDTH 600 0
DWIDTH 19 0
BBX 18 32 1 0
BITMAP
000380
0001C0
0000C0
01C380
03E300
077000
0E3C00
100000
000000
000000
03E000
0FF800
1FFC00
3E1E00
780F00
780F00
780700
700780
F00780
F00780
F00780
F00780
F00780
F00780
700780
780700
780F00
780F00
3E1E00
1FFC00
0FF800
03E000
ENDCHAR
STARTCHAR uni1ED5
ENCODING 7893
SWIDTH 600 0
DWIDTH 19 0
BBX 17 27 2 0
BITMAP
000700
000300
000180
038700
07C600
0EE000
1C7000
200800
000000
000000
07E000
1FF000
3FF800
7C3C00
F81E00
F01E00
F01E00
F00E00
E00E00
E00E00
F01E00
F01E00
F81E00
7C3C00
3FF800
1FF000
07E000
ENDCHAR
STARTCHAR uni1ED6
ENCODING 7894
SWIDTH 600 0
DWIDTH 19 0
BBX 17 33 1 0
BITMAP
001800
07F800
06F000
040000
01C000
03E000
077000
0E1C00
100200
000000
000000
03E000
0FF800
1FFC00
3E1E00
780F00
780F00
780700
700780
F00780
F00780
F00780
F00780
F00780
F00780
700780
780700
780F00
780F00
3E1E00
1FFC00
0FF800
03E000
ENDCHAR
STARTCHAR uni1ED7
ENCODING 7895
SWIDTH 600 0
DWIDTH 19 0
BBX 15 28 2 0
BITMAP
0030
0FF0
0DE0
0800
0380
07C0
0EE0
1C78
2000
0000
0000
07E0
1FF0
3FF8
7C3C
F81E
F01E
F01E
F00E
E00E
E00E
F01E
F01E
F81E
7C3C
3FF8
1FF0
07E0
ENDCHAR
STARTCHAR uni1ED8
ENCODING 7896
SWIDTH 600 0
DWIDTH 19 0
BBX 17 34 1 -5
BITMAP
01C000
03F000
077800
1E1C00
000000
000000
000000
03E000
0FF800
1FFC00
3E1E00
780F00
780F00
780700
700780
F00780
F00780
F00780
F00780
F00780
F00780
700780
780700
780F00
780F00
3E1E00
1FFC00
0FF800
03E000
000000
01C000
01E000
01E000
01C000
ENDCHAR
STARTCHAR uni1ED9
ENCODING 7897
SWIDTH 600 0
DWIDTH 19 0
BBX 15 28 2 -5
BITMAP
0380
07E0
0EF0
3C78
0000
0000
07E0
1FF0
3FF8
7C3C
F81E
F01E
F01E
F00E
E00E
E00E
F01E
F01E
F81E
7C3C
3FF8
1FF0
07E0
0000
0380
07C0
07C0
0380
ENDCHAR
STARTCHAR uni1EDA
ENCODING 7898
SWIDTH 600 0
DWIDTH 19 0
BBX 18 27 1 0
BITMAP
003C00
007800
00F000
01C000
0001C0
03E1C0
0FF9C0
1FFFC0
3E1F80
380F00
780F00
780700
700780
F00780
F00780
F00780
F00780
F00780
F00780
700780
780700
780F00
7C0F00
3E1E00
1FFC00
0FF800
03F000
ENDCHAR
STARTCHAR uni1EDB
ENCODING 7899
SWIDTH 600 0
DWIDTH 19 0
BBX 17 22 2 0
BITMAP
00F800
00E000
01C000
038380
000380
07C700
1FF700
3FFE00
7C7C00
F01E00
F01E00
F01E00
F00E00
E00E00
E00E00
F01E00
F01E00
F01E00
7C3C00
3FF800
1FF000
0FC000
ENDCHAR
STARTCHAR uni1EDC
ENCODING 7900
SWIDTH 600 0
DWIDTH 19 0
BBX 18 27 1 0
BITMAP
1F0000
078000
038000
01C000
0001C0
03E1C0
0FF9C0
1FFFC0
3E1F80
380F00
780F00
780700
700780
F00780
F00780
F00780
F00780
F00780
F00780
700780
780700
780F00
7C0F00
3E1E00
1FFC00
0FF800
03F000
ENDCHAR
STARTCHAR uni1EDD
ENCODING 7901
SWIDTH 600 0
DWIDTH 19 0
BBX 17 22 2 0
BITMAP
3E0000
0E0000
070000
038380
000380
07C700
1FF700
3FFE00
7C7C00
F01E00
F01E00
F01E00
F00E00
E00E00
E00E00
F01E00
F01E00
F01E00
7C3C00
3FF800
1FF000
0FC000
ENDCHAR
STARTCHAR uni1EDE
ENCODING 7902
SWIDTH 600 0
DWIDTH 19 0
BBX 18 30 1 0
BITMAP
01E000
01F000
007000
007000
01F000
01C000
000000
0001C0
03E1C0
0FF9C0
1FFFC0
3E1F80
380F00
780F00
780700
700780
F00780
F00780
F00780
F00780
F00780
F00780
700780
780700
780F00
7C0F00
3E1E00
1FFC00
0FF800
03F000
ENDCHAR
STARTCHAR uni1EDF
ENCODING 7903
SWIDTH 600 0
DWIDTH 19 0
BBX 17 25 2 0
BITMAP
038000
03E000
00E000
00E000
03C000
038000
000380
000380
07C700
1FF700
3FFE00
7C7C00
F01E00
F01E00
F01E00
F00E00
E00E00
E00E00
F01E00
F01E00
F01E00
7C3C00
3FF800
1FF000
0FC000
ENDCHAR
STARTCHAR uni1EE0
ENCODING 7904
SWIDTH 600 0
DWIDTH 19 0
BBX 18 29 1 0
BITMAP
078C00
0FFC00
1FFC00
187800
000000
000000
0001C0
03E1C0
0FF9C0
1FFFC0
3E1F80
380F00
780F00
780700
700780
F00780
F00780
F00780
F00780
F00780
F00780
700780
780700
780F00
7C0F00
3E1E00
1FFC00
0FF800
03F000
ENDCHAR
STARTCHAR uni1EE1
ENCODING 7905
SWIDTH 600 0
DWIDTH 19 0
BBX 17 23 2 0
BITMAP
0F1800
1FF800
3FF000
30E000
000380
000380
07C700
1FF700
3FFE00
7C7C00
F01E00
F01E00
F01E00
F00E00
E00E00
E00E00
F01E00
F01E00
F01E00
7C3C00
3FF800
1FF000
0FC000
ENDCHAR
STARTCHAR uni1EE2
ENCODING 7906
SWIDTH 600 0
DWIDTH 19 0
BBX 18 28 1 -5
BITMAP
0001C0
03E1C0
0FF9C0
1FFFC0
3E1F80
380F00
780F00
780700
700780
F00780
F00780
F00780
F00780
F00780
F00780
700780
780700
780F00
7C0F00
3E1E00
1FFC00
0FF800
03F000
000000
01C000
03E000
03E000
01C000
ENDCHAR
STARTCHAR uni1EE3
ENCODING 7907
SWIDTH 600 0
DWIDTH 19 0
BBX 17 24 2 -5
BITMAP
000380
000380
07C700
1FF700
3FFE00
7C7C00
F01E00
F01E00
F01E00
F00E00
E00E00
E00E00
F01E00
F01E00
F01E00
7C3C00
3FF800
1FF000
0FC000
000000
038000
07C000
07C000
038000
ENDCHAR
STARTCHAR uni1EE4
ENCODING 7908
SWIDTH 600 0
DWIDTH 19 0
BBX 15 27 2 -5
BITMAP
F01E
F01E
F01E
F01E
F01E
F01E
F01E
F01E
F01E
F01E
F01E
F01E
F01E
F01E
F01E
F01E
F01E
781E
7C3C
3FF8
1FF0
07E0
0000
0380
07C0
07C0
0380
ENDCHAR
STARTCHAR uni1EE5
ENCODING 7909
SWIDTH 600 0
DWIDTH 19 0
BBX 14 22 3 -5
BITMAP
E03C
E03C
E03C
E03C
E03C
E03C
E03C
E03C
E03C
E03C
E03C
E03C
F03C
F07C
7FFC
7FFC
1F3C
0000
0E00
1F00
1F00
0E00
ENDCHAR
STARTCHAR uni1EE6
ENCODING 7910
SWIDTH 600 0
DWIDTH 19 0
BBX 15 30 2 0
BITMAP
03C0
03E0
0070
00F0
01E0
0180
0000
0000
F01E
F01E
F01E
F01E
F01E
F01E
F01E
F01E
F01E
F01E
F01E
F01E
F01E
F01E
F01E
F01E
F01E
781E
7C3C
3FF8
1FF0
07E0
ENDCHAR
STARTCHAR uni1EE7
ENCODING 7911
SWIDTH 600 0
DWIDTH 19 0
BBX 14 25 3 0
BITMAP
0700
07C0
01C0
01C0
07C0
0700
0000
0000
E03C
E03C
E03C
E03C
E03C
E03C
E03C
E03C
E03C
E03C
E03C
E03C
F03C
F07C
7FFC
7FFC
1F3C
ENDCHAR
STARTCHAR uni1EE8
ENCODING 7912
SWIDTH 600 0
DWIDTH 19 0
BBX 21 27 2 0
BITMAP
007800
00F000
01E000
038000
000038
F01E70
F01E70
F01EF0
F01FE0
F01FC0
F01E00
F01E00
F01E00
F01E00
F01E00
F01E00
F01E00
F01E00
F01E00
F01E00
F01E00
F01E00
781E00
7C3C00
3FFC00
1FF800
07E000
ENDCHAR
STARTCHAR uni1EE9
ENCODING 7913
SWIDTH 600 0
DWIDTH 19 0
BBX 19 22 2 0
BITMAP
00F800
00F000
01C000
0380E0
0000E0
F01EE0
F01EE0
F01FC0
F01FC0
F01F00
F01E00
F01E00
F01E00
F01E00
F01E00
F01E00
F01E00
703E00
787E00
7FFE00
3FDE00
1F9E00
ENDCHAR
STARTCHAR uni1EEA
ENCODING 7914
SWIDTH 600 0
DWIDTH 19 0
BBX 21 27 2 0
BITMAP
3E0000
0F0000
070000
038000
000038
F01E70
F01E70
F01EF0
F01FE0
F01FC0
F01E00
F01E00
F01E00
F01E00
F01E00
F01E00
F01E00
F01E00
F01E00
F01E00
F01E00
F01E00
781E00
7C3C00
3FFC00
1FF800
07E000
ENDCHAR
STARTCHAR uni1EEB
ENCODING 7915
SWIDTH 600 0
DWIDTH 19 0
BBX 19 22 2 0
BITMAP
3E0000
0E0000
070000
0380E0
0000E0
F01EE0
F01EE0
F01FC0
F01FC0
F01F00
F01E00
F01E00
F01E00
F01E00
F01E00
F01E00
F01E00
703E00
787E00
7FFE00
3FDE00
1F9E00
ENDCHAR
STARTCHAR uni1EEC
ENCODING 7916
SWIDTH 600 0
DWIDTH 19 0
BBX 21 30 2 0
BITMAP
03C000
03E000
00E000
00E000
03E000
038000
000000
000038
F01E70
F01E70
F01EF0
F01FE0
F01FC0
F01E00
F01E00
F01E00
F01E00
F01E00
F01E00
F01E00
F01E00
F01E00
F01E00
F01E00
F01E00
781E00
7C3C00
3FFC00
1FF800
07E000
ENDCHAR
STARTCHAR uni1EED
ENCODING 7917
SWIDTH 600 0
DWIDTH 19 0
BBX 19 25 2 0
BITMAP
038000
03E000
00E000
00E000
03C000
038000
0000E0
0000E0
F01EE0
F01EE0
F01FC0
F01FC0
F01F00
F01E00
F01E00
F01E00
F01E00
F01E00
F01E00
F01E00
703E00
787E00
7FFE00
3FDE00
1F9E00
ENDCHAR
STARTCHAR uni1EEE
ENCODING 7918
SWIDTH 600 0
DWIDTH 19 0
BBX 21 29 2 0
BITMAP
0F1800
1FF800
3FF800
30F000
000000
000000
000038
F01E70
F01E70
F01EF0
F01FE0
F01FC0
F01E00
F01E00
F01E00
F01E00
F01E00
F01E00
F01E00
F01E00
F01E00
F01E00
F01E00
F01E00
781E00
7C3C00
3FFC00
1FF800
07E000
ENDCHAR
STARTCHAR uni1EEF
ENCODING 7919
SWIDTH 600 0
DWIDTH 19 0
BBX 19 23 2 0
BITMAP
0F1800
1FF800
3FF000
30F000
0000E0
0000E0
F01EE0
F01EE0
F01FC0
F01FC0
F01F00
F01E00
F01E00
F01E00
F01E00
F01E00
F01E00
F01E00
703E00
787E00
7FFE00
3FDE00
1F9E00
ENDCHAR
STARTCHAR uni1EF0
ENCODING 7920
SWIDTH 600 0
DWIDTH 19 0
BBX 21 28 2 -5
BITMAP
000038
F01E70
F01E70
F01EF0
F01FE0
F01FC0
F01E00
F01E00
F01E00
F01E00
F01E00
F01E00
F01E00
F01E00
F01E00
F01E00
F01E00
F01E00
781E00
7C3C00
3FFC00
1FF800
07E000
000000
038000
03C000
03C000
038000
ENDCHAR
STARTCHAR uni1EF1
ENCODING 7921
SWIDTH 600 0
DWIDTH 19 0
BBX 19 24 2 -5
BITMAP
0000E0
0000E0
F01EE0
F01EE0
F01FC0
F01FC0
F01F00
F01E00
F01E00
F01E00
F01E00
F01E00
F01E00
F01E00
703E00
787E00
7FFE00
3FDE00
0F9E00
000000
070000
0F8000
0F8000
070000
ENDCHAR
STARTCHAR Ygrave
ENCODING 7922
SWIDTH 600 0
DWIDTH 19 0
BBX 18 27 1 0
BITMAP
1F0000
078000
038000
01C000
000000
F007C0
F80780
780F00
780F00
3C1E00
3C1E00
1E1C00
1E3C00
0F3800
0F7800
077000
07F000
03E000
03E000
01C000
01C000
01C000
01C000
01C000
01C000
01C000
01C000
ENDCHAR
STARTCHAR ygrave
ENCODING 7923
SWIDTH 600 0
DWIDTH 19 0
BBX 18 28 1 -6
BITMAP
0F0000
078000
03C000
01E000
000000
F007C0
780780
780F80
3C0F00
3C0F00
3C1E00
1E1E00
1E3C00
0F3C00
0F3800
077800
07F000
03F000
03F000
01E000
01E000
01C000
03C000
038000
078000
3F0000
3E0000
3C0000
ENDCHAR
STARTCHAR uni1EF4
ENCODING 7924
SWIDTH 600 0
DWIDTH 19 0
BBX 18 27 1 -5
BITMAP
F007C0
F80780
780F00
780F00
3C1E00
3C1E00
1E1C00
1E3C00
0F3800
0F7800
077000
07F000
03E000
03E000
01C000
01C000
01C000
01C000
01C000
01C000
01C000
01C000
000000
01C000
01E000
03E000
01C000
ENDCHAR
STARTCHAR uni1EF5
ENCODING 7925
SWIDTH 600 0
DWIDTH 19 0
BBX 18 24 1 -7
BITMAP
F007C0
780780
780F80
3C0F00
3C0F00
3C1E00
1E1E00
1E3C00
0F3C00
0F3800
077800
07F000
03F000
03F000
01E000
01E000
01C000
03C000
038000
078000
3F1C00
3E1E00
3C3E00
001C00
ENDCHAR
STARTCHAR uni1EF6
ENCODING 7926
SWIDTH 600 0
DWIDTH 19 0
BBX 18 30 1 0
BITMAP
01C000
01F000
007000
007000
01F000
01C000
000000
000000
F007C0
F80780
780F00
780F00
3C1E00
3C1E00
1E1C00
1E3C00
0F3800
0F7800
077000
07F000
03E000
03E000
01C000
01C000
01C000
01C000
01C000
01C000
01C000
01C000
ENDCHAR
STARTCHAR uni1EF7
ENCODING 7927
SWIDTH 600 0
DWIDTH 19 0
BBX 18 31 1 -6
BITMAP
01E000
01F000
003800
007800
00F000
00C000
000000
000000
F007C0
780780
780F80
3C0F00
3C0F00
3C1E00
1E1E00
1E3C00
0F3C00
0F3800
077800
07F000
03F000
03F000
01E000
01E000
01C000
03C000
038000
078000
3F0000
3E0000
3C0000
ENDCHAR
STARTCHAR uni1EF8
ENCODING 7928
SWIDTH 600 0
DWIDTH 19 0
BBX 18 29 1 0
BITMAP
078C00
0FFC00
1FFC00
187800
000000
000000
000000
F007C0
F80780
780F00
780F00
3C1E00
3C1E00
1E1C00
1E3C00
0F3800
0F7800
077000
07F000
03E000
03E000
01C000
01C000
01C000
01C000
01C000
01C000
01C000
01C000
ENDCHAR
STARTCHAR uni1EF9
ENCODING 7929
SWIDTH 600 0
DWIDTH 19 0
BBX 18 29 1 -6
BITMAP
078E00
0FFC00
0FFC00
1C7800
000000
000000
F007C0
780780
780F80
3C0F00
3C0F00
3C1E00
1E1E00
1E3C00
0F3C00
0F3800
077800
07F000
03F000
03F000
01E000
01E000
01C000
03C000
038000
078000
3F0000
3E0000
3C0000
ENDCHAR
STARTCHAR uni1F4D
ENCODING 8013
SWIDTH 600 0
DWIDTH 19 0
BBX 20 25 -2 0
BITMAP
4E0000
CC0000
D80000
D87C00
D1FF00
03FF80
07C3C0
0F01E0
0F01E0
0F00E0
0E00F0
1E00F0
1E00F0
1E00F0
1E00F0
1E00F0
1E00F0
0E00F0
0F00E0
0F01E0
0F01E0
07C3C0
03FF80
01FF00
007C00
ENDCHAR
STARTCHAR uni2000
ENCODING 8192
SWIDTH 600 0
DWIDTH 19 0
BBX 1 1 0 0
BITMAP
00
ENDCHAR
STARTCHAR uni2001
ENCODING 8193
SWIDTH 600 0
DWIDTH 19 0
BBX 1 1 0 0
BITMAP
00
ENDCHAR
STARTCHAR uni2002
ENCODING 8194
SWIDTH 600 0
DWIDTH 19 0
BBX 1 1 0 0
BITMAP
00
ENDCHAR
STARTCHAR uni2003
ENCODING 8195
SWIDTH 600 0
DWIDTH 19 0
BBX 1 1 0 0
BITMAP
00
ENDCHAR
STARTCHAR uni2004
ENCODING 8196
SWIDTH 600 0
DWIDTH 19 0
BBX 1 1 0 0
BITMAP
00
ENDCHAR
STARTCHAR uni2005
ENCODING 8197
SWIDTH 600 0
DWIDTH 19 0
BBX 1 1 0 0
BITMAP
00
ENDCHAR
STARTCHAR uni2006
ENCODING 8198
SWIDTH 600 0
DWIDTH 19 0
BBX 1 1 0 0
BITMAP
00
ENDCHAR
STARTCHAR uni2007
ENCODING 8199
SWIDTH 600 0
DWIDTH 19 0
BBX 1 1 0 0
BITMAP
00
ENDCHAR
STARTCHAR uni2008
ENCODING 8200
SWIDTH 600 0
DWIDTH 19 0
BBX 1 1 0 0
BITMAP
00
ENDCHAR
STARTCHAR uni2009
ENCODING 8201
SWIDTH 600 0
DWIDTH 19 0
BBX 1 1 0 0
BITMAP
00
ENDCHAR
STARTCHAR uni200A
ENCODING 8202
SWIDTH 600 0
DWIDTH 19 0
BBX 1 1 0 0
BITMAP
00
ENDCHAR
STARTCHAR uni200B
ENCODING 8203
SWIDTH 600 0
DWIDTH 19 0
BBX 1 1 0 0
BITMAP
00
ENDCHAR
STARTCHAR endash
ENCODING 8211
SWIDTH 600 0
DWIDTH 19 0
BBX 17 3 1 10
BITMAP
FFFF80
FFFF80
FFFF80
ENDCHAR
STARTCHAR emdash
ENCODING 8212
SWIDTH 600 0
DWIDTH 19 0
BBX 17 3 1 10
BITMAP
FFFF80
FFFF80
FFFF80
ENDCHAR
STARTCHAR uni2015
ENCODING 8213
SWIDTH 600 0
DWIDTH 19 0
BBX 17 3 1 10
BITMAP
FFFF80
FFFF80
FFFF80
ENDCHAR
STARTCHAR underscoredbl
ENCODING 8215
SWIDTH 600 0
DWIDTH 19 0
BBX 14 7 3 -7
BITMAP
FFFC
FFFC
FFFC
0000
FFFC
FFFC
FFFC
ENDCHAR
STARTCHAR quoteleft
ENCODING 8216
SWIDTH 600 0
DWIDTH 19 0
BBX 4 9 8 16
BITMAP
20
70
70
E0
E0
E0
E0
E0
E0
ENDCHAR
STARTCHAR quoteright
ENCODING 8217
SWIDTH 600 0
DWIDTH 19 0
BBX 5 9 7 15
BITMAP
38
38
38
38
78
70
70
E0
20
ENDCHAR
STARTCHAR quotesinglbase
ENCODING 8218
SWIDTH 600 0
DWIDTH 19 0
BBX 5 9 7 -5
BITMAP
78
78
78
78
78
70
70
E0
40
ENDCHAR
STARTCHAR quotereversed
ENCODING 8219
SWIDTH 600 0
DWIDTH 19 0
BBX 5 9 7 15
BITMAP
E0
E0
E0
E0
F0
70
70
38
20
ENDCHAR
STARTCHAR quotedblleft
ENCODING 8220
SWIDTH 600 0
DWIDTH 19 0
BBX 10 9 5 16
BITMAP
2080
39C0
7380
7380
F380
E780
E780
E780
E780
ENDCHAR
STARTCHAR quotedblright
ENCODING 8221
SWIDTH 600 0
DWIDTH 19 0
BBX 10 9 5 15
BITMAP
73C0
73C0
73C0
73C0
7380
F380
E780
C700
4200
ENDCHAR
STARTCHAR quotedblbase
ENCODING 8222
SWIDTH 600 0
DWIDTH 19 0
BBX 9 9 5 -5
BITMAP
7B80
7B80
7B80
7380
7380
7380
E700
E700
4200
ENDCHAR
STARTCHAR dagger
ENCODING 8224
SWIDTH 600 0
DWIDTH 19 0
BBX 15 22 2 0
BITMAP
0380
0380
0380
0380
0380
FFFE
FFFE
FFFE
0380
0380
0380
0380
0380
0380
0380
0380
0380
0380
0380
0380
0380
0380
ENDCHAR
STARTCHAR daggerdbl
ENCODING 8225
SWIDTH 600 0
DWIDTH 19 0
BBX 15 28 2 -6
BITMAP
0380
0380
0380
0380
0380
FFFE
FFFE
FFFE
0380
0380
0380
0380
0380
0380
0380
0380
0380
0380
0380
FFFE
FFFE
FFFE
0380
0380
0380
0380
0380
0380
ENDCHAR
STARTCHAR bullet
ENCODING 8226
SWIDTH 600 0
DWIDTH 19 0
BBX 7 8 6 8
BITMAP
3C
7E
FE
FE
FE
FE
7E
3C
ENDCHAR
STARTCHAR uni2025
ENCODING 8229
SWIDTH 600 0
DWIDTH 19 0
BBX 13 5 4 0
BITMAP
78F0
F9F8
FDF8
F9F8
78F0
ENDCHAR
STARTCHAR ellipsis
ENCODING 8230
SWIDTH 600 0
DWIDTH 19 0
BBX 18 5 3 0
BITMAP
71C780
FBEF80
FBFFC0
FBEF80
71E780
ENDCHAR
STARTCHAR perthousand
ENCODING 8240
SWIDTH 600 0
DWIDTH 19 0
BBX 18 22 1 0
BITMAP
3C0000
7E0000
E70000
E70000
E70400
E70E00
7E3800
3C7000
01C000
038000
0E0000
1C0000
780000
63DF00
07FF80
0E7980
0E71C0
0E71C0
0E71C0
0E7B80
07FF80
03CF00
ENDCHAR
STARTCHAR minute
ENCODING 8242
SWIDTH 600 0
DWIDTH 19 0
BBX 3 8 7 15
BITMAP
E0
E0
E0
E0
E0
E0
E0
E0
ENDCHAR
STARTCHAR second
ENCODING 8243
SWIDTH 600 0
DWIDTH 19 0
BBX 9 8 5 15
BITMAP
E380
E380
E380
E380
E380
E380
C380
C380
ENDCHAR
STARTCHAR guilsinglleft
ENCODING 8249
SWIDTH 600 0
DWIDTH 19 0
BBX 7 12 6 2
BITMAP
0E
1C
1C
38
70
F0
F0
70
38
1C
1C
0E
ENDCHAR
STARTCHAR guilsinglright
ENCODING 8250
SWIDTH 600 0
DWIDTH 19 0
BBX 7 12 6 2
BITMAP
E0
70
38
38
1C
0E
0E
1C
38
38
70
E0
ENDCHAR
STARTCHAR exclamdbl
ENCODING 8252
SWIDTH 1200 0
DWIDTH 38 0
BBX 24 22 7 0
BITMAP
70000F
70000F
70000F
70000F
70000E
70000E
70000E
70000E
70000E
70000E
70000E
70000E
70000E
70000E
70000E
000000
000000
000000
70000E
F8001F
F8001F
70000E
ENDCHAR
STARTCHAR fraction
ENCODING 8260
SWIDTH 600 0
DWIDTH 19 0
BBX 10 16 4 3
BITMAP
00C0
00C0
01C0
0380
0300
0700
0600
0E00
0C00
1C00
1800
3800
3000
7000
E000
2000
ENDCHAR
STARTCHAR uni2074
ENCODING 8308
SWIDTH 600 0
DWIDTH 19 0
BBX 12 14 4 8
BITMAP
01C0
03C0
07C0
07C0
0FC0
1DC0
39C0
31C0
71C0
FFF0
FFF0
01C0
01C0
01C0
ENDCHAR
STARTCHAR nsuperior
ENCODING 8319
SWIDTH 600 0
DWIDTH 19 0
BBX 10 13 5 9
BITMAP
CF00
FF80
FFC0
F3C0
E1C0
E1C0
E1C0
E1C0
E1C0
E1C0
E1C0
E1C0
E1C0
ENDCHAR
STARTCHAR franc
ENCODING 8355
SWIDTH 600 0
DWIDTH 19 0
BBX 17 22 0 0
BITMAP
1FFF80
1FFF80
1FFF80
1C0000
1C0000
1C0000
1C0000
1C0000
1C0000
1FFF00
1FFF00
1FFF00
1C0000
1C0000
1C0000
FFE000
FFE000
FFE000
1C0000
1C0000
1C0000
1C0000
ENDCHAR
STARTCHAR lira
ENCODING 8356
SWIDTH 600 0
DWIDTH 19 0
BBX 16 22 2 0
BITMAP
03F0
0FFC
1FFE
1E1E
3C0F
3C0F
3C00
3C00
3C00
FFE0
FFE0
3C00
3C00
FFE0
FFE0
3C00
3C00
3C00
3800
FFFF
FFFF
FFFF
ENDCHAR
STARTCHAR peseta
ENCODING 8359
SWIDTH 600 0
DWIDTH 19 0
BBX 17 22 2 0
BITMAP
FC0000
FF0000
FF9C00
E79C00
E39C00
E3FF80
E3FF80
E39C00
E39C00
E79C00
FF1C00
FF1C00
FC1C00
E01C00
E01C00
E01C00
E01C00
E01C00
E01C00
E01F00
E01F80
E00F80
ENDCHAR
STARTCHAR uni20AB
ENCODING 8363
SWIDTH 614 0
DWIDTH 20 0
BBX 18 28 2 -5
BITMAP
001E00
01FFC0
01FFC0
01FFC0
001E00
001E00
0F9E00
1FFE00
3FFE00
7C3E00
781E00
F01E00
F01E00
F01E00
F01E00
F01E00
F01E00
F01E00
781E00
7C3E00
3FFE00
1FFE00
0F9E00
000000
000000
7FFF00
7FFF00
7FFF00
ENDCHAR
STARTCHAR Euro
ENCODING 8364
SWIDTH 600 0
DWIDTH 19 0
BBX 15 22 2 0
BITMAP
00FE
03FE
0FFE
0F80
1E00
1E00
1C00
FFF0
FFF0
1C00
1C00
FFF0
FFF0
1C00
1E00
1E00
1E00
0F00
0F82
07FE
03FE
00FE
ENDCHAR
STARTCHAR uni2105
ENCODING 8453
SWIDTH 600 0
DWIDTH 19 0
BBX 17 23 1 0
BITMAP
3C0000
7F0000
E70000
E30000
E00800
E01C00
E33800
E73000
7F7000
7E6000
08E000
00C000
01C000
019F00
03BF80
037380
077180
0E7180
0C7180
047180
007380
003F80
001F00
ENDCHAR
STARTCHAR uni2113
ENCODING 8467
SWIDTH 600 0
DWIDTH 19 0
BBX 13 23 3 0
BITMAP
0080
07F0
0FF0
0F78
1E38
1E38
1E38
1E38
1E78
1E70
1EF0
1FE0
1FC0
FF80
FE00
FE00
1E00
1E00
1E00
0F00
0FC0
07C0
03C0
ENDCHAR
STARTCHAR uni2116
ENCODING 8470
SWIDTH 600 0
DWIDTH 19 0
BBX 16 23 2 0
BITMAP
E1CE
E1DF
E1DB
F1DB
F1DB
F1DB
F9DB
F9DF
F9CE
F9C0
FDDF
FDDF
EDC0
EFC0
EFC0
E7C0
E7C0
E7C0
E7C0
E3C0
E3C0
E3C0
E1C0
ENDCHAR
STARTCHAR trademark
ENCODING 8482
SWIDTH 600 0
DWIDTH 19 0
BBX 15 9 2 14
BITMAP
FD86
FDC6
31CE
31CA
31EA
31BA
31B2
31B2
3192
ENDCHAR
STARTCHAR Omega.dup2
ENCODING 8486
SWIDTH 600 0
DWIDTH 19 0
BBX 17 22 1 0
BITMAP
03F000
0FF800
1FFC00
3E1E00
7C0F00
780F00
780780
700780
F00780
F00780
F00780
F00780
700780
780700
780F00
380F00
3C0E00
1C1C00
0F3800
7F3F80
7F3F80
7F3F80
ENDCHAR
STARTCHAR estimated
ENCODING 8494
SWIDTH 600 0
DWIDTH 19 0
BBX 16 17 2 0
BITMAP
07F0
0E38
180C
3006
7006
7007
7007
FFFF
FFFF
F000
7000
7000
7000
3000
1804
0E1C
07F0
ENDCHAR
STARTCHAR oneeighth
ENCODING 8539
SWIDTH 600 0
DWIDTH 19 0
BBX 18 23 1 0
BITMAP
0C0000
7C0000
FC0000
9C0000
1C1C00
1C1800
1C3800
1C3000
1C7000
1C6000
1CE000
00C000
01CF00
03BFC0
0339C0
0739C0
063FC0
0E0F00
0C3FC0
0430C0
0039C0
003FC0
001F80
ENDCHAR
STARTCHAR threeeighths
ENCODING 8540
SWIDTH 600 0
DWIDTH 19 0
BBX 18 23 1 0
BITMAP
7E0000
FF0000
C70000
030000
1F0800
1E1C00
073800
033800
E77000
FF6000
7EE000
00C000
01CF00
01BFC0
03B9C0
0339C0
073FC0
060F00
0E3FC0
0430C0
0039C0
003FC0
001F80
ENDCHAR
STARTCHAR fiveeighths
ENCODING 8541
SWIDTH 600 0
DWIDTH 19 0
BBX 19 23 0 0
BITMAP
7F0000
7F0000
700000
600000
7F0E00
7F8C00
039C00
039800
E3B800
7F3000
3E7000
00E000
00EF80
01DFC0
0198E0
0398E0
031DC0
070F80
061FC0
0238E0
0038E0
001FC0
000F80
ENDCHAR
STARTCHAR seveneighths
ENCODING 8542
SWIDTH 600 0
DWIDTH 19 0
BBX 18 23 1 0
BITMAP
FF8000
FF8000
030000
070000
061000
0E3800
0C3000
1C7000
186000
38E000
71C000
018000
039F00
033F80
0739C0
0631C0
0E3F80
0C1F00
1C3FC0
0471C0
0031C0
003FC0
001F00
ENDCHAR
STARTCHAR partialdiff
ENCODING 8706
SWIDTH 600 0
DWIDTH 19 0
BBX 15 24 2 0
BITMAP
0F80
3FE0
3FF0
31F8
007C
003C
001C
001E
0FCE
3FEE
7FFE
7C3E
F01E
F00E
F00E
F00E
F01E
F01E
F01E
F01C
783C
7FF8
3FF0
0FE0
ENDCHAR
STARTCHAR Delta.dup3
ENCODING 8710
SWIDTH 600 0
DWIDTH 19 0
BBX 18 22 1 0
BITMAP
01E000
01F000
01F000
03F000
03F800
07F800
07B800
073C00
0F3C00
0F1C00
0E1E00
1E1E00
1E0E00
1C0F00
3C0F00
3C0700
380780
780780
780780
FFFFC0
FFFFC0
FFFFC0
ENDCHAR
STARTCHAR product
ENCODING 8719
SWIDTH 600 0
DWIDTH 19 0
BBX 15 27 2 -4
BITMAP
FFFE
FFFE
FFFE
F01E
F01E
F01E
F01E
F01E
F01E
F01E
F01E
F01E
F01E
F01E
F01E
F01E
F01E
F01E
F01E
F01E
F01E
F01E
F01E
F01E
F01E
F01E
F01E
ENDCHAR
STARTCHAR summation
ENCODING 8721
SWIDTH 600 0
DWIDTH 19 0
BBX 18 27 1 -4
BITMAP
FFFF80
FFFF80
FFFF80
F80000
7C0000
3C0000
1E0000
0F0000
078000
07C000
03C000
01E000
00F000
007800
00F000
01F000
01E000
03C000
078000
0F0000
1F0000
3E0000
3C0000
780000
FFFFC0
FFFFC0
FFFFC0
ENDCHAR
STARTCHAR minus
ENCODING 8722
SWIDTH 600 0
DWIDTH 19 0
BBX 14 3 2 10
BITMAP
FFFC
FFFC
FFFC
ENDCHAR
STARTCHAR radical
ENCODING 8730
SWIDTH 600 0
DWIDTH 19 0
BBX 17 23 1 0
BITMAP
000380
000780
000700
000700
000F00
000E00
000E00
001E00
001C00
001C00
003C00
F83800
FC3800
FC7800
1C7000
1E7000
0E7000
0EE000
07E000
07E000
07C000
03C000
038000
ENDCHAR
STARTCHAR infinity
ENCODING 8734
SWIDTH 600 0
DWIDTH 19 0
BBX 18 11 1 4
BITMAP
3E1F00
7F3F80
E7F380
E1E1C0
C1C1C0
C1C1C0
E1E1C0
E3E1C0
F77B80
7F3F80
3E1F00
ENDCHAR
STARTCHAR integral
ENCODING 8747
SWIDTH 600 0
DWIDTH 19 0
BBX 12 32 4 -7
BITMAP
01F0
07E0
0FE0
0F80
0F00
1E00
1E00
1E00
1E00
1E00
1E00
1E00
1E00
1E00
1E00
1E00
1E00
1E00
1E00
1E00
1E00
1E00
1E00
1E00
1E00
1E00
1E00
1E00
3E00
FC00
FC00
F000
ENDCHAR
STARTCHAR approxequal
ENCODING 8776
SWIDTH 600 0
DWIDTH 19 0
BBX 15 12 2 4
BITMAP
3E02
7F86
FFFE
E1FE
807C
0000
0000
3E02
7F86
FFFE
C1FC
8078
ENDCHAR
STARTCHAR notequal
ENCODING 8800
SWIDTH 600 0
DWIDTH 19 0
BBX 15 15 2 2
BITMAP
0030
0030
FFFE
FFFE
FFFE
00C0
0180
0180
0300
FFFE
FFFE
FFFE
0C00
0C00
0400
ENDCHAR
STARTCHAR lessequal
ENCODING 8804
SWIDTH 600 0
DWIDTH 19 0
BBX 13 19 3 1
BITMAP
0008
0018
00F8
03F8
1FE0
FF00
F800
F800
FF00
1FE0
07F8
00F8
0038
0008
0000
0000
FFF8
FFF8
FFF8
ENDCHAR
STARTCHAR greaterequal
ENCODING 8805
SWIDTH 600 0
DWIDTH 19 0
BBX 14 19 3 1
BITMAP
8000
E000
F800
FF00
3FE0
07F8
00FC
007C
07FC
3FE0
FF00
FC00
E000
8000
0000
0000
FFF8
FFF8
FFF8
ENDCHAR
STARTCHAR lozenge
ENCODING 9674
SWIDTH 600 0
DWIDTH 19 0
BBX 15 23 2 0
BITMAP
0380
07C0
07C0
0FE0
0EE0
1E70
1C70
3C78
383C
783C
701E
F01E
701E
781C
383C
3C38
1C78
1E70
0EF0
0FE0
07E0
07C0
0380
ENDCHAR
STARTCHAR uniE0A0
ENCODING 57504
SWIDTH 600 0
DWIDTH 19 0
BBX 23 38 2 -8
BITMAP
FE0000
FE0000
FE0000
FE0000
FE0100
FE0380
FE07E0
FE0FF0
FE3FF8
FE7FFE
FE03C0
FE03C0
FE03C0
FE03C0
FE03C0
FE03C0
FE03C0
FE07C0
FC07C0
F00F80
C01F80
00FF00
03FE00
0FF800
3FE000
7F8000
7F0000
FE0000
FE0000
FE0000
FE0000
FE0000
FE0000
FE0000
FE0000
FE0000
FE0000
FE0000
ENDCHAR
STARTCHAR uniE0A1
ENCODING 57505
SWIDTH 600 0
DWIDTH 19 0
BBX 16 30 3 -4
BITMAP
F000
F000
F000
F000
F000
F000
F000
F000
F000
F000
F000
F000
FFF0
FFF0
0000
0000
1F0F
1F0F
1F87
1F87
1FC7
1DE7
1DE7
1CF7
1E7F
1E7F
1E3F
1E1F
1E1F
1E0F
ENDCHAR
STARTCHAR uniE0A2
ENCODING 57506
SWIDTH 600 0
DWIDTH 19 0
BBX 20 26 1 -2
BITMAP
03FC00
07FF00
0F0780
1E0380
1E0380
1E0380
1E0380
1E0380
1E0380
1E0380
7FFFF0
FFFFF0
FFFFF0
FF0FF0
FE07F0
FE07F0
FF0FF0
FF8FF0
FF8FF0
FF8FF0
FF8FF0
FF8FF0
FFFFF0
FFFFF0
FFFFF0
3FFFC0
ENDCHAR
STARTCHAR uniE0B0
ENCODING 57520
SWIDTH 600 0
DWIDTH 19 0
BBX 26 38 -2 -8
BITMAP
80000000
C0000000
F0000000
F8000000
FC000000
FF000000
FF800000
FFC00000
FFF00000
FFF80000
FFFE0000
FFFF0000
FFFF8000
FFFFE000
FFFFF000
FFFFF800
FFFFFE00
FFFFFF00
FFFFFFC0
FFFFFF80
FFFFFF00
FFFFFE00
FFFFF800
FFFFF000
FFFFE000
FFFF8000
FFFF0000
FFFC0000
FFF80000
FFF00000
FFC00000
FF800000
FE000000
FC000000
F8000000
E0000000
C0000000
80000000
ENDCHAR
STARTCHAR uniE0B1
ENCODING 57521
SWIDTH 600 0
DWIDTH 19 0
BBX 27 36 -3 -7
BITMAP
60000000
F8000000
7C000000
1E000000
0F800000
03C00000
01E00000
00F80000
003C0000
001F0000
000F8000
0003C000
0001F000
00007800
00003C00
00001F00
00000780
000003E0
000003C0
00000F80
00001F00
00003C00
0000F800
0001F000
0003C000
000F8000
001E0000
007C0000
00F80000
01E00000
07C00000
0F000000
1E000000
7C000000
F0000000
60000000
ENDCHAR
STARTCHAR uniE0B2
ENCODING 57522
SWIDTH 600 0
DWIDTH 19 0
BBX 26 38 -2 -8
BITMAP
00000040
000000C0
000001C0
000007C0
00000FC0
00001FC0
00007FC0
0000FFC0
0003FFC0
0007FFC0
000FFFC0
003FFFC0
007FFFC0
00FFFFC0
03FFFFC0
07FFFFC0
1FFFFFC0
3FFFFFC0
FFFFFFC0
7FFFFFC0
3FFFFFC0
0FFFFFC0
07FFFFC0
03FFFFC0
00FFFFC0
007FFFC0
001FFFC0
000FFFC0
0007FFC0
0001FFC0
0000FFC0
00007FC0
00001FC0
00000FC0
000003C0
000001C0
000000C0
00000040
ENDCHAR
STARTCHAR uniE0B3
ENCODING 57523
SWIDTH 600 0
DWIDTH 19 0
BBX 28 36 -2 -7
BITMAP
000000E0
000001F0
000007C0
00000F80
00001E00
00007C00
0000F000
0003E000
0007C000
000F0000
003E0000
007C0000
00F00000
03E00000
07800000
1F000000
3E000000
F8000000
78000000
3E000000
0F000000
07C00000
03E00000
00F00000
007C0000
001E0000
000F0000
0007C000
0001E000
0000F800
00007C00
00001E00
00000F80
000003C0
000001F0
000000C0
ENDCHAR
STARTCHAR commaaccent
ENCODING 63171
SWIDTH 600 0
DWIDTH 19 0
BBX 4 7 4 -3
BITMAP
70
70
70
70
70
E0
20
ENDCHAR
STARTCHAR uniFEFF
ENCODING 65279
SWIDTH 600 0
DWIDTH 19 0
BBX 1 1 0 0
BITMAP
00
ENDCHAR
STARTCHAR uniFFFC
ENCODING 65532
SWIDTH 600 0
DWIDTH 19 0
BBX 17 16 1 0
BITMAP
ECDB80
800080
000000
800080
800080
88C280
172200
93C280
932280
1DEE00
800080
800080
000000
800080
800080
ECDB80
ENDCHAR
STARTCHAR uniFFFD
ENCODING 65533
SWIDTH 600 0
DWIDTH 19 0
BBX 19 34 0 -9
BITMAP
004000
00E000
00E000
01F000
01F000
03F800
07FC00
07FC00
0FBE00
0E0600
1C0700
384380
386380
7FE3C0
FFC7E0
7F87C0
7F8FC0
3F1F80
3F1F80
1FFF00
0F1E00
0F1E00
071C00
07FC00
03F800
01F000
01F000
00E000
00E000
004000
000000
000000
000000
004000
ENDCHAR
STARTCHAR .notdef
ENCODING -1
SWIDTH 600 0
DWIDTH 19 0
BBX 1 1 0 0
BITMAP
00
ENDCHAR
STARTCHAR .null
ENCODING -1
SWIDTH 0 0
DWIDTH 0 0
BBX 1 1 0 0
BITMAP
00
ENDCHAR
STARTCHAR zero.smcp
ENCODING -1
SWIDTH 600 0
DWIDTH 19 0
BBX 13 18 3 0
BITMAP
1FC0
3FE0
7FF0
F878
F078
F038
F038
F038
F038
F038
F038
F038
F038
F078
7878
7FF0
3FE0
1FC0
ENDCHAR
STARTCHAR two.sup
ENCODING -1
SWIDTH 600 0
DWIDTH 19 0
BBX 10 12 5 0
BITMAP
3E00
7F80
E380
E380
0380
0780
0F00
1E00
3800
7000
FFC0
FFC0
ENDCHAR
STARTCHAR circumflextildecomb
ENCODING -1
SWIDTH 600 0
DWIDTH 19 0
BBX 12 8 4 20
BITMAP
0040
1EC0
3780
1000
0700
0F80
39C0
F0F0
ENDCHAR
STARTCHAR circumflexhookcomb
ENCODING -1
SWIDTH 600 0
DWIDTH 19 0
BBX 15 7 4 20
BITMAP
001C
000E
0006
0E1E
1F18
39C0
F0F0
ENDCHAR
STARTCHAR circumflexgravecomb
ENCODING -1
SWIDTH 600 0
DWIDTH 19 0
BBX 16 6 0 20
BITMAP
F000
7000
3870
1CF8
01DC
078F
ENDCHAR
STARTCHAR circumflexacutecomb
ENCODING -1
SWIDTH 600 0
DWIDTH 19 0
BBX 16 6 4 20
BITMAP
000F
000E
061C
0F18
3FC0
F1F0
ENDCHAR
STARTCHAR brevegravecomb
ENCODING -1
SWIDTH 600 0
DWIDTH 19 0
BBX 10 9 5 18
BITMAP
F800
3800
1C00
0200
E1C0
E1C0
FF80
7F80
0C00
ENDCHAR
STARTCHAR commaaccentrotate
ENCODING -1
SWIDTH 600 0
DWIDTH 19 0
BBX 4 7 8 18
BITMAP
40
70
E0
E0
E0
E0
E0
ENDCHAR
STARTCHAR A.smcp
ENCODING -1
SWIDTH 600 0
DWIDTH 19 0
BBX 18 18 1 0
BITMAP
01E000
03E000
03E000
07F000
07F000
077800
0F7800
0E3800
1E3C00
1E1C00
1C1E00
3FFE00
3FFE00
7FFF00
780700
700780
F00780
F003C0
ENDCHAR
STARTCHAR B.smcp
ENCODING -1
SWIDTH 600 0
DWIDTH 19 0
BBX 14 18 3 0
BITMAP
FFC0
FFF0
FFF8
F07C
F03C
F03C
F07C
FFF8
FFE0
FFF8
F03C
F03C
F01C
F03C
F03C
FFFC
FFF8
FFE0
ENDCHAR
STARTCHAR C.smcp
ENCODING -1
SWIDTH 600 0
DWIDTH 19 0
BBX 16 18 1 0
BITMAP
03F0
0FFC
3FFE
3C1E
780F
780F
7000
F000
F000
F000
F000
7000
780F
780F
3C1E
3FFE
0FFC
07F0
ENDCHAR
STARTCHAR D.smcp
ENCODING -1
SWIDTH 600 0
DWIDTH 19 0
BBX 15 18 3 0
BITMAP
FF80
FFE0
FFF0
E0F8
E03C
E03C
E01C
E01C
E01E
E01E
E01C
E01C
E03C
E03C
E0F8
FFF0
FFE0
FF80
ENDCHAR
STARTCHAR E.smcp
ENCODING -1
SWIDTH 600 0
DWIDTH 19 0
BBX 14 18 3 0
BITMAP
FFFC
FFFC
FFFC
F000
F000
F000
F000
FFF0
FFF0
FFF0
F000
F000
F000
F000
F000
FFFC
FFFC
FFFC
ENDCHAR
STARTCHAR F.smcp
ENCODING -1
SWIDTH 600 0
DWIDTH 19 0
BBX 14 18 3 0
BITMAP
FFFC
FFFC
FFFC
F000
F000
F000
F000
F000
FFF8
FFF8
FFF8
F000
F000
F000
F000
F000
F000
F000
ENDCHAR
STARTCHAR G.smcp
ENCODING -1
SWIDTH 600 0
DWIDTH 19 0
BBX 15 18 2 0
BITMAP
07E0
1FF8
3FFC
7C3E
F81E
F00E
F000
E000
E0FE
E0FE
E0FE
F00E
F00E
F80E
7C1E
3FFE
1FFC
07F0
ENDCHAR
STARTCHAR H.smcp
ENCODING -1
SWIDTH 600 0
DWIDTH 19 0
BBX 14 18 2 0
BITMAP
F03C
F03C
F03C
F03C
F03C
F03C
F03C
F03C
FFFC
FFFC
FFFC
F03C
F03C
F03C
F03C
F03C
F03C
F03C
ENDCHAR
STARTCHAR I.smcp
ENCODING -1
SWIDTH 600 0
DWIDTH 19 0
BBX 13 18 3 0
BITMAP
FFF8
FFF8
FFF8
0780
0780
0780
0780
0780
0780
0780
0780
0780
0780
0780
0780
FFF8
FFF8
FFF8
ENDCHAR
STARTCHAR J.smcp
ENCODING -1
SWIDTH 600 0
DWIDTH 19 0
BBX 14 18 2 0
BITMAP
003C
003C
003C
003C
003C
003C
003C
003C
003C
003C
003C
F03C
F03C
783C
7878
3FF8
3FF0
0FC0
ENDCHAR
STARTCHAR K.smcp
ENCODING -1
SWIDTH 600 0
DWIDTH 19 0
BBX 15 18 3 0
BITMAP
E03E
E07C
E0F8
E1F0
E3E0
E7C0
E780
EF00
FF00
FF80
FFC0
F3C0
E1E0
E0F0
E0F8
E078
E03C
E03E
ENDCHAR
STARTCHAR L.smcp
ENCODING -1
SWIDTH 600 0
DWIDTH 19 0
BBX 14 18 3 0
BITMAP
F000
F000
F000
F000
F000
F000
F000
F000
F000
F000
F000
F000
F000
F000
F000
FFFC
FFFC
FFFC
ENDCHAR
STARTCHAR M.smcp
ENCODING -1
SWIDTH 600 0
DWIDTH 19 0
BBX 15 18 2 0
BITMAP
F81E
F83E
FC3E
FC3E
FC7E
FE7E
FE6E
FEEE
F7EE
F7CE
F7CE
F3CE
F38E
F38E
F00E
F00E
F00E
F00E
ENDCHAR
STARTCHAR N.smcp
ENCODING -1
SWIDTH 600 0
DWIDTH 19 0
BBX 13 18 3 0
BITMAP
F038
F038
F838
F838
FC38
FC38
EE38
EE38
E738
E738
E3B8
E3B8
E1F8
E1F8
E0F8
E0F8
E078
E078
ENDCHAR
STARTCHAR O.smcp
ENCODING -1
SWIDTH 600 0
DWIDTH 19 0
BBX 15 18 2 0
BITMAP
07C0
1FF0
3FF8
7C3C
F81E
F01E
F01E
F00E
F00E
F00E
F00E
F01E
F01E
F81E
7C3C
3FF8
1FF0
07C0
ENDCHAR
STARTCHAR Q.smcp
ENCODING -1
SWIDTH 600 0
DWIDTH 19 0
BBX 17 21 1 -3
BITMAP
03E000
0FF800
3FFE00
3C1E00
780F00
780F00
700700
F00780
F00780
F00780
F00780
700780
780F00
780F00
3C1E00
3FFE00
0FFC00
07FE00
001F80
000700
000200
ENDCHAR
STARTCHAR R.smcp
ENCODING -1
SWIDTH 600 0
DWIDTH 19 0
BBX 15 18 2 0
BITMAP
FFE0
FFF8
FFFC
F07C
F03C
F01C
F03C
F03C
FFF8
FFF0
FFE0
F0F0
F0F0
F078
F078
F03C
F03C
F01E
ENDCHAR
STARTCHAR S.smcp
ENCODING -1
SWIDTH 600 0
DWIDTH 19 0
BBX 15 19 2 0
BITMAP
07E0
1FF8
3FFC
7C3E
781E
701E
7800
7E00
3FC0
1FF8
03FC
007E
001E
F00E
F01E
783E
7FFC
3FF8
0FE0
ENDCHAR
STARTCHAR T.smcp
ENCODING -1
SWIDTH 600 0
DWIDTH 19 0
BBX 17 18 1 0
BITMAP
FFFF80
FFFF80
FFFF80
01E000
01E000
01E000
01E000
01E000
01E000
01E000
01E000
01E000
01E000
01E000
01E000
01E000
01E000
01E000
ENDCHAR
STARTCHAR U.smcp
ENCODING -1
SWIDTH 600 0
DWIDTH 19 0
BBX 14 18 3 0
BITMAP
E03C
E03C
E03C
E03C
E03C
E03C
E03C
E03C
E03C
E03C
E03C
E03C
E03C
F03C
F878
7FF8
3FF0
0FC0
ENDCHAR
STARTCHAR V.smcp
ENCODING -1
SWIDTH 600 0
DWIDTH 19 0
BBX 18 18 1 0
BITMAP
F007C0
700780
780780
780F00
3C0F00
3C0E00
3C1E00
1E1E00
1E1C00
0E3C00
0F3C00
0F3800
077800
07F000
03F000
03F000
03E000
01E000
ENDCHAR
STARTCHAR W.smcp
ENCODING -1
SWIDTH 600 0
DWIDTH 19 0
BBX 18 18 1 0
BITMAP
E1C3C0
E1E380
F3E380
F3E380
F3E780
73E780
73F700
73F700
777700
7F7700
3F7F00
3F3E00
3F3E00
3E3E00
3E3E00
1E3E00
1E1E00
1C1C00
ENDCHAR
STARTCHAR X.smcp
ENCODING -1
SWIDTH 600 0
DWIDTH 19 0
BBX 17 18 1 0
BITMAP
F80F80
7C1F00
3C1E00
1E3C00
1E3C00
0F7800
07F000
07F000
03E000
03E000
07F000
07F000
0F7800
1E3C00
1E3E00
3C1E00
7C0F00
F80F80
ENDCHAR
STARTCHAR Y.smcp
ENCODING -1
SWIDTH 600 0
DWIDTH 19 0
BBX 17 18 1 0
BITMAP
F00780
780F80
7C0F00
3C1E00
1E1E00
1E3C00
0F3C00
0F7800
07F000
03F000
03E000
01E000
01E000
01E000
01E000
01E000
01E000
01E000
ENDCHAR
STARTCHAR Z.smcp
ENCODING -1
SWIDTH 600 0
DWIDTH 19 0
BBX 14 18 3 0
BITMAP
FFFC
FFFC
FFFC
0078
00F0
01E0
01E0
03C0
0780
0F00
0F00
1E00
3C00
7C00
7800
FFFC
FFFC
FFFC
ENDCHAR
STARTCHAR brevehookcomb
ENCODING -1
SWIDTH 600 0
DWIDTH 19 0
BBX 10 9 5 19
BITMAP
1C00
0700
0300
0E00
0C00
E1C0
E1C0
7F80
0E00
ENDCHAR
STARTCHAR one.smcp
ENCODING -1
SWIDTH 600 0
DWIDTH 19 0
BBX 9 18 4 0
BITMAP
0180
0F80
7F80
FF80
F380
8380
0380
0380
0380
0380
0380
0380
0380
0380
0380
0380
0380
0380
ENDCHAR
STARTCHAR two.smcp
ENCODING -1
SWIDTH 600 0
DWIDTH 19 0
BBX 14 18 3 0
BITMAP
1FE0
7FF0
FFF8
F078
F078
E078
0078
00F8
01F0
03E0
07C0
0F80
1F00
3E00
7800
FFFC
FFFC
FFFC
ENDCHAR
STARTCHAR three.smcp
ENCODING -1
SWIDTH 600 0
DWIDTH 19 0
BBX 14 18 3 0
BITMAP
1FE0
7FF0
7FF8
F078
F038
0038
0078
0FF0
0FE0
0FF0
00F8
0038
003C
F03C
F078
FFF8
7FF0
1FC0
ENDCHAR
STARTCHAR four.smcp
ENCODING -1
SWIDTH 600 0
DWIDTH 19 0
BBX 15 18 2 0
BITMAP
00F8
00F8
01F8
03F8
07F8
0778
0F78
1E78
1C78
3878
7878
FFFE
FFFE
FFFE
0078
0078
0078
0078
ENDCHAR
STARTCHAR five.smcp
ENCODING -1
SWIDTH 600 0
DWIDTH 19 0
BBX 14 18 3 0
BITMAP
7FF8
7FF8
7FF8
7800
7000
7000
77C0
7FF0
FFF8
3078
0078
0038
003C
F078
F078
7FF8
3FF0
1FC0
ENDCHAR
STARTCHAR six.smcp
ENCODING -1
SWIDTH 600 0
DWIDTH 19 0
BBX 14 18 3 0
BITMAP
03E0
0FE0
1FE0
3E00
7800
7800
F3E0
FFF0
FFF8
F87C
F03C
F03C
F03C
F03C
7878
7FF8
3FF0
0FE0
ENDCHAR
STARTCHAR seven.smcp
ENCODING -1
SWIDTH 600 0
DWIDTH 19 0
BBX 14 18 3 0
BITMAP
FFFC
FFFC
FFFC
0038
0078
0070
00F0
00E0
01E0
01C0
03C0
0780
0780
0F00
0F00
1E00
1E00
3C00
ENDCHAR
STARTCHAR eight.smcp
ENCODING -1
SWIDTH 600 0
DWIDTH 19 0
BBX 14 18 3 0
BITMAP
1FE0
3FF0
7FF8
7878
F078
7078
7878
3FF0
1FE0
3FF0
78F8
F038
F03C
F03C
F878
7FF8
3FF0
1FE0
ENDCHAR
STARTCHAR nine.smcp
ENCODING -1
SWIDTH 600 0
DWIDTH 19 0
BBX 13 18 3 0
BITMAP
1FC0
3FF0
7FF0
F078
F078
F038
F038
F038
F878
7FF8
3FF8
1F78
0078
00F0
01F0
1FE0
1FC0
1F00
ENDCHAR
STARTCHAR zero.sup
ENCODING -1
SWIDTH 600 0
DWIDTH 19 0
BBX 9 13 5 0
BITMAP
0800
7F00
7F80
E380
E380
E380
E380
E380
E380
E380
F380
7F00
3E00
ENDCHAR
STARTCHAR one.sup
ENCODING -1
SWIDTH 600 0
DWIDTH 19 0
BBX 6 12 5 0
BITMAP
0C
7C
FC
CC
0C
0C
0C
0C
0C
0C
0C
0C
ENDCHAR
STARTCHAR breveacutecomb
ENCODING -1
SWIDTH 600 0
DWIDTH 19 0
BBX 10 7 5 19
BITMAP
0700
0600
0C00
E1C0
E1C0
7F80
1C00
ENDCHAR
ENDFONT
